<svg width="70" height="70" viewBox="0 0 70 70" fill="none" xmlns="http://www.w3.org/2000/svg">
<style>
    .logo { fill: #c40d2e; }
</style>
<path class="logo" d="M35 7.14155C49.5659 7.14155 58.4731 19.4634 58.4731 32.8674C58.4731 46.2713 51.3124 56.4988 41.4271 64.1083L41.9162 65.0159H65.005L70 55.2073H67.5549L64.3762 60.0592H52.5349C56.9845 57.0744 60.6646 53.0803 63.275 48.4032C65.8853 43.726 67.3519 38.4982 67.5549 33.1466C67.5549 14.7162 51.3822 4 35 4C18.6178 4 2.44511 14.7162 2.44511 33.1466C2.64813 38.4982 4.11467 43.726 6.72501 48.4032C9.33536 53.0803 13.0155 57.0744 17.4651 60.0592H5.62375L2.44511 55.2073H0L4.995 65.0159H28.0838L28.7126 64.1083C18.8273 56.5337 11.6667 45.9572 11.6667 32.8674C11.6667 19.7776 20.6088 7.14155 35.1746 7.14155H35Z" />
</svg>
