<svg width="165" height="38" fill="none" xmlns="http://www.w3.org/2000/svg"><path d="M29.497 1.448h6.608V4.28c0 4.352-2.336 8.064-6.24 10.112l-.976-1.136c3.647-1.824 5.711-5.088 5.711-8.832V2.808h-5.104v-1.36zm11.727-.288v13.824h-1.503V1.16h1.504zm14.407 7.968v5.696H44.35V9.128h1.536v1.344h8.24V9.128h1.504zM43.599 4.696c0-1.968 1.472-3.536 3.616-3.536 2.128 0 3.6 1.568 3.6 3.536 0 1.952-1.472 3.52-3.6 3.52-2.144 0-3.616-1.568-3.616-3.52zM55.63 1.16v7.312h-1.504V5.368h-2.704v-1.36h2.704V1.16h1.504zM45.103 4.696c0 1.2.832 2.176 2.112 2.176 1.264 0 2.096-.976 2.096-2.176 0-1.216-.832-2.192-2.096-2.192-1.28 0-2.112.976-2.112 2.192zm.752 8.8h8.272V11.8h-8.272v1.696zm28.092-2.272h-1.504V2.808H62.219v-1.36h11.728v9.776zm.752 1.792v1.36H61.467v-1.36h4.816V6.664h1.504v6.352h6.912zM88.209 1.16v8.496h-1.504V5.96H84.8v3.696h-1.488V1.224H84.8v3.392h1.904V1.16h1.504zm0 9.168v4.8h-1.504v-3.44h-9.92v-1.36h11.424zM76.48 1.448h5.568v.96c0 3.264-1.968 6-5.296 6.96l-.912-1.152c2.848-.64 4.608-2.88 4.704-5.408H76.48v-1.36zm26.438 12.032v1.344H91.031V11.16h10.224v-.928H91.031V8.888h11.728v3.6H92.535v.992h10.384zm-12.64-6.912h13.232v1.344H90.279V6.568zm3.312-2.176h6.464c.752 0 1.36-.352 1.36-.944 0-.608-.608-.96-1.36-.96H93.59c-.752 0-1.2.352-1.2.96 0 .592.448.944 1.2.944zm0-3.232h6.464c1.664 0 2.864.784 2.864 2.288 0 1.504-1.2 2.272-2.864 2.272H93.59c-1.648 0-2.704-.768-2.704-2.272 0-1.504 1.056-2.288 2.704-2.288zm23.132 3.376c0 2.144-1.728 3.392-3.904 3.392-2.192 0-3.92-1.264-3.92-3.392 0-2.112 1.728-3.376 3.92-3.376 2.176 0 3.904 1.248 3.904 3.376zm-1.504 0c0-1.12-.896-2.08-2.4-2.08s-2.416.96-2.416 2.08c0 1.136.912 2.08 2.416 2.08s2.4-.944 2.4-2.08zm5.568-3.376v13.824h-1.504V1.16h1.504zm-2.448 8.112v1.36h-4.976v4.352h-1.504v-4.352h-3.408v-1.36h9.888zm12.198-2.096c0 1.728-1.44 3.008-3.472 3.008s-3.456-1.28-3.456-3.008 1.424-3.008 3.456-3.008 3.472 1.28 3.472 3.008zm4.656 6.304v1.344h-11.424v-4.048h1.504v2.704h9.92zm1.648-8.016v1.344h-1.952v4.944h-1.504V1.16h1.504v4.304h1.952zm-5.552-3.328v1.328h-8.272V2.136h3.296V.696h1.504v1.44h3.472zm-2.256 5.04c0-.976-.688-1.76-1.968-1.76s-1.952.784-1.952 1.76.672 1.728 1.952 1.728c1.28 0 1.968-.752 1.968-1.728zM.076 30.664h13.232v1.328H.076v-1.328zm12.48 6.464h-1.504v-2.704H.828V33.08h11.728v4.048zm.16-8.848v1.328H.828v-6.16h11.728v1.328H2.332v1.088h10.224v1.328H2.332v1.088h10.384zm14.406 7.376v1.328H15.538V33.24h9.776v-1.088h-9.776v-1.328h11.28v3.712h-9.776v1.12h10.08zm-5.264-12.208v6.256H15.09v-6.256h1.504v1.744h3.76v-1.744h1.504zm4.96-.288v6.96h-1.504v-1.472H22.61v-1.36h2.704v-1.344H22.61v-1.36h2.704V23.16h1.504zm-10.224 5.216h3.76v-1.872h-3.76v1.872zm19.974.8c0 1.728-1.44 3.008-3.471 3.008-2.033 0-3.457-1.28-3.457-3.008s1.424-3.008 3.456-3.008c2.033 0 3.473 1.28 3.473 3.008zm4.657 6.304v1.344H29.8v-4.048h1.505v2.704h9.92zm1.648-8.016v1.344H40.92v4.944h-1.504V23.16h1.505v4.304h1.952zm-5.552-3.328v1.328h-8.272v-1.328h3.295v-1.44h1.505v1.44h3.472zm-2.256 5.04c0-.976-.688-1.76-1.968-1.76s-1.953.784-1.953 1.76.673 1.728 1.953 1.728 1.968-.752 1.968-1.728zM53.38 30.68v3.008c0 1.792-1.056 2.832-2.864 2.832-1.792 0-2.848-1.04-2.848-2.832V30.68c0-1.808 1.056-2.864 2.848-2.864 1.808 0 2.864 1.056 2.864 2.864zm3.152-7.456v13.6h-1.504v-4.192h-1.344v-1.36h1.344v-2.56h-1.344v-1.344h1.344v-4.144h1.504zm2.864 13.76h-1.504V23.16h1.504v13.824zm-7.52-3.296V30.68c0-.912-.448-1.504-1.36-1.504-.896 0-1.344.592-1.344 1.504v3.008c0 .896.448 1.488 1.344 1.488.912 0 1.36-.592 1.36-1.488zm1.824-8.88v1.36h-6.336v-1.36h2.4v-2.112h1.504v2.112H53.7zm20.103 7.824v4.496h-1.504v-3.152h-9.92v-1.344h11.424zm-5.712-2.704v1.344h-6.016v-7.824h5.568v1.36h-4.064v1.808h3.904v1.344h-3.904v1.968h4.512zm5.712-6.768v8.8h-1.504v-3.84h-1.76v3.84h-1.472v-8.736h1.472v3.536h1.76v-3.6h1.504zm14.71 12.32v1.344H76.625V33.16h10.224v-.928H76.625v-1.344h11.728v3.6H78.129v.992h10.384zm-12.64-6.912h13.232v1.344H75.873v-1.344zm3.312-2.176h6.464c.752 0 1.36-.352 1.36-.944 0-.608-.608-.96-1.36-.96h-6.464c-.752 0-1.2.352-1.2.96 0 .592.448.944 1.2.944zm0-3.232h6.464c1.664 0 2.864.784 2.864 2.288 0 1.504-1.2 2.272-2.864 2.272h-6.464c-1.648 0-2.704-.768-2.704-2.272 0-1.504 1.056-2.288 2.704-2.288zm28.844 4.144v1.36h-1.952v4.944h-1.504V23.16h1.504v4.144h1.952zm-1.648 8.176v1.344H94.957v-4.352h1.504v3.008h9.92zm-4.656-12.032v7.376h-7.072v-7.376h7.072zm-5.568 6.016h4.064v-4.656h-4.064v4.656zm12.902 6.912V23.448h1.504v11.568h6.912v1.36h-8.416zm11.424-6.352v6.96h-1.504V23.16h1.504v5.52h1.952v1.344h-1.952zm14.854-6.576v8.272h-11.728v-8.272h1.504v2.72h8.72v-2.72h1.504zm-10.224 6.928h8.72v-2.864h-8.72v2.864zm10.976 4.64v1.36h-13.232v-1.36h5.872v-2.592h1.504v2.592h5.856zm2.439 1.552l-1.408-.56c2.08-3.68 2.4-8.336 2.4-12.704h1.504c0 1.568-.048 3.184-.208 4.784.656 2.56 1.84 5.184 3.568 7.264l-1.232.88c-1.168-1.424-2.096-3.232-2.768-5.056-.384 1.936-.96 3.776-1.856 5.392zm11.072.416h-1.504V23.16h1.504v13.824zm-3.232-13.76v13.6h-1.504v-7.36h-2.48V28.12h2.48v-4.896h1.504zm13.734 7.456h-3.616c-2.56 0-4.368-1.504-4.368-3.76s1.808-3.76 4.368-3.76h3.616c2.544 0 4.352 1.504 4.352 3.76s-1.808 3.76-4.352 3.76zm-3.616-1.36h3.616c1.648 0 2.768-.976 2.768-2.4 0-1.44-1.12-2.416-2.768-2.416h-3.616c-1.648 0-2.784.976-2.784 2.416 0 1.424 1.136 2.4 2.784 2.4zm8.416 5.696v1.36H151.67v-1.36h3.008v-3.44h1.504v3.44h4.208v-3.44h1.504v3.44h3.008z" fill="#393939"/></svg>