<?xml version="1.0" encoding="utf-8"?>
<!-- Generator: Adobe Illustrator 27.0.0, SVG Export Plug-In . SVG Version: 6.00 Build 0)  -->
<svg version="1.1" id="Layer_1" xmlns="http://www.w3.org/2000/svg" xmlns:xlink="http://www.w3.org/1999/xlink" x="0px" y="0px"
	 viewBox="0 0 22 22" style="enable-background:new 0 0 22 22;" xml:space="preserve">
<style type="text/css">
	.st0{fill:#231F20;}
</style>
<path class="st0" d="M22,11c0,6.1-4.9,11-11,11c-4.1,0-7.7-2.3-9.6-5.7c2-0.3,2.4-3,2.8-5.8l0,0c0-0.3,0.1-0.6,0.1-0.9
	c0.2-1.1,0.4-1.5,0.8-1.5s0.6,0.4,0.8,1.5c0,0.4,0.1,0.7,0.1,1c0.5,2.9,0.9,5.8,3.2,5.8s2.7-2.8,3.2-5.8c0-0.3,0.1-0.6,0.1-0.9
	c0.2-1.1,0.4-1.5,0.8-1.5c0.4,0,0.6,0.4,0.8,1.5c0,0.3,0.1,0.6,0.1,0.9c0.5,2.9,0.9,5.8,3.2,5.8s2.7-2.8,3.2-5.8
	c0-0.3,0.1-0.6,0.1-0.9c0.2-1.1,0.4-1.5,0.8-1.5c0.1,0,0.2,0,0.2,0.2C21.9,9.2,22,10.1,22,11z"/>
<path class="st0" d="M0,11c0,0.4,0,1,0.1,1.6c0.2,1.1,0.4,1.7,0.9,1.7s0.7-0.7,0.9-2.1C2,11.9,2,11.6,2,11.4l0,0
	c0.1-1,0.3-2.2,0.6-3.3C3,6.8,3.8,5.7,5,5.7c1.3,0,2,1.1,2.4,2.4c0.3,1.1,0.5,2.2,0.6,3.3c0,0.3,0.1,0.6,0.1,0.8
	c0.2,1.4,0.4,2.1,0.9,2.1s0.7-0.7,0.9-2.1c0-0.3,0.1-0.5,0.1-0.8c0.1-1,0.3-2.2,0.6-3.3C11,6.8,11.8,5.7,13,5.7c1.3,0,2,1.1,2.4,2.4
	c0.3,1.1,0.5,2.2,0.6,3.3c0,0.3,0.1,0.6,0.1,0.8c0.2,1.4,0.4,2.1,0.9,2.1s0.7-0.7,0.9-2.1c0-0.3,0.1-0.5,0.1-0.8
	c0.1-1,0.3-2.2,0.6-3.3c0.3-1,0.9-1.9,1.6-2.3C18.8,2.3,15.2,0,11,0C4.9,0,0,4.9,0,11z"/>
</svg>
