<svg width="32" height="16" fill="none" xmlns="http://www.w3.org/2000/svg"><path d="M10.697 9.12c.277 0 .546-.005.808-.016a33.5 33.5 0 00.768-.04c.25-.021.498-.045.744-.072.25-.032.506-.07.768-.112l.112.856c-.299.053-.595.096-.888.128a22.99 22.99 0 01-.872.08c-.294.016-.592.03-.896.04a58.3 58.3 0 01-.96.008h-.664V6.96h2.392V5.784h-2.4v-.84h3.48v2.848h-2.392V9.12zm4.656-4.808v7.392h-1.056V4.312h1.056zm2.391 4.752c.261 0 .507-.005.736-.016a22.904 22.904 0 001.296-.096c.208-.027.416-.059.624-.096l.104.856c-.25.048-.496.085-.736.112a18.065 18.065 0 01-1.552.096c-.283.005-.592.008-.928.008h-.6V4.976h3.336v.84h-2.28v3.248zm4.784-4.744v7.392h-1.056v-4h-1.8v-.848h1.8V4.32h1.056z" fill="#A451F7"/><rect x=".5" y=".5" width="31" height="15" rx="7.5" stroke="#A451F7"/></svg>