<svg width="48" height="20" viewBox="0 0 48 20" fill="none" xmlns="http://www.w3.org/2000/svg">
<path d="M0 9.66667C0 9.76711 0.00152857 9.8672 0.00456368 9.96691L0.00653832 9.98138C0.0410601 10.2343 0.0743222 10.478 0.109204 10.7074C0.278997 11.9485 0.45384 12.5891 0.897364 12.5891C1.34089 12.5891 1.51573 11.9485 1.68552 10.7074C1.72038 10.4781 1.75362 10.2346 1.78812 9.98189L1.78818 9.98142C1.91388 9.06055 2.05633 8.01703 2.35475 7.08835C2.74545 5.92372 3.38762 4.94573 4.48615 4.94574C5.58468 4.94573 6.22684 5.92372 6.61754 7.08835C6.91597 8.01703 7.05841 9.0605 7.18411 9.98138C7.21863 10.2343 7.25189 10.4779 7.28677 10.7074C7.45657 11.9485 7.63141 12.5891 8.07493 12.5891C8.51846 12.5891 8.6933 11.9485 8.86309 10.7074C8.89798 10.4779 8.93124 10.2343 8.96576 9.98138C9.09146 9.0605 9.23389 8.01703 9.53232 7.08835C9.92302 5.92372 10.5652 4.94573 11.6637 4.94574C12.7622 4.94573 13.4044 5.92372 13.7951 7.08835C14.0935 8.01703 14.236 9.0605 14.3617 9.98138C14.3962 10.2343 14.4295 10.4779 14.4643 10.7074C14.6341 11.9485 14.809 12.5891 15.2525 12.5891C15.696 12.5891 15.8709 11.9485 16.0407 10.7074C16.0755 10.4779 16.1088 10.2343 16.1433 9.98138C16.269 9.0605 16.4115 8.01703 16.7099 7.08835C17.0096 6.19511 17.4571 5.41166 18.1451 5.09504C16.5178 2.06195 13.3216 0 9.64486 0C4.31815 0 0 4.32791 0 9.66667Z" fill="#333333"/>
<path d="M19.2897 9.66667C19.2897 15.0054 14.9716 19.3333 9.64486 19.3333C6.01967 19.3333 2.86162 17.3288 1.21396 14.3652C2.94112 14.1121 3.31029 11.7494 3.69234 9.30437L3.69241 9.3039C3.73204 9.05032 3.77182 8.79573 3.81325 8.54264C3.97343 7.56416 4.14083 7.1938 4.48615 7.1938C4.83147 7.1938 4.99887 7.56416 5.15905 8.54264C5.2005 8.79589 5.24029 9.05052 5.27994 9.30426C5.68429 11.8921 6.07423 14.3876 8.07493 14.3876C10.0756 14.3876 10.4656 11.8922 10.8699 9.30437C10.9096 9.05063 10.9494 8.79589 10.9908 8.54264C11.151 7.56416 11.3184 7.1938 11.6637 7.1938C12.009 7.1938 12.1764 7.56416 12.3366 8.54264C12.3781 8.79593 12.4179 9.05059 12.4575 9.30437C12.8619 11.8922 13.2518 14.3876 15.2525 14.3876C17.2532 14.3876 17.6431 11.8922 18.0475 9.30437C18.0871 9.05059 18.1269 8.79593 18.1684 8.54264C18.3286 7.56416 18.496 7.1938 18.8413 7.1938C18.89 7.1938 18.9351 7.20116 18.9772 7.21655C19.1811 7.99902 19.2897 8.82014 19.2897 9.66667Z" fill="#333333"/>
<path d="M26.192 2.69767C26.192 2.20105 26.5937 1.79845 27.0892 1.79845C27.5847 1.79845 27.9864 2.20105 27.9864 2.69767V16.6357C27.9864 17.1323 27.5847 17.5349 27.0892 17.5349C26.5937 17.5349 26.192 17.1323 26.192 16.6357V2.69767Z" fill="#333333"/>
<path d="M21.9694 2.96167C22.1423 2.78842 22.3563 2.69767 22.6114 2.69767C22.8584 2.69767 23.0724 2.78842 23.237 2.96167C23.4099 3.13491 23.5004 3.34116 23.5004 3.58865C23.5004 3.84439 23.4099 4.05889 23.237 4.23213C23.0642 4.40538 22.8584 4.49612 22.6114 4.49612C22.3563 4.49612 22.1423 4.40538 21.9694 4.23213C21.7966 4.05889 21.706 3.84439 21.706 3.58865C21.706 3.34941 21.7966 3.13491 21.9694 2.96167Z" fill="#333333"/>
<path d="M21.706 7.1938C21.706 6.69717 22.1077 6.29457 22.6032 6.29457C23.0987 6.29457 23.5004 6.69717 23.5004 7.1938V16.6357C23.5004 17.1323 23.0987 17.5349 22.6032 17.5349C22.1077 17.5349 21.706 17.1323 21.706 16.6357V7.1938Z" fill="#333333"/>
<path d="M30.678 2.69767C30.678 2.20105 31.0797 1.79845 31.5752 1.79845C32.0707 1.79845 32.4724 2.20105 32.4724 2.69767V16.6357C32.4724 17.1323 32.0707 17.5349 31.5752 17.5349C31.0797 17.5349 30.678 17.1323 30.678 16.6357V2.69767Z" fill="#333333"/>
<path d="M36.0694 2.69767C35.8142 2.69767 35.6002 2.78842 35.4274 2.96167C35.2545 3.13491 35.164 3.34941 35.164 3.58865C35.164 3.84439 35.2545 4.05889 35.4274 4.23213C35.6002 4.40538 35.8142 4.49612 36.0694 4.49612C36.3163 4.49612 36.5221 4.40538 36.695 4.23213C36.8678 4.05889 36.9583 3.84439 36.9583 3.58865C36.9583 3.34116 36.8678 3.13491 36.695 2.96167C36.5303 2.78842 36.3163 2.69767 36.0694 2.69767Z" fill="#333333"/>
<path d="M35.164 7.1938C35.164 6.69717 35.5656 6.29457 36.0612 6.29457C36.5567 6.29457 36.9583 6.69717 36.9583 7.1938V16.6357C36.9583 17.1323 36.5567 17.5349 36.0612 17.5349C35.5656 17.5349 35.164 17.1323 35.164 16.6357V7.1938Z" fill="#333333"/>
<path d="M41.0032 13.5547H47.0943C47.3211 13.5547 47.5155 13.4821 47.6613 13.3371C47.799 13.2001 47.8719 13.039 47.8881 12.8456C47.8419 10.4835 45.9977 8.33362 43.5628 8.33362C42.0235 8.33362 40.5396 9.21181 39.8044 10.5655C39.4102 11.2894 39.2293 12.1201 39.2293 12.9423C39.2293 13.8205 39.4318 14.6182 39.8368 15.3111C40.6105 16.6305 42.0149 17.5349 43.5628 17.5349C44.2574 17.5349 44.9223 17.4768 45.5878 17.2529C46.1467 17.0676 46.6164 16.8178 46.989 16.5277C47.185 16.3778 47.2968 16.1554 47.2968 15.9073C47.2968 15.5593 47.0655 15.2648 46.7474 15.1677C46.4109 15.065 46.1307 15.2303 45.8713 15.4239C45.3545 15.8278 44.626 16.0443 43.9759 16.0443C43.1497 16.0443 42.445 15.8107 41.8699 15.3433C41.3596 14.9324 41.0275 14.3926 40.8736 13.74C40.8443 13.6378 40.8873 13.5662 41.0032 13.5547ZM43.5628 9.82419C44.8912 9.82419 45.9928 10.7105 46.1953 11.8063C46.1953 11.8143 46.1872 12.0883 45.8956 12.1527C44.3528 12.1527 42.8077 12.1308 41.2652 12.1521C40.9468 12.1565 40.9162 11.8172 40.9862 11.5821C41.2813 10.5916 42.3247 9.82419 43.5628 9.82419Z" fill="#333333"/>
</svg>
