<svg width="187" height="42" fill="none" xmlns="http://www.w3.org/2000/svg"><path d="M1.332 1.004h7.434V4.19c0 4.896-2.628 9.072-7.02 11.376L.648 14.288c4.104-2.052 6.426-5.724 6.426-9.936V2.534H1.332v-1.53zM14.526.68v15.552h-1.692V.68h1.692zm16.207 8.964v6.408h-12.69V9.644h1.728v1.512h9.27V9.644h1.692zM17.197 4.658c0-2.214 1.656-3.978 4.068-3.978 2.394 0 4.05 1.764 4.05 3.978 0 2.196-1.656 3.96-4.05 3.96-2.412 0-4.068-1.764-4.068-3.96zM30.733.68v8.226h-1.692V5.414h-3.042v-1.53h3.042V.68h1.692zM18.889 4.658c0 1.35.936 2.448 2.376 2.448 1.422 0 2.358-1.098 2.358-2.448 0-1.368-.936-2.466-2.358-2.466-1.44 0-2.376 1.098-2.376 2.466zm.846 9.9h9.306V12.65h-9.306v1.908zm31.603-2.556h-1.692V2.534H38.144v-1.53h13.194v10.998zm.846 2.016v1.53H37.298v-1.53h5.418V6.872h1.692v7.146h7.776zM67.384.68v9.558H65.69V6.08h-2.14v4.158h-1.674V.752h1.674v3.816h2.142V.68h1.692zm0 10.314v5.4H65.69v-3.87H54.53v-1.53h12.852zm-13.195-9.99h6.264v1.08c0 3.672-2.214 6.75-5.958 7.83L53.47 8.618c3.204-.72 5.184-3.24 5.292-6.084H54.19v-1.53zM83.933 14.54v1.512H70.558V11.93H82.06v-1.044H70.559V9.374h13.194v4.05H72.251v1.116h11.681zm-14.22-7.776h14.886v1.512H69.713V6.764zm3.726-2.448h7.272c.846 0 1.53-.396 1.53-1.062 0-.684-.684-1.08-1.53-1.08h-7.272c-.846 0-1.35.396-1.35 1.08 0 .666.504 1.062 1.35 1.062zm0-3.636h7.272c1.871 0 3.222.882 3.222 2.574 0 1.692-1.35 2.556-3.223 2.556h-7.27c-1.854 0-3.042-.864-3.042-2.556 0-1.692 1.188-2.574 3.041-2.574zm26.023 3.798c0 2.412-1.944 3.816-4.392 3.816-2.466 0-4.41-1.422-4.41-3.816 0-2.376 1.944-3.798 4.41-3.798 2.448 0 4.392 1.404 4.392 3.798zm-1.692 0c0-1.26-1.008-2.34-2.7-2.34-1.692 0-2.718 1.08-2.718 2.34 0 1.278 1.026 2.34 2.718 2.34s2.7-1.062 2.7-2.34zM104.034.68v15.552h-1.692V.68h1.692zm-2.754 9.126v1.53h-5.598v4.896H93.99v-4.896h-3.834v-1.53h11.124zm13.723-2.358c0 1.944-1.62 3.384-3.906 3.384s-3.888-1.44-3.888-3.384 1.602-3.384 3.888-3.384c2.286 0 3.906 1.44 3.906 3.384zm5.238 7.092v1.512h-12.852v-4.554h1.692v3.042h11.16zm1.854-9.018v1.512h-2.196v5.562h-1.692V.68h1.692v4.842h2.196zm-6.246-3.744v1.494h-9.306V1.778h3.708V.158h1.692v1.62h3.906zm-2.538 5.67c0-1.098-.774-1.98-2.214-1.98s-2.196.882-2.196 1.98c0 1.098.756 1.944 2.196 1.944 1.44 0 2.214-.846 2.214-1.944zM.648 34.122h14.886v1.494H.648v-1.494zm14.04 7.272h-1.692v-3.042H1.494V36.84h13.194v4.554zm.18-9.954v1.494H1.494v-6.93h13.194v1.494H3.186v1.224h11.502v1.494H3.186v1.224h11.682zm16.207 8.298v1.494H18.043V37.02h10.998v-1.224H18.043v-1.494h12.69v4.176H19.735v1.26h11.34zm-5.922-13.734v7.038h-7.614v-7.038h1.692v1.962h4.23v-1.962h1.692zm5.58-.324v7.83h-1.692v-1.656h-3.042v-1.53h3.042v-1.512h-3.042v-1.53h3.042V25.68h1.692zm-11.502 5.868h4.23v-2.106h-4.23v2.106zm22.471.9c0 1.944-1.62 3.384-3.906 3.384s-3.888-1.44-3.888-3.384 1.602-3.384 3.888-3.384c2.286 0 3.906 1.44 3.906 3.384zm5.238 7.092v1.512H34.088v-4.554h1.692v3.042h11.16zm1.854-9.018v1.512h-2.196v5.562h-1.692V25.68h1.692v4.842h2.196zm-6.246-3.744v1.494h-9.306v-1.494h3.708v-1.62h1.692v1.62h3.906zm-2.538 5.67c0-1.098-.774-1.98-2.214-1.98s-2.196.882-2.196 1.98c0 1.098.756 1.944 2.196 1.944 1.44 0 2.214-.846 2.214-1.944zm20.605 1.692v3.384c0 2.016-1.188 3.186-3.222 3.186-2.016 0-3.204-1.17-3.204-3.186V34.14c0-2.034 1.188-3.222 3.204-3.222 2.034 0 3.222 1.188 3.222 3.222zm3.546-8.388v15.3H62.47v-4.716h-1.512v-1.53h1.512v-2.88h-1.512v-1.512h1.512v-4.662h1.692zm3.222 15.48h-1.692V25.68h1.692v15.552zm-8.46-3.708V34.14c0-1.026-.504-1.692-1.53-1.692-1.008 0-1.512.666-1.512 1.692v3.384c0 1.008.504 1.674 1.512 1.674 1.026 0 1.53-.666 1.53-1.674zm2.052-9.99v1.53h-7.128v-1.53h2.7v-2.376h1.692v2.376h2.736zm22.616 8.802v5.058h-1.692v-3.546h-11.16v-1.512H83.59zm-6.426-3.042v1.512h-6.769v-8.802h6.264v1.53h-4.572v2.034h4.393v1.512h-4.392v2.214h5.076zm6.425-7.614v9.9h-1.692v-4.32h-1.98v4.32h-1.656v-9.828h1.656v3.978h1.98v-4.05h1.693zm16.549 13.86v1.512H86.766V36.93h11.501v-1.044H86.766v-1.512H99.96v4.05H88.458v1.116h11.681zm-14.22-7.776h14.886v1.512H85.919v-1.512zm3.727-2.448h7.272c.845 0 1.53-.396 1.53-1.062 0-.684-.684-1.08-1.53-1.08h-7.273c-.846 0-1.35.396-1.35 1.08 0 .666.504 1.062 1.35 1.062zm0-3.636h7.272c1.871 0 3.221.882 3.221 2.574 0 1.692-1.35 2.556-3.221 2.556h-7.273c-1.853 0-3.041-.864-3.041-2.556 0-1.692 1.188-2.574 3.041-2.574zm32.449 4.662v1.53h-2.196v5.562h-1.692V25.68h1.692v4.662h2.196zm-1.854 9.198v1.512h-12.852v-4.896h1.692v3.384h11.16zm-5.238-13.536v8.298h-7.956v-8.298h7.956zm-6.264 6.768h4.572v-5.238h-4.572v5.238zm14.515 7.776V26.004h1.692v13.014h7.776v1.53h-9.468zm12.852-7.146v7.83h-1.692V25.68h1.692v6.21h2.196v1.512h-2.196zm16.711-7.398v9.306h-13.194v-9.306h1.692v3.06h9.81v-3.06h1.692zm-11.502 7.794h9.81v-3.222h-9.81v3.222zm12.348 5.22v1.53h-14.886v-1.53h6.606v-2.916h1.692v2.916h6.588zm2.743 1.746l-1.584-.63c2.34-4.14 2.7-9.378 2.7-14.292h1.692c0 1.764-.054 3.582-.234 5.382.738 2.88 2.07 5.832 4.014 8.172l-1.386.99c-1.314-1.602-2.358-3.636-3.114-5.688-.432 2.178-1.08 4.248-2.088 6.066zm12.456.468h-1.692V25.68h1.692v15.552zm-3.636-15.48v15.3h-1.692v-8.28h-2.79V31.26h2.79v-5.508h1.692zm15.451 8.388h-4.068c-2.88 0-4.914-1.692-4.914-4.23 0-2.538 2.034-4.23 4.914-4.23h4.068c2.862 0 4.896 1.692 4.896 4.23 0 2.538-2.034 4.23-4.896 4.23zm-4.068-1.53h4.068c1.854 0 3.114-1.098 3.114-2.7 0-1.62-1.26-2.718-3.114-2.718h-4.068c-1.854 0-3.132 1.098-3.132 2.718 0 1.602 1.278 2.7 3.132 2.7zm9.468 6.408v1.53h-14.886v-1.53h3.384v-3.87h1.692v3.87h4.734v-3.87h1.692v3.87h3.384z" fill="#333"/></svg>