<svg width="266" height="196" fill="none" xmlns="http://www.w3.org/2000/svg"><path d="M28.348 1.124V22.7H3.408V1.124h24.94zM7.642 18.93h16.472V4.894H7.642V18.93zM45.516.08v24.766h-4.234V.08h4.234zm1.102 46.342v3.77H5.032V37.026h36.25v-5.394H5.032v-3.77h40.484v12.876H9.266v5.684h37.352zm36.679-2.378v3.828H55.05V21.888h20.126V4.952H55.05V1.124h24.418v24.534H59.285v18.386h24.012zM97.159.08v50.112h-4.234V.08h4.234zm7.214 47.734v-3.828h35.844v3.828h-35.844zm40.194 2.378V.08h4.234v50.112h-4.234zm-9.57-35.96c0 2.05-.367 3.944-1.102 5.684a12.829 12.829 0 01-2.958 4.408c-1.276 1.276-2.803 2.262-4.582 2.958-1.778.696-3.712 1.044-5.8 1.044-2.126 0-4.079-.348-5.858-1.044-1.74-.696-3.248-1.682-4.524-2.958-1.276-1.237-2.281-2.707-3.016-4.408-.696-1.74-1.044-3.635-1.044-5.684 0-1.972.348-3.809 1.044-5.51.735-1.74 1.74-3.229 3.016-4.466s2.784-2.204 4.524-2.9c1.779-.735 3.732-1.102 5.858-1.102 2.088 0 4.022.367 5.8 1.102 1.779.696 3.306 1.663 4.582 2.9 1.276 1.237 2.262 2.726 2.958 4.466.735 1.701 1.102 3.538 1.102 5.51zm-4.176 0c0-2.9-.928-5.317-2.784-7.25-1.856-1.972-4.35-2.958-7.482-2.958-3.132 0-5.606.986-7.424 2.958-1.817 1.933-2.726 4.35-2.726 7.25 0 2.977.909 5.433 2.726 7.366 1.818 1.933 4.292 2.9 7.424 2.9 3.132 0 5.626-.967 7.482-2.9 1.856-1.933 2.784-4.389 2.784-7.366zM179.7.602h4.234c0 2.9-.096 5.78-.29 8.642a121.022 121.022 0 01-.87 8.41 58.175 58.175 0 002.436 7.482 70.856 70.856 0 003.538 7.308 55.172 55.172 0 004.292 6.728c1.586 2.127 3.268 4.021 5.046 5.684l-3.074 2.842c-2.938-2.9-5.587-6.283-7.946-10.15-2.32-3.905-4.234-7.869-5.742-11.89a92.806 92.806 0 01-3.538 11.832 70.449 70.449 0 01-5.22 10.904l-3.886-1.856a70.601 70.601 0 008.526-21.808C178.869 16.958 179.7 8.915 179.7.602zM209.28.08h4.234v50.112h-4.234V24.15h-16.762v-3.828h16.762V.08zm55.877 0v50.112h-4.234V24.556h-8.178v25.056h-4.176V.312h4.176v20.416h8.178V.08h4.234zm-40.368 48.314l-3.944-1.682c3.751-6.264 6.419-12.818 8.004-19.662 1.585-6.883 2.417-14.249 2.494-22.098h-8.294V1.124h21.402v3.828h-8.874c-.039 2.32-.135 4.601-.29 6.844a121.276 121.276 0 01-.638 6.554c1.121 4.563 2.707 9.164 4.756 13.804 2.088 4.601 4.582 8.739 7.482 12.412l-3.422 2.436c-2.165-2.9-4.118-6.09-5.858-9.57a85.674 85.674 0 01-4.408-10.614 81.634 81.634 0 01-3.422 11.194 65.624 65.624 0 01-4.988 10.382zM2.682 118V76.766h14.443c5.003 0 8.798.962 11.385 2.888 2.586 1.907 3.88 4.71 3.88 8.411 0 2.02-.52 3.805-1.558 5.353-1.038 1.53-2.483 2.653-4.333 3.37 2.115.529 3.776 1.596 4.984 3.2 1.228 1.605 1.841 3.569 1.841 5.891 0 3.965-1.265 6.967-3.795 9.006-2.53 2.039-6.136 3.077-10.818 3.115H2.68zm8.496-17.955v11.13h7.278c2.001 0 3.559-.472 4.673-1.416 1.133-.963 1.7-2.285 1.7-3.965 0-3.776-1.955-5.692-5.863-5.749h-7.788zm0-6.004h6.287c4.286-.075 6.429-1.784 6.429-5.126 0-1.87-.548-3.21-1.643-4.021-1.076-.831-2.785-1.247-5.126-1.247h-5.947v10.394zM66.53 118H38.267v-5.607l13.338-14.217c1.832-2.002 3.182-3.748 4.05-5.24.888-1.491 1.331-2.907 1.331-4.248 0-1.83-.462-3.266-1.387-4.304-.925-1.058-2.247-1.586-3.965-1.586-1.85 0-3.314.642-4.39 1.926-1.057 1.265-1.586 2.935-1.586 5.012h-8.213c0-2.51.595-4.805 1.785-6.882 1.208-2.076 2.907-3.7 5.097-4.87 2.19-1.19 4.673-1.785 7.449-1.785 4.247 0 7.542 1.02 9.883 3.059 2.36 2.039 3.54 4.918 3.54 8.638 0 2.039-.528 4.115-1.586 6.23-1.057 2.115-2.87 4.578-5.437 7.392l-9.374 9.883H66.53V118zm5.34 0V76.766h14.443c5.003 0 8.798.962 11.384 2.888 2.587 1.907 3.88 4.71 3.88 8.411 0 2.02-.519 3.805-1.557 5.353-1.039 1.53-2.483 2.653-4.333 3.37 2.114.529 3.776 1.596 4.984 3.2 1.227 1.605 1.841 3.569 1.841 5.891 0 3.965-1.265 6.967-3.795 9.006-2.53 2.039-6.136 3.077-10.818 3.115h-16.03zm8.495-17.955v11.13h7.279c2.001 0 3.559-.472 4.673-1.416 1.132-.963 1.699-2.285 1.699-3.965 0-3.776-1.954-5.692-5.863-5.749h-7.788zm0-6.004h6.288c4.285-.075 6.428-1.784 6.428-5.126 0-1.87-.547-3.21-1.642-4.021-1.076-.831-2.785-1.247-5.126-1.247h-5.948v10.394zm-68.663 51.561h4.234c0 5.742-.348 11.426-1.16 17.052 2.61 9.86 8.236 20.416 15.312 27.202l-3.074 2.842c-5.858-5.8-10.672-14.036-13.688-22.04-1.798 8.062-4.64 15.718-8.758 22.736l-3.886-1.856c8.12-13.63 11.02-29.348 11.02-45.936zm29.58-.522h4.234v50.112h-4.234V169.15H24.52v-3.828h16.762V145.08zm55.877 0v50.112h-4.234V145.08h4.234zm-17.69 1.044v46.748H55.05v-46.748h4.234v17.226h15.892v-17.226h4.292zm-20.184 42.92h15.892V167.12H59.285v21.924zm93.054 0v3.828h-47.966v-3.828h47.966zm-45.066-14.79l-2.61-3.19c11.484-4.118 20.3-14.036 22.33-25.984l4.176.812c-.406 2.552-1.102 5.046-2.146 7.424 5.452 7.482 13.862 13.166 23.026 15.95l-2.262 3.364c-8.642-2.726-17.052-8.584-22.678-15.37-4.466 7.83-11.832 14.036-19.836 16.994z" fill="#333"/></svg>