<svg width="316" height="19" fill="none" xmlns="http://www.w3.org/2000/svg"><path d="M6.4 2.88H2.12a.775.775 0 01-.5-.16c-.133-.107-.2-.273-.2-.5 0-.213.067-.373.2-.48a.72.72 0 01.5-.18H6.5c1.04 0 1.807.253 2.3.76.507.493.76 1.213.76 2.16v.78c0 1.307-.173 2.56-.52 3.76a13.1 13.1 0 01-1.46 3.34 13.893 13.893 0 01-2.36 2.9c-.933.867-2 1.627-3.2 2.28a.664.664 0 01-.5.08c-.173-.027-.32-.14-.44-.34-.12-.187-.16-.373-.12-.56a.668.668 0 01.34-.4 14.424 14.424 0 002.82-2.02 13.031 13.031 0 002.14-2.58 12.286 12.286 0 001.36-2.98c.32-1.067.48-2.173.48-3.32v-.88c0-.56-.133-.973-.4-1.24-.267-.28-.7-.42-1.3-.42zm8.18 15V1.8c0-.187.06-.347.18-.48.133-.147.32-.22.56-.22a.67.67 0 01.52.22c.133.133.2.293.2.48v16.08a.68.68 0 01-.2.5.704.704 0 01-.52.2c-.24 0-.427-.067-.56-.2a.72.72 0 01-.18-.5zm6.168-12.26c0-.613.113-1.187.34-1.72a4.33 4.33 0 01.94-1.42c.4-.387.873-.693 1.42-.92.546-.24 1.14-.36 1.78-.36.627 0 1.206.12 1.74.36.547.227 1.02.533 1.42.92.4.4.713.873.94 1.42a4.35 4.35 0 01.34 1.72c0 .627-.113 1.213-.34 1.76-.227.533-.54.993-.94 1.38-.4.4-.873.713-1.42.94a4.642 4.642 0 01-1.74.32c-.64 0-1.234-.107-1.78-.32a4.328 4.328 0 01-1.42-.94 4.158 4.158 0 01-.94-1.38 4.548 4.548 0 01-.34-1.76zm1.46 0c0 .88.273 1.62.82 2.22.56.587 1.293.88 2.2.88.88 0 1.6-.293 2.16-.88.56-.6.84-1.34.84-2.22 0-.867-.28-1.6-.84-2.2-.56-.613-1.28-.92-2.16-.92-.907 0-1.64.307-2.2.92-.547.6-.82 1.333-.82 2.2zm8.18-.02c0-.2.066-.36.2-.48a.72.72 0 01.5-.18h3.1V1.8c0-.187.06-.347.18-.48.133-.147.32-.22.56-.22a.67.67 0 01.52.22c.133.133.2.293.2.48v7.84a.68.68 0 01-.2.5.704.704 0 01-.52.2c-.24 0-.427-.067-.56-.2a.72.72 0 01-.18-.5V6.26h-3.1a.775.775 0 01-.5-.16c-.134-.107-.2-.273-.2-.5zm3.8 10.72v-1.9h-11v1.9c0 .24.053.407.16.5.107.107.28.16.52.16h9.64c.226 0 .393-.053.5-.16.12-.093.18-.26.18-.5zm-11-4.56v1.38h11v-1.38c0-.187.06-.347.18-.48a.694.694 0 01.54-.22c.227 0 .407.073.54.22.133.133.2.293.2.48v4.7c0 .627-.16 1.087-.48 1.38-.307.293-.8.44-1.48.44h-10.04c-.694 0-1.194-.147-1.5-.44-.307-.293-.46-.753-.46-1.38v-4.7c0-.187.06-.347.18-.48.133-.147.32-.22.56-.22.24 0 .427.073.56.22.133.133.2.293.2.48zM55.143 8.3v1.92h7.04c.2 0 .366.06.5.18.133.107.2.267.2.48 0 .227-.067.393-.2.5a.775.775 0 01-.5.16h-15.34a.775.775 0 01-.5-.16c-.134-.107-.2-.273-.2-.5 0-.213.066-.373.2-.48a.72.72 0 01.5-.18h6.84V8.3h-4.6c-.64 0-1.114-.147-1.42-.44-.294-.293-.44-.72-.44-1.28V2.22c0-.187.06-.347.18-.48a.694.694 0 01.54-.22c.226 0 .406.073.54.22.133.133.2.293.2.48v1.42h11.64V2.22c0-.187.06-.347.18-.48a.694.694 0 01.54-.22c.226 0 .406.073.54.22.133.133.2.293.2.48v4.36c0 .56-.154.987-.46 1.28-.294.293-.76.44-1.4.44h-4.78zm5.18 7.6c0-.4-.087-.687-.26-.86-.16-.173-.434-.26-.82-.26h-11.46a.775.775 0 01-.5-.16c-.134-.107-.2-.267-.2-.48 0-.213.066-.373.2-.48a.72.72 0 01.5-.18h11.6c.853 0 1.466.187 1.84.56.373.373.56.953.56 1.74v2.28a.68.68 0 01-.2.5c-.134.133-.314.2-.54.2-.227 0-.407-.067-.54-.2a.72.72 0 01-.18-.5V15.9zm0-9.44V4.94h-11.64v1.52c0 .187.04.327.12.42.08.08.213.12.4.12h10.6c.173 0 .3-.04.38-.12.093-.093.14-.233.14-.42zM79.71 17.88V1.8c0-.187.06-.347.18-.48.134-.147.32-.22.56-.22a.67.67 0 01.52.22c.134.133.2.293.2.48v16.08c0 .2-.066.367-.2.5a.704.704 0 01-.52.2c-.24 0-.426-.067-.56-.2a.72.72 0 01-.18-.5zm-4.38-.64A22.033 22.033 0 0172.75 14a24.194 24.194 0 01-1.96-3.7 23.78 23.78 0 01-1.32 3.72 21.117 21.117 0 01-1.92 3.4.965.965 0 01-.48.34c-.2.067-.4.04-.6-.08a.661.661 0 01-.34-.46.6.6 0 01.1-.5c1.48-2.093 2.514-4.273 3.1-6.54.587-2.267.9-4.7.94-7.3h-3.02a.775.775 0 01-.5-.16c-.133-.107-.2-.273-.2-.5 0-.213.067-.373.2-.48a.72.72 0 01.5-.18h8.04c.2 0 .367.06.5.18.134.107.2.267.2.48 0 .227-.066.393-.2.5a.775.775 0 01-.5.16h-3.58a39.003 39.003 0 01-.12 2.52c-.066.827-.16 1.64-.28 2.44.214.733.487 1.487.82 2.26.334.76.72 1.507 1.16 2.24.427.733.894 1.44 1.4 2.12.52.667 1.074 1.273 1.66 1.82a.8.8 0 01.2.5.567.567 0 01-.18.52.67.67 0 01-.56.18.756.756 0 01-.48-.24zm26.068.42h-15.34a.775.775 0 01-.5-.16c-.133-.107-.2-.273-.2-.5 0-.213.067-.38.2-.5.134-.107.3-.16.5-.16h6.96v-4c0-.187.06-.347.18-.48a.694.694 0 01.54-.22c.227 0 .407.073.54.22.134.133.2.293.2.48v4h6.92c.2 0 .367.053.5.16.134.12.2.287.2.5 0 .227-.066.393-.2.5a.774.774 0 01-.5.16zm-13.5-13.02v2.88c0 .64.14 1.093.42 1.36.294.267.794.4 1.5.4h10.72c.2 0 .367.06.5.18.134.107.2.267.2.48 0 .227-.066.393-.2.5a.774.774 0 01-.5.16h-10.86c-1.133 0-1.96-.24-2.48-.72-.506-.48-.76-1.2-.76-2.16V4.44c0-.96.254-1.68.76-2.16.52-.48 1.347-.72 2.48-.72h10.66c.2 0 .367.06.5.18.134.107.2.267.2.48 0 .227-.066.393-.2.5a.774.774 0 01-.5.16h-10.52c-.706 0-1.206.14-1.5.42-.28.267-.42.713-.42 1.34zm37.555 11.18c0-.427-.093-.74-.28-.94-.187-.2-.5-.3-.94-.3h-11.32a.774.774 0 01-.5-.16c-.133-.107-.2-.267-.2-.48 0-.213.067-.373.2-.48.133-.12.3-.18.5-.18h11.46c.893 0 1.54.2 1.94.6.4.4.6 1.007.6 1.82v2.36a.68.68 0 01-.2.5c-.133.133-.313.2-.54.2-.227 0-.407-.067-.54-.2a.72.72 0 01-.18-.5v-2.24zm-5.18-8.44v2.36h7.04c.2 0 .367.06.5.18.133.107.2.267.2.48 0 .227-.067.393-.2.5a.774.774 0 01-.5.16h-15.34a.774.774 0 01-.5-.16c-.133-.107-.2-.273-.2-.5 0-.213.067-.373.2-.48.133-.12.3-.18.5-.18h6.84V7.38h-4.28c-.747 0-1.3-.167-1.66-.5-.347-.347-.52-.867-.52-1.56v-1.7c0-.68.173-1.193.52-1.54.36-.347.913-.52 1.66-.52h11.72c.2 0 .367.053.5.16.133.107.2.267.2.48 0 .227-.067.393-.2.5a.774.774 0 01-.5.16h-11.56c-.293 0-.513.073-.66.22-.147.147-.22.36-.22.64v1.5c0 .28.073.493.22.64.147.147.367.22.66.22h11.66c.2 0 .367.06.5.18.133.107.2.26.2.46 0 .227-.067.393-.2.5a.774.774 0 01-.5.16h-6.08zm15.828-5.4a47.036 47.036 0 01-.12 2.56c-.067.933-.16 1.84-.28 2.72.213.827.48 1.653.8 2.48.333.827.713 1.62 1.14 2.38.413.773.86 1.507 1.34 2.2a15.72 15.72 0 001.56 1.88c.12.12.187.287.2.5a.614.614 0 01-.2.52.67.67 0 01-.56.18.679.679 0 01-.48-.22c-.88-.92-1.693-2.007-2.44-3.26a24.174 24.174 0 01-1.86-3.9c-.293 1.32-.673 2.6-1.14 3.84a25.308 25.308 0 01-1.56 3.44c-.093.16-.247.28-.46.36-.2.093-.4.087-.6-.02a.548.548 0 01-.36-.42.77.77 0 01.06-.52 24.105 24.105 0 002.64-7.04 40 40 0 00.86-7.68c0-.187.06-.347.18-.48a.693.693 0 01.54-.22c.227 0 .407.073.54.22.133.133.2.293.2.48zm2.86 6.86c0-.213.067-.373.2-.48.133-.12.3-.18.5-.18h5.18V1.8c0-.187.06-.347.18-.48.133-.147.32-.22.56-.22a.67.67 0 01.52.22c.133.133.2.293.2.48v16.08a.68.68 0 01-.2.5.704.704 0 01-.52.2c-.24 0-.427-.067-.56-.2a.72.72 0 01-.18-.5V9.5h-5.18a.774.774 0 01-.5-.16c-.133-.107-.2-.273-.2-.5zm22.188-2.76c0 .707-.127 1.36-.38 1.96a4.424 4.424 0 01-1.02 1.52c-.44.44-.967.78-1.58 1.02-.614.24-1.28.36-2 .36-.734 0-1.407-.12-2.02-.36a4.59 4.59 0 01-1.56-1.02 4.666 4.666 0 01-1.04-1.52 5.23 5.23 0 01-.36-1.96c0-.68.12-1.313.36-1.9.253-.6.6-1.113 1.04-1.54.44-.427.96-.76 1.56-1a5.238 5.238 0 012.02-.38c.72 0 1.386.127 2 .38.613.24 1.14.573 1.58 1 .44.427.78.94 1.02 1.54.253.587.38 1.22.38 1.9zm-1.44 0c0-1-.32-1.833-.96-2.5-.64-.68-1.5-1.02-2.58-1.02s-1.934.34-2.56 1.02c-.627.667-.94 1.5-.94 2.5 0 1.027.313 1.873.94 2.54.626.667 1.48 1 2.56 1s1.94-.333 2.58-1c.64-.667.96-1.513.96-2.54zm8.56 2.86c0 .227-.067.393-.2.5a.776.776 0 01-.5.16h-2.04v8.28a.68.68 0 01-.2.5c-.134.133-.314.2-.54.2-.227 0-.407-.067-.54-.2a.72.72 0 01-.18-.5V1.8c0-.187.06-.347.18-.48a.693.693 0 01.54-.22c.226 0 .406.073.54.22.133.133.2.293.2.48v6.48h2.04c.2 0 .366.06.5.18.133.107.2.267.2.48zm-6.2 8.72h-10.88a.774.774 0 01-.5-.16c-.134-.107-.2-.273-.2-.5 0-.213.066-.38.2-.5.133-.107.3-.16.5-.16h4.2v-3.86c0-.187.06-.347.18-.48a.693.693 0 01.54-.22c.226 0 .406.073.54.22.133.133.2.293.2.48v3.86h5.22c.2 0 .366.053.5.16.133.12.2.287.2.5 0 .227-.067.393-.2.5a.776.776 0 01-.5.16zm27.695-8.28h-10c-.76 0-1.334-.167-1.72-.5-.374-.347-.56-.86-.56-1.54V3.6c0-.667.186-1.173.56-1.52.386-.347.96-.52 1.72-.52h10c.76 0 1.326.173 1.7.52.386.347.58.853.58 1.52v3.74c0 .68-.194 1.193-.58 1.54-.374.333-.94.5-1.7.5zm-.2-6.5h-9.6c-.36 0-.62.08-.78.24-.16.16-.24.4-.24.72V7.1c0 .32.08.56.24.72.16.16.42.24.78.24h9.6c.36 0 .62-.08.78-.24.16-.16.24-.4.24-.72V3.84c0-.32-.08-.56-.24-.72-.16-.16-.42-.24-.78-.24zm-5.52 15.18v-4.3h-6.94a.774.774 0 01-.5-.16c-.134-.107-.2-.273-.2-.5 0-.213.066-.373.2-.48.133-.12.3-.18.5-.18h15.34c.2 0 .366.06.5.18.133.107.2.267.2.48 0 .227-.067.393-.2.5a.776.776 0 01-.5.16h-6.96v4.3a.68.68 0 01-.2.5c-.134.133-.314.2-.54.2a.702.702 0 01-.52-.2.72.72 0 01-.18-.5zm25.927-.18V1.8c0-.187.06-.347.18-.48a.696.696 0 01.54-.22c.227 0 .407.073.54.22.134.133.2.293.2.48v16.08c0 .2-.066.367-.2.5-.133.133-.313.2-.54.2-.226 0-.406-.067-.54-.2a.72.72 0 01-.18-.5zm-7-9.26c0-.213.067-.373.2-.48a.72.72 0 01.5-.18h2.46V1.88c0-.187.06-.347.18-.48.134-.147.32-.22.56-.22.214 0 .387.073.52.22.134.133.2.293.2.48v15.8c0 .2-.066.367-.2.5a.702.702 0 01-.52.2c-.24 0-.426-.067-.56-.2a.72.72 0 01-.18-.5v-8.4h-2.46a.776.776 0 01-.5-.16c-.133-.107-.2-.273-.2-.5zm.72 8.4a23.203 23.203 0 01-1.86-3.16 31.834 31.834 0 01-1.42-3.44c-.28 1.24-.64 2.447-1.08 3.62a24.502 24.502 0 01-1.58 3.4.827.827 0 01-.44.38.68.68 0 01-.6-.04.602.602 0 01-.38-.42.706.706 0 01.08-.52 23.235 23.235 0 002.56-6.58c.507-2.307.774-4.767.8-7.38h-2.26a.776.776 0 01-.5-.16c-.133-.107-.2-.273-.2-.5 0-.213.067-.373.2-.48a.72.72 0 01.5-.18h6.18c.2 0 .367.06.5.18.134.107.2.267.2.48 0 .227-.066.393-.2.5a.774.774 0 01-.5.16h-2.46a44.19 44.19 0 01-.1 2.36c-.053.76-.126 1.513-.22 2.26.36 1.493.874 3 1.54 4.52a21.566 21.566 0 002.36 4.1.75.75 0 01.12.5.643.643 0 01-.26.5.71.71 0 01-.54.14c-.2-.013-.346-.093-.44-.24zm17.288-4.54c-.64 0-1.226-.087-1.76-.26a4.007 4.007 0 01-1.36-.78 3.343 3.343 0 01-.9-1.16c-.2-.453-.3-.953-.3-1.5 0-.533.1-1.027.3-1.48.214-.467.514-.867.9-1.2a4.006 4.006 0 011.36-.78 5.3 5.3 0 011.76-.28 5.23 5.23 0 011.74.28c.534.187.994.447 1.38.78.374.333.667.733.88 1.2.227.453.34.947.34 1.48a3.3 3.3 0 01-.34 1.5c-.213.453-.506.84-.88 1.16a4.213 4.213 0 01-1.38.78 5.598 5.598 0 01-1.74.26zm0-1.24c.894 0 1.594-.233 2.1-.7.507-.467.76-1.053.76-1.76 0-.707-.253-1.3-.76-1.78-.506-.493-1.206-.74-2.1-.74-.893 0-1.6.247-2.12.74a2.356 2.356 0 00-.76 1.78c0 .707.254 1.293.76 1.76.52.467 1.227.7 2.12.7zm-4.44-7.38a.776.776 0 01-.5-.16c-.133-.107-.2-.267-.2-.48 0-.213.067-.373.2-.48a.72.72 0 01.5-.18h3.7V1.22c0-.187.06-.347.18-.48a.696.696 0 01.54-.22c.227 0 .407.073.54.22.134.133.2.293.2.48v1.34h3.88c.2 0 .367.06.5.18.134.107.2.267.2.48 0 .213-.066.373-.2.48a.774.774 0 01-.5.16h-9.04zm16.86 3.54c0 .227-.066.393-.2.5a.774.774 0 01-.5.16h-2.04v5.62c0 .2-.066.367-.2.5-.133.133-.313.2-.54.2-.226 0-.406-.067-.54-.2a.72.72 0 01-.18-.5V1.8c0-.187.06-.347.18-.48a.696.696 0 01.54-.22c.227 0 .407.073.54.22.134.133.2.293.2.48v4.96h2.04c.2 0 .367.06.5.18.134.107.2.26.2.46zm-15.04 8.38c0 .44.087.747.26.92.187.173.52.26 1 .26h10.86c.2 0 .367.053.5.16.134.12.2.287.2.5 0 .227-.066.393-.2.5a.774.774 0 01-.5.16h-11.04c-.906 0-1.56-.2-1.96-.6-.4-.387-.6-.987-.6-1.8v-1.96c0-.187.06-.347.18-.48.134-.147.32-.22.56-.22.214 0 .387.073.52.22.147.133.22.293.22.48v1.86zm26.115-.12c0 .493.093.833.28 1.02.2.187.553.28 1.06.28h10.96c.2 0 .367.053.5.16.133.12.2.287.2.5 0 .227-.067.393-.2.5a.774.774 0 01-.5.16h-11.14c-.973 0-1.66-.2-2.06-.6-.387-.4-.58-1.04-.58-1.92v-2.22c0-.187.06-.347.18-.48.133-.147.32-.22.56-.22a.67.67 0 01.52.22c.147.133.22.293.22.48v2.12zm7.34-4.32c-.827-.453-1.66-1.047-2.5-1.78a16.567 16.567 0 01-2.14-2.22c-.48.96-1.093 1.847-1.84 2.66-.733.813-1.52 1.46-2.36 1.94a.884.884 0 01-.52.12c-.187-.013-.34-.113-.46-.3a.677.677 0 01-.14-.52.553.553 0 01.28-.42 9.755 9.755 0 003.08-2.94 8.5 8.5 0 00.96-1.86c.253-.653.413-1.32.48-2h-3.66a.774.774 0 01-.5-.16c-.133-.107-.2-.273-.2-.5 0-.213.067-.373.2-.48.133-.12.3-.18.5-.18h3.6V1.22c0-.187.06-.347.18-.48a.693.693 0 01.54-.22c.227 0 .407.073.54.22.133.133.2.293.2.48V2.7h3.64c.2 0 .367.06.5.18.133.107.2.267.2.48 0 .227-.067.393-.2.5a.774.774 0 01-.5.16h-3.58c-.04.32-.093.633-.16.94-.053.293-.12.587-.2.88.533.84 1.233 1.647 2.1 2.42a13.652 13.652 0 002.7 1.9c.147.08.247.207.3.38.067.173.047.353-.06.54a.804.804 0 01-.46.36.675.675 0 01-.52-.1zm3.68 2.14V1.8c0-.187.06-.347.18-.48.133-.147.32-.22.56-.22a.67.67 0 01.52.22c.133.133.2.293.2.48v11.68a.68.68 0 01-.2.5.704.704 0 01-.52.2c-.24 0-.427-.067-.56-.2a.72.72 0 01-.18-.5zm13.588-2.8v3.64c0 1.12-.32 1.987-.96 2.6-.627.627-1.48.94-2.56.94s-1.94-.313-2.58-.94c-.627-.613-.94-1.48-.94-2.6v-3.64c0-1.12.313-1.993.94-2.62.64-.627 1.5-.94 2.58-.94s1.933.313 2.56.94c.64.627.96 1.5.96 2.62zm-1.44 3.64v-3.64c0-.693-.187-1.24-.56-1.64-.36-.4-.867-.6-1.52-.6s-1.16.2-1.52.6c-.36.4-.54.947-.54 1.64v3.64c0 .693.18 1.24.54 1.64.36.4.867.6 1.52.6s1.16-.2 1.52-.6c.373-.4.56-.947.56-1.64zm3.2 3.36V1.88c0-.187.06-.347.18-.48a.67.67 0 01.52-.22c.227 0 .407.073.54.22.133.133.2.293.2.48v6.44h2.82V1.8c0-.187.06-.347.18-.48a.693.693 0 01.54-.22c.227 0 .407.073.54.22.133.133.2.293.2.48v16.08a.68.68 0 01-.2.5c-.133.133-.313.2-.54.2-.227 0-.407-.067-.54-.2a.72.72 0 01-.18-.5V9.64h-2.82v8.04a.68.68 0 01-.2.5c-.133.133-.313.2-.54.2a.704.704 0 01-.52-.2.72.72 0 01-.18-.5zm-8.58-13a.774.774 0 01-.5-.16c-.133-.107-.2-.273-.2-.5 0-.213.067-.373.2-.48.133-.12.3-.18.5-.18h2.58V1.22c0-.187.06-.347.18-.48a.693.693 0 01.54-.22c.227 0 .407.073.54.22.133.133.2.293.2.48v2.14h2.64c.2 0 .367.06.5.18.133.107.2.267.2.48 0 .227-.067.393-.2.5a.774.774 0 01-.5.16h-6.68zm32.448 13.2V1.8c0-.187.06-.347.18-.48.133-.147.32-.22.56-.22a.67.67 0 01.52.22c.133.133.2.293.2.48v16.08a.68.68 0 01-.2.5.705.705 0 01-.52.2c-.24 0-.427-.067-.56-.2a.72.72 0 01-.18-.5zm-4.38-.64a22.033 22.033 0 01-2.58-3.24 24.167 24.167 0 01-1.96-3.7 23.902 23.902 0 01-1.32 3.72 21.163 21.163 0 01-1.92 3.4.965.965 0 01-.48.34c-.2.067-.4.04-.6-.08a.66.66 0 01-.34-.46.599.599 0 01.1-.5c1.48-2.093 2.513-4.273 3.1-6.54.586-2.267.9-4.7.94-7.3h-3.02a.774.774 0 01-.5-.16c-.134-.107-.2-.273-.2-.5 0-.213.066-.373.2-.48.133-.12.3-.18.5-.18h8.04c.2 0 .366.06.5.18.133.107.2.267.2.48 0 .227-.067.393-.2.5a.776.776 0 01-.5.16h-3.58a39.88 39.88 0 01-.12 2.52 36.11 36.11 0 01-.28 2.44c.213.733.486 1.487.82 2.26.333.76.72 1.507 1.16 2.24.426.733.893 1.44 1.4 2.12.52.667 1.073 1.273 1.66 1.82.12.133.186.3.2.5a.57.57 0 01-.18.52.67.67 0 01-.56.18.756.756 0 01-.48-.24zm20.067.44h-6.3c-1 0-1.726-.22-2.18-.66-.44-.427-.66-1.113-.66-2.06v-3.52c0-.933.22-1.62.66-2.06.454-.44 1.18-.66 2.18-.66h2.62c.547 0 .934-.113 1.16-.34.227-.24.34-.64.34-1.2V4.42c0-.56-.113-.953-.34-1.18-.226-.24-.613-.36-1.16-.36h-4.76a.776.776 0 01-.5-.16c-.133-.107-.2-.273-.2-.5 0-.213.067-.373.2-.48a.72.72 0 01.5-.18h4.88c.987 0 1.707.22 2.16.66.454.44.68 1.127.68 2.06V7.3c0 .947-.226 1.64-.68 2.08-.453.427-1.173.64-2.16.64h-2.62c-.56 0-.953.12-1.18.36-.213.227-.32.62-.32 1.18v3.26c0 .56.107.953.32 1.18.227.24.62.36 1.18.36h6.18c.2 0 .367.053.5.16.134.12.2.287.2.5 0 .227-.066.393-.2.5a.774.774 0 01-.5.16zm3.92.2V1.8c0-.187.06-.347.18-.48.134-.147.32-.22.56-.22.214 0 .387.073.52.22.134.133.2.293.2.48v16.08c0 .2-.066.367-.2.5a.702.702 0 01-.52.2c-.24 0-.426-.067-.56-.2a.72.72 0 01-.18-.5z" fill="#333"/></svg>