<svg width="281" height="27" fill="none" xmlns="http://www.w3.org/2000/svg"><path d="M13.444 1.34V12.5H.544V1.34h12.9zm-10.71 9.21h8.52V3.29h-8.52v7.26zM22.324.8v12.81h-2.19V.8h2.19zm.57 23.97v1.95H1.384v-6.81h18.75v-2.79H1.384v-1.95h20.94v6.66H3.574v2.94h19.32zm19.271-1.23v1.98h-14.61V12.08h10.41V3.32h-10.41V1.34h12.63v12.69h-10.44v9.51h12.42zM49.335.8v25.92h-2.19V.8h2.19zm4.032 24.69v-1.98h18.54v1.98h-18.54zm20.79 1.23V.8h2.19v25.92h-2.19zm-4.95-18.6c0 1.06-.19 2.04-.57 2.94-.36.88-.87 1.64-1.53 2.28a6.82 6.82 0 01-2.37 1.53c-.92.36-1.92.54-3 .54-1.1 0-2.11-.18-3.03-.54-.9-.36-1.68-.87-2.34-1.53-.66-.64-1.18-1.4-1.56-2.28-.36-.9-.54-1.88-.54-2.94 0-1.02.18-1.97.54-2.85.38-.9.9-1.67 1.56-2.31.66-.64 1.44-1.14 2.34-1.5.92-.38 1.93-.57 3.03-.57 1.08 0 2.08.19 3 .57.92.36 1.71.86 2.37 1.5.66.64 1.17 1.41 1.53 2.31.38.88.57 1.83.57 2.85zm-2.16 0c0-1.5-.48-2.75-1.44-3.75-.96-1.02-2.25-1.53-3.87-1.53s-2.9.51-3.84 1.53c-.94 1-1.41 2.25-1.41 3.75 0 1.54.47 2.81 1.41 3.81s2.22 1.5 3.84 1.5c1.62 0 2.91-.5 3.87-1.5s1.44-2.27 1.44-3.81zM92.93 1.07h2.19c0 1.5-.05 2.99-.15 4.47-.1 1.46-.25 2.91-.45 4.35.32 1.28.74 2.57 1.26 3.87.54 1.3 1.15 2.56 1.83 3.78.66 1.22 1.4 2.38 2.22 3.48.82 1.1 1.69 2.08 2.61 2.94l-1.59 1.47c-1.52-1.5-2.89-3.25-4.11-5.25-1.2-2.02-2.19-4.07-2.97-6.15-.48 2.1-1.09 4.14-1.83 6.12-.74 1.96-1.64 3.84-2.7 5.64l-2.01-.96c2.1-3.52 3.57-7.28 4.41-11.28.86-4.02 1.29-8.18 1.29-12.48zm15.3-.27h2.19v25.92h-2.19V13.25h-8.67v-1.98h8.67V.8zm29.202 0v25.92h-2.19V13.46h-4.23v12.96h-2.16V.92h2.16v10.56h4.23V.8h2.19zm-20.88 24.99l-2.04-.87c1.94-3.24 3.32-6.63 4.14-10.17.82-3.56 1.25-7.37 1.29-11.43h-4.29V1.34h11.07v1.98h-4.59a62.73 62.73 0 01-.48 6.93c.58 2.36 1.4 4.74 2.46 7.14 1.08 2.38 2.37 4.52 3.87 6.42l-1.77 1.26c-1.12-1.5-2.13-3.15-3.03-4.95-.9-1.82-1.66-3.65-2.28-5.49-.46 2-1.05 3.93-1.77 5.79-.7 1.86-1.56 3.65-2.58 5.37zm32.302-1.2V1.79h6.75c2.16 0 3.8.55 4.92 1.65 1.14 1.1 1.71 2.52 1.71 4.26 0 1.36-.3 2.47-.9 3.33-.6.86-1.3 1.48-2.1 1.86 1.14.46 2.02 1.15 2.64 2.07.62.92.93 2.1.93 3.54 0 1.84-.61 3.32-1.83 4.44-1.2 1.1-2.85 1.65-4.95 1.65h-7.17zm3.96-3.63h2.52c1.12 0 1.98-.26 2.58-.78.6-.54.9-1.29.9-2.25 0-.98-.3-1.75-.9-2.31-.6-.58-1.46-.87-2.58-.87h-2.52v6.21zm2.4-15.51h-2.4v5.64h2.31c1 0 1.77-.27 2.31-.81s.81-1.25.81-2.13c0-.86-.27-1.52-.81-1.98-.52-.48-1.26-.72-2.22-.72zm9.486 19.14v-5.37c0-1.22.18-2.21.54-2.97.38-.76 1.02-1.46 1.92-2.1l4.77-3.42c.48-.36.84-.78 1.08-1.26.26-.48.39-1.02.39-1.62 0-.88-.2-1.55-.6-2.01-.38-.46-.97-.69-1.77-.69-.82 0-1.42.24-1.8.72-.38.48-.57 1.18-.57 2.1h-3.96c0-2.26.57-3.9 1.71-4.92 1.16-1.04 2.7-1.56 4.62-1.56 1.9 0 3.43.51 4.59 1.53 1.18 1.02 1.77 2.63 1.77 4.83 0 1.38-.25 2.56-.75 3.54-.48.96-1.2 1.77-2.16 2.43l-4.56 3.15c-.44.3-.77.64-.99 1.02-.2.38-.3.85-.3 1.41v1.56h8.76v3.63H164.7zm15.356 0V1.79h6.75c2.16 0 3.8.55 4.92 1.65 1.14 1.1 1.71 2.52 1.71 4.26 0 1.36-.3 2.47-.9 3.33-.6.86-1.3 1.48-2.1 1.86 1.14.46 2.02 1.15 2.64 2.07.62.92.93 2.1.93 3.54 0 1.84-.61 3.32-1.83 4.44-1.2 1.1-2.85 1.65-4.95 1.65h-7.17zm3.96-3.63h2.52c1.12 0 1.98-.26 2.58-.78.6-.54.9-1.29.9-2.25 0-.98-.3-1.75-.9-2.31-.6-.58-1.46-.87-2.58-.87h-2.52v6.21zm2.4-15.51h-2.4v5.64h2.31c1 0 1.77-.27 2.31-.81s.81-1.25.81-2.13c0-.86-.27-1.52-.81-1.98-.52-.48-1.26-.72-2.22-.72zm33.286 16.56v3.57h-16.2v-3.57h2.16V7.13h3.81v14.88h2.1l1.8-14.88h3.81l-1.8 14.88h4.32zm5.94-7.65v12.36h-3.99V.8h3.99v9.75h3.36v3.81h-3.36zm-6.78-13.14v3.63h-15.09V1.22h15.09zm16.182 3.48v3.24h18.3v3.42h-18.3v3.45h18.57v3.48h-22.56V1.22h22.29V4.7h-18.3zm19.56 17.4v3.63h-24.81V22.1h24.81zm3.192 3.48V1.22h3.99v20.73h11.67v3.63h-15.66zM280.205.8v25.92h-3.96v-13.2h-8.46V9.71h8.46V.8h3.96z" fill="#333"/></svg>