<?xml version="1.0" encoding="utf-8"?>
<!-- Generator: Adobe Illustrator 27.0.0, SVG Export Plug-In . SVG Version: 6.00 Build 0)  -->
<svg version="1.1" id="Layer_1" xmlns="http://www.w3.org/2000/svg" xmlns:xlink="http://www.w3.org/1999/xlink" x="0px" y="0px"
	 viewBox="0 0 1162.28 841.89" style="enable-background:new 0 0 1162.28 841.89;" xml:space="preserve">
<style type="text/css">
	.st0{fill:#5C9BD3;}
	.st1{fill:#DA9C58;}
	.st2{fill:#1B4A65;}
	.st3{fill:#5B9BD1;}
</style>
<path class="st0" d="M760.03,98.35c-47.91-41.91-111.44-65-178.89-65s-130.98,23.08-178.89,65
	c-48.67,42.58-75.47,99.41-75.47,160.03v486.29H835.5V258.38C835.5,197.76,808.7,140.93,760.03,98.35z"/>
<rect x="199.09" y="742.43" class="st1" width="764.09" height="64.77"/>
<g>
	<g>
		<rect x="885.18" y="328.29" class="st2" width="181.98" height="166.8"/>
		<rect x="885.18" y="533.49" class="st2" width="181.98" height="168.94"/>
		<path class="st2" d="M885.18,256.14v33.75h181.98V73.22C964.27,86.74,885.18,163.61,885.18,256.14z"/>
	</g>
	<path class="st3" d="M920.66,96.11c-48.67,42.58-75.48,99.41-75.48,160.03v486.29h253.99v-20v-11.39v-8.61V533.49v-38.4v-166.8
		v-38.4V71.11V62.5V51.11v-20C1031.86,31.2,968.48,54.27,920.66,96.11z M1067.16,702.43H885.18V533.49h181.98V702.43z
		 M1067.16,495.09H885.18v-166.8h181.98V495.09z M1067.16,289.89H885.18v-33.75c0-92.52,79.09-169.4,181.98-182.92V289.89z"/>
</g>
<g>
	<g>
		<rect x="94.8" y="328.29" class="st2" width="181.98" height="166.8"/>
		<rect x="94.8" y="533.49" class="st2" width="181.98" height="168.94"/>
		<path class="st2" d="M276.77,256.14v33.75H94.8V73.22C197.69,86.74,276.77,163.61,276.77,256.14z"/>
	</g>
	<path class="st3" d="M62.79,31.11v20V62.5v8.62v218.77v38.4v166.8v38.4v168.94v8.61v11.39v20h253.99V256.14
		c0-60.62-26.8-117.45-75.48-160.03C193.48,54.27,130.09,31.2,62.79,31.11z M94.8,533.49h181.98v168.94H94.8V533.49z M94.8,328.29
		h181.98v166.8H94.8V328.29z M94.8,73.22c102.89,13.52,181.98,90.39,181.98,182.92v33.75H94.8V73.22z"/>
</g>
</svg>
