<?xml version="1.0" encoding="utf-8"?>
<!-- Generator: Adobe Illustrator 27.9.0, SVG Export Plug-In . SVG Version: 6.00 Build 0)  -->
<svg version="1.1" id="Layer_1" xmlns="http://www.w3.org/2000/svg" xmlns:xlink="http://www.w3.org/1999/xlink" x="0px" y="0px"
	 viewBox="0 0 871.3 784.2" style="enable-background:new 0 0 871.3 784.2;" xml:space="preserve">
<style type="text/css">
	.st0{fill:#2D2D2D;}
</style>
<g>
	<path class="st0" d="M-2191.3,237.1c-29.2,0-58.4,0-87.6,0c-11.8,0-19.3-6.1-19.9-16c-0.7-10.4,6.8-19.5,17.6-21.2
		c1.6-0.3,3.3-0.2,4.9-0.2c57.3,0,114.6-0.1,171.9,0.1c28,0.1,52.5,19.3,59,45.6c6.8,27.6-5.1,56.2-30.1,68.6
		c-9,4.4-19.7,7.3-29.7,7.5c-50.5,0.7-101,0.5-151.4,0.3c-28.2-0.1-47.8-24.7-40.8-50.4c4.5-16.6,18.6-27.5,36.2-27.6
		c52.7-0.1,105.3-0.1,158,0c11.8,0,18.9,6.4,19.1,16.7c0.2,10.6-7.1,17.5-19.1,17.6c-47.7,0.1-145.8-0.4-148.2-0.4
		c-2.2,0-3.3,1.7-3.4,3.4c-0.1,1.5,1.6,3.3,3.4,3.3c50.5,0.2,98.7,0.3,149.2,0.1c14.7,0,24.8-10.2,24.7-23.8
		c-0.1-13.5-10.5-23.2-25.2-23.3C-2132.4,237-2161.9,237.1-2191.3,237.1z"/>
	<path class="st0" d="M-2191.3,366.9c-29.2,0-58.4,0-87.6,0c-11.8,0-19.3-6.1-19.9-16c-0.7-10.4,6.8-19.5,17.6-21.2
		c1.6-0.3,3.3-0.2,4.9-0.2c57.3,0,114.6-0.1,171.9,0.1c28,0.1,52.5,19.3,59,45.6c6.8,27.6-5.1,56.2-30.1,68.6
		c-9,4.4-19.7,7.3-29.7,7.5c-50.5,0.7-101,0.5-151.4,0.3c-28.2-0.1-47.8-24.7-40.8-50.4c4.5-16.6,18.6-27.5,36.2-27.6
		c52.7-0.1,105.3-0.1,158,0c11.8,0,18.9,6.4,19.1,16.7c0.2,10.6-7.1,17.5-19.1,17.6c-47.7,0.1-145.8-0.4-148.2-0.4
		c-2.2,0-3.3,1.7-3.4,3.4c-0.1,1.5,1.6,3.3,3.4,3.3c50.5,0.2,98.7,0.3,149.2,0.1c14.7,0,24.8-10.2,24.7-23.8
		c-0.1-13.5-10.5-23.2-25.2-23.3C-2132.4,366.9-2161.9,366.9-2191.3,366.9z"/>
</g>
<g>
	<g>
		<path class="st0" d="M280,553.7c2-6.8,6.6-10.3,10.6-10.3c3.2,0,5.8,1.3,6.5,5.3c-0.3,3-1.6,5.4-5,5.4c-2.5,0-4.2-1.6-6-4
			l-0.6-0.8c-2.7,2.5-4.3,5.4-5.6,10.3v5.6c0,3.7,0.1,9.3,0.1,13.3l6.2,0.6v2.1h-21.8v-2.1l4.6-0.5c0.1-3.9,0.1-9.7,0.1-13.4v-5.6
			c0-4.4-0.1-6.6-0.2-9.8l-5-0.5v-1.6l14.6-4.2l0.9,0.7L280,553.7z"/>
		<path class="st0" d="M332.4,573.2c-2.8,5.8-8.1,9.1-15,9.1c-11.1,0-19.3-7-19.3-19.6s9.6-19.3,19.2-19.3
			c10.1,0,15.5,6.8,15.5,15.3c0,1.7-0.1,2.8-0.4,4.1h-22.8c0.3,10.5,5.4,14.8,11.7,14.8c4.7,0,7.6-2,9.8-5.1L332.4,573.2z
			 M318.7,560.3c3.2,0,4-1.5,4-5.7c0-5.8-2.5-8.9-6.1-8.9c-3.7,0-6.7,4.2-7,14.6H318.7z"/>
		<path class="st0" d="M361.1,545.8c-0.7-0.1-1.3-0.1-1.9-0.1c-6,0-10.3,5.8-10.3,16.1c0,10,4.9,15.7,12.1,15.7
			c3.9,0,6.8-1.7,9.2-4.8l1.3,0.9c-3.1,5.6-8,8.7-15.3,8.7c-10.2,0-18.7-6.9-18.7-19.4s9.1-19.5,20.3-19.5c7.6,0,12.9,4.6,13.8,10.7
			c-0.7,2.4-2.1,3.6-4.4,3.6c-2.8,0-5.2-1.6-5.4-6.6L361.1,545.8z"/>
		<path class="st0" d="M375.8,562.6c0-11.9,8.5-19.3,19-19.3c10.6,0,19.1,7.2,19.1,19.3c0,12-7.6,19.7-19.1,19.7
			C383.4,582.3,375.8,574.4,375.8,562.6z M402.3,562.7c0-11.7-2.6-17-7.4-17s-7.5,5.3-7.5,17s2.7,17.2,7.5,17.2
			S402.3,574.4,402.3,562.7z"/>
		<path class="st0" d="M483.2,579v2.1h-19V579l4-0.4c0.1-3.9,0.1-9.6,0.1-13.5V556c0-5.9-1.5-7.6-4.7-7.6c-2.5,0-5,1.4-7.5,4
			c0.2,1.2,0.3,2.5,0.3,3.9v8.9c0,4,0.1,9.7,0.2,13.6l3.8,0.3v2.1h-19v-2.1l4.3-0.4c0.1-3.9,0.1-9.6,0.1-13.5v-9.1
			c0-5.5-1.4-7.6-4.6-7.6c-2.4,0-5,1.5-7.4,3.9v12.8c0,3.8,0.1,9.6,0.1,13.6l3.8,0.3v2.1h-19.4v-2.1l4.5-0.4c0.1-4,0.1-9.7,0.1-13.5
			v-5.6c0-4.4-0.1-6.6-0.2-9.9l-5-0.5v-1.5l14.6-4.2l0.9,0.7l0.5,6c3.9-4.6,7.5-6.7,12.1-6.7c5,0,8.5,2.3,9.9,7
			c4.4-5.3,8.1-7,12.4-7c7.5,0,10.9,4.2,10.9,13.3v8.5c0,4,0.1,9.7,0.1,13.5L483.2,579z"/>
		<path class="st0" d="M521.6,573.2c-2.8,5.8-8.1,9.1-15,9.1c-11.1,0-19.3-7-19.3-19.6s9.6-19.3,19.2-19.3
			c10.1,0,15.5,6.8,15.5,15.3c0,1.7-0.1,2.8-0.4,4.1h-22.8c0.3,10.5,5.4,14.8,11.7,14.8c4.7,0,7.6-2,9.8-5.1L521.6,573.2z
			 M507.9,560.3c3.2,0,4-1.5,4-5.7c0-5.8-2.5-8.9-6.1-8.9c-3.7,0-6.7,4.2-7,14.6H507.9z"/>
		<path class="st0" d="M569.3,579v2.1h-19.5V579l4.2-0.4c0.1-3.9,0.1-9.6,0.1-13.5v-9.7c0-5.2-1.5-7.1-4.6-7.1c-2,0-4.8,1.3-7.6,3.8
			V565c0,3.8,0.1,9.6,0.1,13.6l3.8,0.3v2.1h-19.4v-2.1l4.5-0.4c0.1-4,0.1-9.7,0.1-13.5v-5.6c0-4.4-0.1-6.6-0.2-9.8l-5-0.5v-1.6
			l14.6-4.2l0.9,0.7l0.4,5.9c4.4-5.1,8.1-6.6,12.5-6.6c6.4,0,10.7,4.2,10.7,12.9v8.9c0,4,0.1,9.7,0.2,13.6L569.3,579z"/>
		<path class="st0" d="M614.4,579v2.1l-14.4,0.8l-0.5-4.2c-2.8,2.8-6.3,4.5-10.4,4.5c-8.8,0-15.7-7-15.7-19.2
			c0-12.6,7.4-19.7,16.6-19.7c3.9,0,7,1.5,9.6,4.6v-17l-5.5-0.5v-1.7l15.2-2.9l0.9,0.6l-0.3,10.7v41.7L614.4,579z M599.3,549.7
			c-1.6-1.3-3.3-1.7-5-1.7c-5.1,0-9.3,3.4-9.3,14.7c0,10.9,3.9,14.8,9.1,14.8c1.9,0,3.6-0.5,5.2-1.7V549.7z"/>
	</g>
</g>
<g>
	<g>
		<path class="st0" d="M1373.6,533.1c-0.7-0.1-1.3-0.1-1.9-0.1c-6,0-10.3,5.8-10.3,16.1c0,10,4.9,15.7,12.1,15.7
			c3.9,0,6.8-1.7,9.2-4.8l1.3,0.9c-3.1,5.6-8,8.7-15.3,8.7c-10.2,0-18.7-6.9-18.7-19.4s9.1-19.5,20.3-19.5c7.6,0,12.9,4.6,13.8,10.7
			c-0.7,2.4-2.1,3.6-4.4,3.6c-2.8,0-5.2-1.6-5.4-6.6L1373.6,533.1z"/>
		<path class="st0" d="M1426.2,564.3c-1.7,3.7-4.2,5.2-8.5,5.2c-4.4,0-6.9-2.2-7.9-5.8c-3.4,3.8-6,5.8-11.3,5.8
			c-5.8,0-9.8-3.5-9.8-9.1c0-6.1,3.5-9.4,14.3-12.5c1.9-0.5,4.2-1.1,6.6-1.7v-4.1c0-7-1.6-9.1-6.7-9.1c-0.9,0-1.8,0.1-2.8,0.3
			l-0.5,4.8c-0.2,4.6-2.5,6.4-5,6.4c-2.4,0-4.1-1.2-4.6-3.4c0.5-6.3,6.4-10.3,16.8-10.3c9.5,0,13.3,4.1,13.3,13.8v18
			c0,2.5,0.8,3.4,2.1,3.4c1,0,1.7-0.5,3-2.5L1426.2,564.3z M1396.2,534.2l-1.1,0.4L1396.2,534.2z M1409.5,548
			c-1.5,0.4-2.9,0.8-3.7,1.1c-4.7,1.9-7.2,5.1-7.2,10c0,4,1.9,5.9,5,5.9c1.8,0,3.4-0.9,5.8-3.1L1409.5,548L1409.5,548z"/>
		<path class="st0" d="M1453.5,564c-2,3.6-5.4,5.6-10.5,5.6c-6.8,0-10.5-3.1-10.5-10.5c0-2.5,0.1-4.5,0.1-7.3v-17.2h-5.4v-2.1l6-0.7
			l3.5-10.7h6.9l-0.1,10.8h8.3v2.8h-8.3v25.4c0,3.6,1.7,5.2,4.4,5.2c1.7,0,2.8-0.7,4.6-2.1L1453.5,564z"/>
		<path class="st0" d="M1493.5,564.3c-1.7,3.7-4.2,5.2-8.5,5.2c-4.4,0-6.9-2.2-7.9-5.8c-3.4,3.8-6,5.8-11.3,5.8
			c-5.8,0-9.8-3.5-9.8-9.1c0-6.1,3.5-9.4,14.3-12.5c1.9-0.5,4.2-1.1,6.6-1.7v-4.1c0-7-1.6-9.1-6.7-9.1c-0.9,0-1.8,0.1-2.8,0.3
			l-0.5,4.8c-0.2,4.6-2.5,6.4-5,6.4c-2.4,0-4.1-1.2-4.6-3.4c0.5-6.3,6.4-10.3,16.8-10.3c9.5,0,13.3,4.1,13.3,13.8v18
			c0,2.5,0.8,3.4,2.1,3.4c1,0,1.7-0.5,3-2.5L1493.5,564.3z M1463.5,534.2l-1.1,0.4L1463.5,534.2z M1476.8,548
			c-1.5,0.4-2.9,0.8-3.7,1.1c-4.7,1.9-7.2,5.1-7.2,10c0,4,1.9,5.9,5,5.9c1.8,0,3.4-0.9,5.8-3.1L1476.8,548L1476.8,548z"/>
		<path class="st0" d="M1516,566.3v2.1h-20.3v-2.1l4.6-0.4c0.1-4.4,0.1-9.2,0.1-13.5v-34.3l-4.9-0.5v-1.7l15-2.9l0.9,0.6l-0.3,10.8
			v28c0,4.4,0.1,9.1,0.2,13.5L1516,566.3z"/>
		<path class="st0" d="M1520.4,549.9c0-11.9,8.5-19.3,19-19.3c10.6,0,19.1,7.2,19.1,19.3c0,12-7.6,19.7-19.1,19.7
			C1527.9,569.6,1520.4,561.7,1520.4,549.9z M1546.8,550c0-11.7-2.6-17-7.4-17s-7.5,5.3-7.5,17s2.7,17.2,7.5,17.2
			S1546.8,561.7,1546.8,550z"/>
		<path class="st0" d="M1600.8,536.6l-8.1-0.9c1.5,2,2.3,4.5,2.3,7.3c0,7-5,12.6-15.5,12.6c-3.2,0-6-0.5-8.2-1.5
			c-0.7,1.2-1.1,2.3-1.1,3.8c0,2.5,1.5,3.8,5.3,3.8h9.9c10.8,0,14.8,4.2,14.8,10.2c0,7.5-7.4,13.8-21.5,13.8
			c-12.2,0-16.2-4.2-16.2-9.1c0-3,2.2-5.6,6.7-7.3c-3-1.3-4.9-3.1-4.9-6.4s1.7-5.8,5.8-9.4c-4.1-2.2-6-6-6-10.5
			c0-7.2,5-12.4,15.6-12.4c5.2,0,8.9,1.3,11.5,3.4l8.6-3.4l1.2,0.7v5.3H1600.8z M1578.3,570.8c-4,0-5.8-0.1-8-0.7
			c-1.1,1.5-1.7,3-1.7,5.2c0,4.9,3.7,7.6,9.8,7.6c8.9,0,13.1-2.8,13.1-6.6c0-2.9-1.5-5.4-5.8-5.4L1578.3,570.8L1578.3,570.8z
			 M1585.4,543.1c0-6.6-2.2-10.4-5.9-10.4c-3.8,0-5.9,3.9-5.9,10.4s1.9,10.5,5.8,10.5C1583.2,553.6,1585.4,549.6,1585.4,543.1z"/>
		<path class="st0" d="M1646.2,566.5v2l-14.8,0.9l-0.3-6.7c-3.1,3.9-7.5,6.9-12.4,6.9c-6.7,0-10.9-3.6-10.8-13.8l0.3-19.9l-4.7-0.9
			v-1.8l14.9-2l0.9,0.7l-0.4,10.9v14.1c0,5.4,2.1,7,5.3,7c2.5,0,5-1.3,6.9-3.2l0.3-24.8l-4.5-0.9v-1.5l14.6-2.3l0.9,0.7l-0.3,10.9
			v23.5L1646.2,566.5z"/>
		<path class="st0" d="M1684.7,560.5c-2.8,5.8-8.1,9.1-15,9.1c-11.1,0-19.3-7-19.3-19.6s9.6-19.3,19.2-19.3
			c10.1,0,15.5,6.8,15.5,15.3c0,1.7-0.1,2.8-0.4,4.1h-22.8c0.3,10.5,5.4,14.8,11.7,14.8c4.7,0,7.6-2,9.8-5.1L1684.7,560.5z
			 M1671.1,547.6c3.2,0,4-1.5,4-5.7c0-5.8-2.5-8.9-6.1-8.9c-3.7,0-6.7,4.2-7,14.6H1671.1z"/>
	</g>
</g>
<g>
	<g>
		<path class="st0" d="M-2341.9,564.3c-1.7,3.7-4.2,5.2-8.5,5.2c-4.4,0-6.9-2.2-7.9-5.8c-3.4,3.8-6,5.8-11.3,5.8
			c-5.8,0-9.8-3.5-9.8-9.1c0-6.1,3.5-9.4,14.3-12.5c1.9-0.5,4.2-1.1,6.6-1.7v-4.1c0-7-1.6-9.1-6.7-9.1c-0.9,0-1.8,0.1-2.8,0.3
			l-0.5,4.8c-0.2,4.6-2.5,6.4-5,6.4c-2.4,0-4.1-1.2-4.6-3.4c0.5-6.3,6.4-10.3,16.8-10.3c9.5,0,13.3,4.1,13.3,13.8v18
			c0,2.5,0.8,3.4,2.1,3.4c1,0,1.7-0.5,3-2.5L-2341.9,564.3z M-2371.9,534.2l-1.1,0.4L-2371.9,534.2z M-2358.6,548
			c-1.5,0.4-2.9,0.8-3.7,1.1c-4.7,1.9-7.2,5.1-7.2,10c0,4,1.9,5.9,5,5.9c1.8,0,3.4-0.9,5.8-3.1L-2358.6,548L-2358.6,548z"/>
		<path class="st0" d="M-2324.2,535.4c3.3-3.2,7.2-4.7,11.3-4.7c8.4,0,14.9,6.8,14.9,19.3c0,11.1-6.2,19.6-15.7,19.6
			c-4,0-7.8-1.5-10.7-4.8l-1.4,4.6l-13.7-1v-2.1l4.4-0.4c0.1-3.9,0.1-9.7,0.1-13.5v-34.3l-4.9-0.5v-1.7l14.8-2.9l0.9,0.6l-0.2,10.8
			v11H-2324.2z M-2324.1,562.9c1.7,1.3,3.6,1.9,5.6,1.9c4.7,0,8.9-2.8,8.9-15.1c0-10.5-3.7-14.4-8.7-14.4c-2.1,0-3.8,0.3-5.8,2
			V562.9z"/>
		<path class="st0" d="M-2292.8,549.9c0-11.9,8.5-19.3,19-19.3c10.6,0,19.1,7.2,19.1,19.3c0,12-7.6,19.7-19.1,19.7
			C-2285.3,569.6-2292.8,561.7-2292.8,549.9z M-2266.4,550c0-11.7-2.6-17-7.4-17s-7.5,5.3-7.5,17s2.7,17.2,7.5,17.2
			S-2266.4,561.7-2266.4,550z"/>
		<path class="st0" d="M-2208,566.5v2l-14.8,0.9l-0.3-6.7c-3.1,3.9-7.5,6.9-12.4,6.9c-6.7,0-10.9-3.6-10.8-13.8l0.3-19.9l-4.7-0.9
			v-1.8l14.9-2l0.9,0.7l-0.4,10.9v14.1c0,5.4,2.1,7,5.3,7c2.5,0,5-1.3,6.9-3.2l0.3-24.8l-4.5-0.9v-1.5l14.6-2.3l0.9,0.7l-0.3,10.9
			v23.5L-2208,566.5z"/>
		<path class="st0" d="M-2178.8,564c-2,3.6-5.4,5.6-10.5,5.6c-6.8,0-10.5-3.1-10.5-10.5c0-2.5,0.1-4.5,0.1-7.3v-17.2h-5.4v-2.1
			l6-0.7l3.5-10.7h6.9l-0.1,10.8h8.3v2.8h-8.3v25.4c0,3.6,1.7,5.2,4.4,5.2c1.7,0,2.8-0.7,4.6-2.1L-2178.8,564z"/>
		<path class="st0" d="M-2135.1,564c-2,3.6-5.4,5.6-10.5,5.6c-6.8,0-10.5-3.1-10.5-10.5c0-2.5,0.1-4.5,0.1-7.3v-17.2h-5.4v-2.1
			l6-0.7l3.5-10.7h6.9l-0.1,10.8h8.3v2.8h-8.3v25.4c0,3.6,1.7,5.2,4.4,5.2c1.7,0,2.8-0.7,4.6-2.1L-2135.1,564z"/>
		<path class="st0" d="M-2133.2,549.9c0-11.9,8.5-19.3,19-19.3c10.6,0,19.1,7.2,19.1,19.3c0,12-7.6,19.7-19.1,19.7
			C-2125.6,569.6-2133.2,561.7-2133.2,549.9z M-2106.7,550c0-11.7-2.6-17-7.4-17s-7.5,5.3-7.5,17s2.7,17.2,7.5,17.2
			S-2106.7,561.7-2106.7,550z"/>
		<path class="st0" d="M-2033.7,533.8l-4.6,0.7l-11.9,34.1h-4.6c-5.2-14.5-7.6-21.3-9.2-26.6l-9.5,26.6h-4.6l-12.3-34.3l-3.6-0.4v-2
			h19.8v2l-5.2,0.5l7.5,24.5l7.9-24.4l-5.2-0.5v-2h17.5v2l-5.2,0.6l8.2,23.9l7.1-23.9l-6-0.7v-2h13.8L-2033.7,533.8L-2033.7,533.8z"
			/>
		<path class="st0" d="M-1998.6,560.5c-2.8,5.8-8.1,9.1-15,9.1c-11.1,0-19.3-7-19.3-19.6s9.6-19.3,19.2-19.3
			c10.1,0,15.5,6.8,15.5,15.3c0,1.7-0.1,2.8-0.4,4.1h-22.8c0.3,10.5,5.4,14.8,11.7,14.8c4.7,0,7.6-2,9.8-5.1L-1998.6,560.5z
			 M-2012.3,547.6c3.2,0,4-1.5,4-5.7c0-5.8-2.5-8.9-6.1-8.9c-3.7,0-6.7,4.2-7,14.6H-2012.3z"/>
		<path class="st0" d="M-1974.6,566.3v2.1h-20.3v-2.1l4.6-0.4c0.1-4.4,0.1-9.2,0.1-13.5v-34.3l-4.9-0.5v-1.7l15-2.9l0.9,0.6
			l-0.3,10.8v28c0,4.4,0.1,9.1,0.2,13.5L-1974.6,566.3z"/>
	</g>
</g>
<g>
	<g>
		<path class="st0" d="M-1617.5,533.5l-4.6,0.7l-11.9,34.1h-4.6c-5.2-14.5-7.6-21.3-9.2-26.6l-9.5,26.6h-4.6l-12.3-34.3l-3.6-0.4v-2
			h19.8v2l-5.2,0.5l7.5,24.5l7.9-24.4l-5.2-0.5v-2h17.5v2l-5.2,0.6l8.2,23.9l7.1-23.9l-6-0.7v-2h13.8v1.9H-1617.5z"/>
		<path class="st0" d="M-1578.8,564c-1.7,3.7-4.2,5.2-8.5,5.2c-4.4,0-6.9-2.2-7.9-5.8c-3.4,3.8-6,5.8-11.3,5.8
			c-5.8,0-9.8-3.5-9.8-9.1c0-6.1,3.5-9.4,14.3-12.5c1.9-0.5,4.2-1.1,6.6-1.7v-4.1c0-7-1.6-9.1-6.7-9.1c-0.9,0-1.8,0.1-2.8,0.3
			l-0.5,4.8c-0.2,4.6-2.5,6.4-5,6.4c-2.4,0-4.1-1.2-4.6-3.4c0.5-6.3,6.4-10.3,16.8-10.3c9.5,0,13.3,4.1,13.3,13.8v18
			c0,2.5,0.8,3.4,2.1,3.4c1,0,1.7-0.5,3-2.5L-1578.8,564z M-1608.8,533.9l-1.1,0.4L-1608.8,533.9z M-1595.5,547.7
			c-1.5,0.4-2.9,0.8-3.7,1.1c-4.7,1.9-7.2,5.1-7.2,10c0,4,1.9,5.9,5,5.9c1.8,0,3.4-0.9,5.8-3.1L-1595.5,547.7L-1595.5,547.7z"/>
		<path class="st0" d="M-1556.6,545.6c7,2.1,10.1,5.8,10.1,11.3c0,7.8-6.2,12.3-16.4,12.3c-5.2,0-9.3-1.1-13.3-3.4l0.5-9.1h4.3
			l2.1,8.9c1.7,0.7,3.4,1,5.5,1c5.1,0,7.9-1.8,7.9-5.5c0-2.8-1.3-4.8-6.6-6.5l-3.9-1.1c-6-1.9-9.6-5.3-9.6-11
			c0-7,5.5-12.1,15.4-12.1c4.5,0,7.9,1.1,11.9,3l-0.5,8.5h-3.8l-2.5-7.9c-1.4-0.7-2.8-1-4.8-1c-4.1,0-6.8,2.1-6.8,5.4
			c0,2.5,1.3,4.5,6.6,6.1L-1556.6,545.6z"/>
		<path class="st0" d="M-1500.6,566v2.1h-19.5V566l4.3-0.4c0.1-3.9,0.1-9.6,0.1-13.5v-9.7c0-5.2-1.9-7.1-4.9-7.1
			c-2.1,0-4.8,1.1-7.5,3.6V552c0,3.8,0.1,9.6,0.1,13.6l3.9,0.3v2.1h-19.4v-2l4.4-0.4c0.1-4,0.1-9.7,0.1-13.5v-34.3l-4.9-0.5v-1.7
			l14.8-2.9l0.9,0.6l-0.2,10.8v13c4-4.8,7.4-6.8,12.5-6.8c6.5,0,10.9,4,10.9,13.1v8.7c0,4,0.1,9.7,0.1,13.6L-1500.6,566z"/>
		<path class="st0" d="M-1476.8,566v2.1h-19.6V566l4.4-0.4c0.1-4,0.1-9.7,0.1-13.5v-5.4c0-4.3-0.1-6.8-0.2-10.2l-5-0.5v-1.6l15.4-4
			l0.9,0.7l-0.3,10.7v10.3c0,3.8,0.1,9.6,0.1,13.5L-1476.8,566z M-1492.4,518.3c0-3.2,2.6-5.5,5.8-5.5s5.8,2.3,5.8,5.5
			s-2.6,5.4-5.8,5.4C-1489.8,523.7-1492.4,521.4-1492.4,518.3z"/>
		<path class="st0" d="M-1429.8,566v2.1h-19.5V566l4.2-0.4c0.1-3.9,0.1-9.6,0.1-13.5v-9.7c0-5.2-1.5-7.1-4.6-7.1
			c-2,0-4.8,1.3-7.6,3.8V552c0,3.8,0.1,9.6,0.1,13.6l3.8,0.3v2.1h-19.4v-2l4.5-0.4c0.1-4,0.1-9.7,0.1-13.5v-5.6
			c0-4.4-0.1-6.6-0.2-9.8l-5-0.5v-1.6l14.6-4.2l0.9,0.7l0.4,5.9c4.4-5.1,8.1-6.6,12.5-6.6c6.4,0,10.7,4.2,10.7,12.9v8.9
			c0,4,0.1,9.7,0.2,13.6L-1429.8,566z"/>
		<path class="st0" d="M-1388.1,536.3l-8.1-0.9c1.5,2,2.3,4.5,2.3,7.3c0,7-5,12.6-15.5,12.6c-3.2,0-6-0.5-8.2-1.5
			c-0.7,1.2-1.1,2.3-1.1,3.8c0,2.5,1.5,3.8,5.3,3.8h9.9c10.8,0,14.8,4.2,14.8,10.2c0,7.5-7.4,13.8-21.5,13.8
			c-12.2,0-16.2-4.2-16.2-9.1c0-3,2.2-5.6,6.7-7.3c-3-1.3-4.9-3.1-4.9-6.4s1.7-5.8,5.8-9.4c-4.1-2.2-6-6-6-10.5
			c0-7.2,5-12.4,15.6-12.4c5.2,0,8.9,1.3,11.5,3.4l8.6-3.4l1.2,0.7v5.3H-1388.1z M-1410.6,570.5c-4,0-5.8-0.1-8-0.7
			c-1.1,1.5-1.7,3-1.7,5.2c0,4.9,3.7,7.6,9.8,7.6c8.9,0,13.1-2.8,13.1-6.6c0-2.9-1.5-5.4-5.8-5.4L-1410.6,570.5L-1410.6,570.5z
			 M-1403.4,542.8c0-6.6-2.2-10.4-5.9-10.4c-3.8,0-5.9,3.9-5.9,10.4s1.9,10.5,5.8,10.5C-1405.6,553.3-1403.4,549.3-1403.4,542.8z"/>
		<path class="st0" d="M-1343.2,563.7c-2,3.6-5.4,5.6-10.5,5.6c-6.8,0-10.5-3.1-10.5-10.5c0-2.5,0.1-4.5,0.1-7.3v-17.2h-5.4v-2.1
			l6-0.7l3.5-10.7h6.9l-0.1,10.8h8.3v2.8h-8.3v25.4c0,3.6,1.7,5.2,4.4,5.2c1.7,0,2.8-0.7,4.6-2.1L-1343.2,563.7z"/>
		<path class="st0" d="M-1321.3,566v2.1h-19.6V566l4.4-0.4c0.1-4,0.1-9.7,0.1-13.5v-5.4c0-4.3-0.1-6.8-0.2-10.2l-5-0.5v-1.6l15.4-4
			l0.9,0.7l-0.3,10.7v10.3c0,3.8,0.1,9.6,0.1,13.5L-1321.3,566z M-1337,518.3c0-3.2,2.6-5.5,5.8-5.5s5.8,2.3,5.8,5.5
			s-2.6,5.4-5.8,5.4C-1334.3,523.7-1337,521.4-1337,518.3z"/>
		<path class="st0" d="M-1302.1,535.4c3.2-3.5,7.1-5,11.5-5c8.2,0,14.7,6.8,14.7,19.3c0,12.2-7.4,19.7-16.3,19.7
			c-3.7,0-7-1.3-9.9-4.6v4c0,4,0.1,9.1,0.1,14.4l5.2,0.6v1.9h-20.6v-1.9l4.5-0.5c0.1-5.3,0.1-10.4,0.1-14.5v-21.9
			c0-4.4-0.1-6.6-0.2-9.9l-5-0.5v-1.6l14.4-4.2l0.9,0.7L-1302.1,535.4z M-1301.8,562.8c1.7,1.3,3.4,1.7,5.6,1.7
			c5.2,0,8.9-3.6,8.9-14.8c0-10.9-3.2-14.7-8.5-14.7c-2,0-3.8,0.3-6,2.3V562.8z"/>
	</g>
</g>
<g>
	<g>
		<path class="st0" d="M-1386.8,535.4c3.2-3.5,7.1-5,11.5-5c8.2,0,14.7,6.8,14.7,19.3c0,12.2-7.4,19.7-16.3,19.7
			c-3.7,0-7-1.3-9.9-4.6v4c0,4,0.1,9.1,0.1,14.4l5.2,0.6v1.9h-20.6v-1.9l4.5-0.5c0.1-5.3,0.1-10.4,0.1-14.5v-21.9
			c0-4.4-0.1-6.6-0.2-9.9l-5-0.5v-1.6l14.4-4.2l0.9,0.7L-1386.8,535.4z M-1386.5,562.8c1.7,1.3,3.4,1.7,5.6,1.7
			c5.2,0,8.9-3.6,8.9-14.8c0-10.9-3.2-14.7-8.5-14.7c-2,0-3.8,0.3-6,2.3V562.8z"/>
		<path class="st0" d="M-1340.5,540.7c2-6.8,6.6-10.3,10.6-10.3c3.2,0,5.8,1.3,6.5,5.3c-0.3,3-1.6,5.4-5,5.4c-2.5,0-4.2-1.6-6-4
			l-0.6-0.8c-2.7,2.5-4.3,5.4-5.6,10.3v5.6c0,3.7,0.1,9.3,0.1,13.3l6.2,0.6v2.1h-21.8V566l4.6-0.5c0.1-3.9,0.1-9.7,0.1-13.4v-5.6
			c0-4.4-0.1-6.6-0.2-9.8l-5-0.5v-1.6l14.6-4.2l0.9,0.7L-1340.5,540.7z"/>
		<path class="st0" d="M-1301.2,566v2.1h-19.6V566l4.4-0.4c0.1-4,0.1-9.7,0.1-13.5v-5.4c0-4.3-0.1-6.8-0.2-10.2l-5-0.5v-1.6l15.4-4
			l0.9,0.7l-0.3,10.7v10.3c0,3.8,0.1,9.6,0.1,13.5L-1301.2,566z M-1316.8,518.3c0-3.2,2.6-5.5,5.8-5.5c3.2,0,5.8,2.3,5.8,5.5
			s-2.6,5.4-5.8,5.4C-1314.2,523.7-1316.8,521.4-1316.8,518.3z"/>
		<path class="st0" d="M-1254.2,566v2.1h-19.5V566l4.2-0.4c0.1-3.9,0.1-9.6,0.1-13.5v-9.7c0-5.2-1.5-7.1-4.6-7.1
			c-2,0-4.8,1.3-7.6,3.8V552c0,3.8,0.1,9.6,0.1,13.6l3.8,0.3v2.1h-19.4v-2l4.5-0.4c0.1-4,0.1-9.7,0.1-13.5v-5.6
			c0-4.4-0.1-6.6-0.2-9.8l-5-0.5v-1.6l14.6-4.2l0.9,0.7l0.4,5.9c4.4-5.1,8.1-6.6,12.5-6.6c6.4,0,10.7,4.2,10.7,12.9v8.9
			c0,4,0.1,9.7,0.2,13.6L-1254.2,566z"/>
		<path class="st0" d="M-1225.4,563.7c-2,3.6-5.4,5.6-10.5,5.6c-6.8,0-10.5-3.1-10.5-10.5c0-2.5,0.1-4.5,0.1-7.3v-17.2h-5.4v-2.1
			l6-0.7l3.5-10.7h6.9l-0.1,10.8h8.3v2.8h-8.3v25.4c0,3.6,1.7,5.2,4.4,5.2c1.7,0,2.8-0.7,4.6-2.1L-1225.4,563.7z"/>
		<path class="st0" d="M-1161.9,538.6c-1.9,7-3.8,11.3-8.1,16.9c3,3.2,6,6.2,10,10.3l3,0.4l-0.1,1.9c-3.2,0.7-4.8,1-6.9,1
			c-4.2,0-7.3-0.9-10.4-3.7c-1-0.9-1.9-1.9-2.9-2.8c-3.1,3.6-7.8,6.6-14.2,6.6c-10.1,0-15.4-6.2-15.4-13.3c0-5.8,3.4-10.5,11.9-14.2
			l-0.9-1.1c-3.4-4.3-4.6-7.9-4.6-11.7c0-7.2,5.6-11.8,13.9-11.8s12.8,4,12.8,9.8c0,5.2-3.8,8.9-11.4,12.1c1.4,1.6,3.3,3.6,5.8,6.4
			c3.2,3.4,5.6,6.2,8,8.7c2.5-4.7,4-9.7,4.8-15.4l-6.2-0.9v-1.9h16.3v1.9L-1161.9,538.6z M-1178.5,561.2c-2.8-3.1-5.4-6.2-7.7-9
			c-3.6-4.4-5.8-7-7.6-9.3c-2.8,3-3.8,6.2-3.8,9.5c0,6.8,4.7,11.3,11.2,11.3C-1183.4,563.6-1180.8,562.8-1178.5,561.2z M-1192.3,526
			c0,2.4,0.6,4.6,2.9,7.8c0.9,1.2,1.8,2.3,3.2,3.8c3.2-3.6,5.1-7.2,5.1-11.3c0-4.2-2-6.5-5.4-6.5
			C-1190,519.9-1192.3,522.4-1192.3,526z"/>
		<path class="st0" d="M-1120.2,535.4c3.2-3.5,7.1-5,11.5-5c8.2,0,14.7,6.8,14.7,19.3c0,12.2-7.4,19.7-16.3,19.7
			c-3.7,0-7-1.3-9.9-4.6v4c0,4,0.1,9.1,0.1,14.4l5.2,0.6v1.9h-20.6v-1.9l4.5-0.5c0.1-5.3,0.1-10.4,0.1-14.5v-21.9
			c0-4.4-0.1-6.6-0.2-9.9l-5-0.5v-1.6l14.4-4.2l0.9,0.7L-1120.2,535.4z M-1119.9,562.8c1.7,1.3,3.4,1.7,5.6,1.7
			c5.2,0,8.9-3.6,8.9-14.8c0-10.9-3.2-14.7-8.5-14.7c-2,0-3.8,0.3-6,2.3V562.8z"/>
		<path class="st0" d="M-1051.8,564c-1.7,3.7-4.2,5.2-8.5,5.2c-4.4,0-6.9-2.2-7.9-5.8c-3.4,3.8-6,5.8-11.3,5.8
			c-5.8,0-9.8-3.5-9.8-9.1c0-6.1,3.5-9.4,14.3-12.5c1.9-0.5,4.2-1.1,6.6-1.7v-4.1c0-7-1.6-9.1-6.7-9.1c-0.9,0-1.8,0.1-2.8,0.3
			l-0.5,4.8c-0.2,4.6-2.5,6.4-5,6.4c-2.4,0-4.1-1.2-4.6-3.4c0.5-6.3,6.4-10.3,16.8-10.3c9.5,0,13.3,4.1,13.3,13.8v18
			c0,2.5,0.8,3.4,2.1,3.4c1,0,1.7-0.5,3-2.5L-1051.8,564z M-1081.8,533.9l-1.1,0.4L-1081.8,533.9z M-1068.6,547.7
			c-1.5,0.4-2.9,0.8-3.7,1.1c-4.7,1.9-7.2,5.1-7.2,10c0,4,1.9,5.9,5,5.9c1.8,0,3.4-0.9,5.8-3.1L-1068.6,547.7L-1068.6,547.7z"/>
		<path class="st0" d="M-1006.9,566v2.1h-14.6l-9.5-19.7l-3,2.8v0.5c0,4,0.1,10.1,0.1,14l4.2,0.4v2.1h-19.8V566l4.5-0.4
			c0.1-3.9,0.1-10,0.1-13.5v-34.3l-4.9-0.5v-1.7l15-2.9l0.9,0.6l-0.3,10.8v24.2l14.5-14l-6.8-0.8v-2h17.5v2l-6.6,0.7l-8,7.4
			l12.2,23.9L-1006.9,566z"/>
		<path class="st0" d="M-966.7,564c-1.7,3.7-4.2,5.2-8.5,5.2c-4.4,0-6.9-2.2-7.9-5.8c-3.4,3.8-6,5.8-11.3,5.8
			c-5.8,0-9.8-3.5-9.8-9.1c0-6.1,3.5-9.4,14.3-12.5c1.9-0.5,4.2-1.1,6.6-1.7v-4.1c0-7-1.6-9.1-6.7-9.1c-0.9,0-1.8,0.1-2.8,0.3
			l-0.5,4.8c-0.2,4.6-2.5,6.4-5,6.4c-2.4,0-4.1-1.2-4.6-3.4c0.5-6.3,6.4-10.3,16.8-10.3c9.5,0,13.3,4.1,13.3,13.8v18
			c0,2.5,0.8,3.4,2.1,3.4c1,0,1.7-0.5,3-2.5L-966.7,564z M-996.7,533.9l-1.1,0.4L-996.7,533.9z M-983.4,547.7
			c-1.5,0.4-2.9,0.8-3.7,1.1c-4.7,1.9-7.2,5.1-7.2,10c0,4,1.9,5.9,5,5.9c1.8,0,3.4-0.9,5.8-3.1L-983.4,547.7L-983.4,547.7z"/>
		<path class="st0" d="M-927.1,536.3l-8.1-0.9c1.5,2,2.3,4.5,2.3,7.3c0,7-5,12.6-15.5,12.6c-3.2,0-6-0.5-8.2-1.5
			c-0.7,1.2-1.1,2.3-1.1,3.8c0,2.5,1.5,3.8,5.3,3.8h9.9c10.8,0,14.8,4.2,14.8,10.2c0,7.5-7.4,13.8-21.5,13.8
			c-12.2,0-16.2-4.2-16.2-9.1c0-3,2.2-5.6,6.7-7.3c-3-1.3-4.9-3.1-4.9-6.4s1.7-5.8,5.8-9.4c-4.1-2.2-6-6-6-10.5
			c0-7.2,5-12.4,15.6-12.4c5.2,0,8.9,1.3,11.5,3.4l8.6-3.4l1.2,0.7v5.3H-927.1z M-949.5,570.5c-4,0-5.8-0.1-8-0.7
			c-1.1,1.5-1.7,3-1.7,5.2c0,4.9,3.7,7.6,9.8,7.6c8.9,0,13.1-2.8,13.1-6.6c0-2.9-1.5-5.4-5.8-5.4L-949.5,570.5L-949.5,570.5z
			 M-942.4,542.8c0-6.6-2.2-10.4-5.9-10.4c-3.8,0-5.9,3.9-5.9,10.4s1.9,10.5,5.8,10.5C-944.6,553.3-942.4,549.3-942.4,542.8z"/>
		<path class="st0" d="M-890.6,560.2c-2.8,5.8-8.1,9.1-15,9.1c-11.1,0-19.3-7-19.3-19.6s9.6-19.3,19.2-19.3
			c10.1,0,15.5,6.8,15.5,15.3c0,1.7-0.1,2.8-0.4,4.1h-22.8c0.3,10.5,5.4,14.8,11.7,14.8c4.7,0,7.6-2,9.8-5.1L-890.6,560.2z
			 M-904.2,547.3c3.2,0,4-1.5,4-5.7c0-5.8-2.5-8.9-6.1-8.9c-3.7,0-6.7,4.2-7,14.6L-904.2,547.3z"/>
	</g>
</g>
<g>
	<path class="st0" d="M-1130.7,247.7c0,0,4.7-60.4,36.3-63.2c21.4-1.9,36.3,21.8,36.3,21.8s0,21.7-23.9,34.2
		c-23.9,12.4-28.3,7.1-28.3,7.1s23-30.4,23.6-44.1s-9.9-18.6-17.1-11.5s-16.2,12.4-22.4,55.3L-1130.7,247.7z"/>
	<path class="st0" d="M-1134.4,247.7c0,0-4.7-60.4-36.3-63.2c-21.4-1.9-36.3,21.8-36.3,21.8s0,21.7,23.9,34.2
		c23.9,12.4,28.3,7.1,28.3,7.1s-23-30.4-23.6-44.1s9.9-18.6,17.1-11.5s16.2,12.4,22.4,55.3L-1134.4,247.7z"/>
	<path class="st0" d="M-1218.7,310.1c-5.1,0-9.3,4.2-9.3,9.3v120.9c0,5.1,4.2,9.3,9.3,9.3h71.7V310.1H-1218.7z"/>
	<path class="st0" d="M-1046.4,449.6c5.1,0,9.3-4.2,9.3-9.3V319.4c0-5.1-4.2-9.3-9.3-9.3h-71.7v139.5L-1046.4,449.6L-1046.4,449.6z"
		/>
	<path class="st0" d="M-1229.1,254.2c-5.8,0-10.5,4.7-10.5,10.5v27c0,5.8,4.7,10.5,10.5,10.5h82v-48H-1229.1z"/>
	<path class="st0" d="M-1036,254.2h-82v48h82c5.8,0,10.5-4.7,10.5-10.5v-26.9C-1025.5,258.9-1030.2,254.2-1036,254.2z"/>
</g>
<g>
	<g>
		<path class="st0" d="M-1539.2,201.6v13.4c0,1.4-1.2,2.6-2.6,2.6s-2.6-1.2-2.6-2.6v-13.2c-5.1,1.4-8.9,6.1-8.9,11.7
			c0,6.6,5.4,12,12,12c6.6,0,12-5.4,12-12C-1529.2,207.6-1533.5,202.6-1539.2,201.6z"/>
		<path class="st0" d="M-1377.8,242.6v-46.6c0-5.2-4.2-9.4-9.4-9.4h-70.2v56.2L-1377.8,242.6L-1377.8,242.6z M-1438.8,200.5h42.9
			c1.4,0,2.6,1.2,2.6,2.6c0,1.4-1.2,2.6-2.6,2.6h-42.9c-1.4,0-2.6-1.2-2.6-2.6C-1441.4,201.7-1440.3,200.5-1438.8,200.5z
			 M-1438.8,216.2h42.9c1.4,0,2.6,1.2,2.6,2.6s-1.2,2.6-2.6,2.6h-42.9c-1.4,0-2.6-1.2-2.6-2.6S-1440.3,216.2-1438.8,216.2z"/>
		<path class="st0" d="M-1576,429.8c0,5.2,4.2,9.4,9.4,9.4h179.3c5.2,0,9.4-4.2,9.4-9.4v-182H-1576V429.8z M-1473.4,273
			c34.3,1.8,62.2,29.7,64,64c2.1,40.1-30.9,73-71.1,71.1c-34.3-1.8-62.2-29.7-64-64C-1546.4,303.9-1513.5,271-1473.4,273z"/>
		<path class="st0" d="M-1476.9,397.4c16,0,30.4-6.6,40.8-17.3c0.3-0.3,0.6-0.6,0.8-0.9c2.5-2.7,1.7-7-1.6-8.6l-10.7-5.2
			c-1.9-0.9-3.1-2.8-3.1-4.9v-10.3V324c0-2.2,1.4-4.3,3.5-5l12.9-4.9c3.4-1.3,4.7-5.5,2.4-8.3c-10.4-13.4-26.7-22-45-22
			c-31.4,0-56.9,25.5-56.9,56.9c0,0.7,0,1.3,0.1,2C-1532.6,373.1-1507.6,397.4-1476.9,397.4z M-1528.5,339.5
			c6.3-3.5,16-7.6,27.5-9.3c21.3-3.1,20.5,12.8,34.4,18.9c0,0,3,1.3,7.4,1.8c2,0.2,3.4,1.8,3.4,3.7v9.4c0,2,1.1,3.8,3,4.7l13.8,6.6
			l0.3,0.1c-0.3,0.4-0.7,0.7-1,1c-12,12.3-29,17.9-46.5,14.8c-23.9-4.2-41.3-25-42.2-49.3v-0.1c0-0.5,0-1,0-1.5
			C-1528.5,340.1-1528.5,339.8-1528.5,339.5z"/>
		<path class="st0" d="M-1462.7,186.5h-103.8c-5.2,0-9.4,4.2-9.4,9.4v46.6h113.3L-1462.7,186.5L-1462.7,186.5z M-1541.2,230.8
			c-9.5,0-17.3-7.7-17.3-17.3c0-9.5,7.7-17.3,17.3-17.3c9.5,0,17.3,7.7,17.3,17.3C-1524,223.1-1531.7,230.8-1541.2,230.8z"/>
	</g>
</g>
<g>
	<path class="st0" d="M517.2,193.8H365.8c-27.6,0-50.3,22.6-50.3,50.3v19.8c0,27.2,21.9,49.5,49.1,50.2l46.8,46.8v-46.7h105.9
		c27.6,0,50.3-22.6,50.3-50.3v-19.8C567.5,216.4,544.9,193.8,517.2,193.8z M398.8,268.4c-8,0-14.4-6.4-14.4-14.4s6.4-14.4,14.4-14.4
		c8,0,14.4,6.4,14.4,14.4C413.1,262,406.7,268.4,398.8,268.4z M441.5,268.4c-8,0-14.4-6.4-14.4-14.4s6.4-14.4,14.4-14.4
		c8,0,14.4,6.4,14.4,14.4S449.4,268.4,441.5,268.4z M484.2,268.4c-8,0-14.4-6.4-14.4-14.4s6.4-14.4,14.4-14.4
		c8,0,14.4,6.4,14.4,14.4S492.1,268.4,484.2,268.4z"/>
	<path class="st0" d="M562,388.3V439c0,0-24.7-5.6-71.4,12.4c-46.7,18-62.9,25.8-74.6,23.9c-11.7-1.8-82.5-30.5-82.5-30.5
		s-12.7-6.4-7.7-14.9c5-8.5,14.6-5.6,28.7-0.5c14.1,5,55,18.6,55,18.6l48.4-22.3l21.8-1.1c0,0-34.2-7.1-45.9-8.8
		c-11.7-1.6-43-4.8-45.3-14.1c-2.4-9.3,2.7-18.8,18-16.5c15.4,2.4,19.1,5.9,52-2.7s56.8-5,68.5,0C538.7,387.5,541.6,390.2,562,388.3
		z"/>
	<path class="st0" d="M414.4,440.5l14.2-6.1c0,0-26.1-17.9-28.6-19.5c-2.6-1.6-8.8-3.9-12.9,0c-4.1,3.9-2.4,7.1-2.4,7.1L414.4,440.5
		z"/>
	<path class="st0" d="M411.4,442.4l-46.2-28c0,0-8.1-4.1-12.4-0.3c-4.2,3.8-5.9,9.1,0,11.2c5.9,2.2,48.5,16.9,51.6,17.4
		C407.6,443.3,411.4,442.4,411.4,442.4z"/>
</g>
<g>
	<path class="st0" d="M1514.5,316.8h100.5c0.4,0,0.7-0.3,0.7-0.7v-39.2c0-0.4-0.3-0.7-0.7-0.7h-100.5c-0.4,0-0.7,0.3-0.7,0.7v39.2
		C1513.9,316.5,1514.2,316.8,1514.5,316.8z"/>
	<path class="st0" d="M1514.3,378.2h46.9c0.4,0,0.7-0.3,0.7-0.7v-25.3c0-0.4-0.3-0.7-0.7-0.7h-46.9c-0.4,0-0.7,0.3-0.7,0.7v25.3
		C1513.6,377.9,1513.9,378.2,1514.3,378.2z"/>
	<path class="st0" d="M1554.4,234.6v-42.7c0-0.8-0.1-1.5-0.3-2.2l-54.2,44.9H1554.4z"/>
	<path class="st0" d="M1488.3,248.1v201c0,4.6,3.7,8.3,8.3,8.3h135.7c4.6,0,8.3-3.7,8.3-8.3v-201c0-4.6-3.7-8.3-8.3-8.3h-135.7
		c-1.7,0-3.2,0.5-4.5,1.4l-1.4,1.1C1489.2,243.8,1488.3,245.9,1488.3,248.1z M1567.5,426.1c0,3.3-2.6,5.9-5.9,5.9h-46.9
		c-3.3,0-5.9-2.6-5.9-5.9v-25.3c0-3.3,2.6-5.9,5.9-5.9h46.9c3.3,0,5.9,2.6,5.9,5.9V426.1z M1587.4,362.3h30.7c1.4,0,2.6,1.2,2.6,2.6
		c0,1.4-1.2,2.6-2.6,2.6h-30.7c-1.4,0-2.6-1.2-2.6-2.6C1584.8,363.5,1586,362.3,1587.4,362.3z M1584.8,352c0-1.4,1.2-2.6,2.6-2.6
		h30.7c1.4,0,2.6,1.2,2.6,2.6s-1.2,2.6-2.6,2.6h-30.7C1586,354.7,1584.8,353.5,1584.8,352z M1587.4,375.1h30.7
		c1.4,0,2.6,1.2,2.6,2.6s-1.2,2.6-2.6,2.6h-30.7c-1.4,0-2.6-1.2-2.6-2.6S1586,375.1,1587.4,375.1z M1618.4,428.9h-30.7
		c-1.4,0-2.6-1.2-2.6-2.6s1.2-2.6,2.6-2.6h30.7c1.4,0,2.6,1.2,2.6,2.6C1621,427.8,1619.9,428.9,1618.4,428.9z M1618.4,416.2h-30.7
		c-1.4,0-2.6-1.2-2.6-2.6s1.2-2.6,2.6-2.6h30.7c1.4,0,2.6,1.2,2.6,2.6S1619.9,416.2,1618.4,416.2z M1618.4,403.3h-30.7
		c-1.4,0-2.6-1.2-2.6-2.6s1.2-2.6,2.6-2.6h30.7c1.4,0,2.6,1.2,2.6,2.6C1621,402.2,1619.9,403.3,1618.4,403.3z M1508.6,276.8
		c0-3.3,2.6-5.9,5.9-5.9h100.5c3.3,0,5.9,2.6,5.9,5.9v39.2c0,3.3-2.6,5.9-5.9,5.9h-100.5c-3.3,0-5.9-2.6-5.9-5.9V276.8z
		 M1508.3,352.3c0-3.3,2.6-5.9,5.9-5.9h46.9c3.3,0,5.9,2.6,5.9,5.9v25.3c0,3.3-2.6,5.9-5.9,5.9h-46.9c-3.3,0-5.9-2.6-5.9-5.9V352.3z
		"/>
	<path class="st0" d="M1561.5,400.2h-46.9c-0.4,0-0.7,0.3-0.7,0.7v25.3c0,0.4,0.3,0.7,0.7,0.7h46.9c0.4,0,0.7-0.3,0.7-0.7v-25.3
		C1562.2,400.5,1561.9,400.2,1561.5,400.2z"/>
	<path class="st0" d="M1488.9,236.9l62.7-51.9c-1.7-1.7-4-2.7-6.7-2.7h-138.4c-5.3,0-9.5,4.2-9.5,9.5v203.7c0,5.3,4.2,9.5,9.5,9.5
		h76.5V247.9C1483,243.4,1485.3,239.4,1488.9,236.9z M1461.7,364.1h-43.2c-1.4,0-2.6-1.2-2.6-2.6c0-1.4,1.2-2.6,2.6-2.6h43.2
		c1.4,0,2.6,1.2,2.6,2.6C1464.3,362.8,1463.2,364.1,1461.7,364.1z M1461.7,332.9h-43.2c-1.4,0-2.6-1.2-2.6-2.6s1.2-2.6,2.6-2.6h43.2
		c1.4,0,2.6,1.2,2.6,2.6S1463.2,332.9,1461.7,332.9z M1461.7,301.8h-43.2c-1.4,0-2.6-1.2-2.6-2.6c0-1.4,1.2-2.6,2.6-2.6h43.2
		c1.4,0,2.6,1.2,2.6,2.6C1464.3,300.7,1463.2,301.8,1461.7,301.8z M1461.7,270.7h-43.2c-1.4,0-2.6-1.2-2.6-2.6
		c0-1.4,1.2-2.6,2.6-2.6h43.2c1.4,0,2.6,1.2,2.6,2.6C1464.3,269.5,1463.2,270.7,1461.7,270.7z"/>
	<path class="st0" d="M1490.6,242.3l1.4-1.1C1491.4,241.5,1491.1,241.9,1490.6,242.3z"/>
</g>
<g>
	<g>
		<path class="st0" d="M-655,545.3c3.2-3.5,7.1-5,11.5-5c8.2,0,14.7,6.8,14.7,19.3c0,12.2-7.4,19.7-16.3,19.7c-3.7,0-7-1.3-9.9-4.6
			v4c0,4,0.1,9.1,0.1,14.4l5.2,0.6v1.9h-20.5v-1.9l4.5-0.5c0.1-5.3,0.1-10.4,0.1-14.5v-21.9c0-4.4-0.1-6.6-0.2-9.9l-5-0.5v-1.6
			l14.4-4.2l0.9,0.7L-655,545.3z M-654.7,572.7c1.7,1.3,3.4,1.7,5.6,1.7c5.2,0,8.9-3.6,8.9-14.8c0-10.9-3.2-14.7-8.5-14.7
			c-2,0-3.8,0.3-6,2.3V572.7z"/>
		<path class="st0" d="M-608.7,550.6c2-6.8,6.6-10.3,10.6-10.3c3.2,0,5.8,1.3,6.5,5.3c-0.3,3-1.6,5.4-5,5.4c-2.5,0-4.2-1.6-6-4
			l-0.6-0.8c-2.7,2.5-4.3,5.4-5.6,10.3v5.6c0,3.7,0.1,9.3,0.1,13.3l6.2,0.6v2.1h-21.7V576l4.6-0.5c0.1-3.9,0.1-9.7,0.1-13.4v-5.6
			c0-4.4-0.1-6.6-0.2-9.8l-5-0.5v-1.6l14.6-4.2l0.9,0.7L-608.7,550.6z"/>
		<path class="st0" d="M-590.5,559.5c0-11.9,8.5-19.3,19-19.3c10.6,0,19.1,7.2,19.1,19.3c0,12-7.6,19.7-19.1,19.7
			S-590.5,571.3-590.5,559.5z M-564.1,559.6c0-11.7-2.6-17-7.4-17c-4.8,0-7.5,5.3-7.5,17s2.7,17.2,7.5,17.2
			C-566.7,576.8-564.1,571.3-564.1,559.6z"/>
		<path class="st0" d="M-523.7,542.7c-0.7-0.1-1.3-0.1-1.9-0.1c-6,0-10.3,5.8-10.3,16.1c0,10,4.9,15.7,12.1,15.7
			c3.9,0,6.8-1.7,9.2-4.8l1.3,0.9c-3.1,5.6-8,8.7-15.3,8.7c-10.2,0-18.7-6.9-18.7-19.4s9.1-19.5,20.3-19.5c7.6,0,12.9,4.6,13.8,10.7
			c-0.7,2.4-2.1,3.6-4.4,3.6c-2.8,0-5.2-1.6-5.4-6.6L-523.7,542.7z"/>
		<path class="st0" d="M-474.7,570.1c-2.8,5.8-8.1,9.1-15,9.1c-11.1,0-19.3-7-19.3-19.6s9.6-19.3,19.2-19.3
			c10.1,0,15.5,6.8,15.5,15.3c0,1.7-0.1,2.8-0.4,4.1h-22.8c0.3,10.5,5.4,14.8,11.7,14.8c4.7,0,7.6-2,9.8-5.1L-474.7,570.1z
			 M-488.3,557.2c3.2,0,4-1.5,4-5.7c0-5.8-2.5-8.9-6.1-8.9c-3.7,0-6.7,4.2-7,14.6L-488.3,557.2z"/>
		<path class="st0" d="M-449.8,555.5c7,2.1,10.1,5.8,10.1,11.3c0,7.8-6.2,12.3-16.4,12.3c-5.2,0-9.3-1.1-13.3-3.4l0.5-9.1h4.3
			l2.1,8.9c1.7,0.7,3.4,1,5.5,1c5.1,0,7.9-1.8,7.9-5.5c0-2.8-1.3-4.8-6.6-6.5l-3.9-1.1c-6-1.9-9.6-5.3-9.6-11
			c0-7,5.5-12.1,15.4-12.1c4.5,0,7.9,1.1,11.9,3l-0.5,8.5h-3.8l-2.5-7.9c-1.4-0.7-2.8-1-4.8-1c-4.1,0-6.8,2.1-6.8,5.4
			c0,2.5,1.3,4.5,6.6,6.1L-449.8,555.5z"/>
		<path class="st0" d="M-415.5,555.5c7,2.1,10.1,5.8,10.1,11.3c0,7.8-6.2,12.3-16.4,12.3c-5.2,0-9.3-1.1-13.3-3.4l0.5-9.1h4.3
			l2.1,8.9c1.7,0.7,3.4,1,5.5,1c5.1,0,7.9-1.8,7.9-5.5c0-2.8-1.3-4.8-6.6-6.5l-3.9-1.1c-6-1.9-9.6-5.3-9.6-11
			c0-7,5.5-12.1,15.4-12.1c4.5,0,7.9,1.1,11.9,3l-0.5,8.5h-3.8l-2.5-7.9c-1.4-0.7-2.8-1-4.8-1c-4.1,0-6.8,2.1-6.8,5.4
			c0,2.5,1.3,4.5,6.6,6.1L-415.5,555.5z"/>
	</g>
</g>
<g>
	<g>
		<path class="st0" d="M-545.4,383.8v-74.7l-0.3-0.2l65.3-28.4l13.2,7.1v-63.9c0-2.3-1.8-4.1-4.1-4.1H-496v8.9
			c0,4.6-3.7,8.3-8.3,8.3h-97.6c-4.6,0-8.3-3.7-8.3-8.3v-8.9h-24.7c-2.3,0-4.1,1.8-4.1,4.1v215.5c0,2.3,1.8,4.1,4.1,4.1h163.4
			c2.3,0,4.1-1.8,4.1-4.1v-29l-15.8,6.9L-545.4,383.8z M-574.7,386l-24.1,24.5l-15.8-18.5c-1.2-1.5-1.1-3.6,0.4-4.9
			c1.5-1.2,3.6-1.1,4.9,0.4l10.9,12.7l18.8-19.1c1.3-1.4,3.5-1.4,4.9,0C-573.3,382.4-573.3,384.6-574.7,386z M-574.7,350.1
			l-24.1,24.5l-15.8-18.5c-1.2-1.5-1.1-3.6,0.4-4.9c1.5-1.2,3.6-1.1,4.9,0.4l10.9,12.7l18.8-19.1c1.3-1.4,3.5-1.4,4.9,0
			C-573.3,346.6-573.3,348.8-574.7,350.1z M-574.7,314.2l-24.1,24.5l-15.8-18.5c-1.2-1.5-1.1-3.6,0.4-4.9c1.5-1.2,3.6-1.1,4.9,0.4
			l10.9,12.7l18.8-19.1c1.3-1.4,3.5-1.4,4.9,0C-573.3,310.7-573.3,312.9-574.7,314.2z M-574.7,278.4l-24.1,24.5l-15.8-18.5
			c-1.2-1.5-1.1-3.6,0.4-4.9c1.5-1.2,3.6-1.1,4.9,0.4l10.9,12.7l18.8-19.1c1.3-1.4,3.5-1.4,4.9,0
			C-573.3,274.8-573.3,277-574.7,278.4z"/>
	</g>
	<g>
		<path class="st0" d="M-471.3,214.4c5.1,0,9.3,4.2,9.3,9.3v66.7l7.9,4.2v-74.3c0-8.3-6.7-14.9-14.9-14.9h-27v9.1h24.7V214.4z"/>
	</g>
	<g>
		<path class="st0" d="M-462,439.3c0,5.1-4.2,9.3-9.3,9.3h-163.4c-5.1,0-9.3-4.2-9.3-9.3V223.7c0-5.1,4.2-9.3,9.3-9.3h24.7v-9.1h-27
			c-8.3,0-14.9,6.7-14.9,14.9v222.4c0,8.3,6.7,14.9,14.9,14.9h168c8.3,0,14.9-6.7,14.9-14.9v-38.2l-7.9,3.4V439.3z"/>
	</g>
	<g>
		<path class="st0" d="M-504.2,193.8h-97.6c-1.7,0-3.1,1.4-3.1,3.1v8.5v9.1v5.2v8.9c0,1.7,1.4,3.1,3.1,3.1h97.6
			c1.7,0,3.1-1.4,3.1-3.1v-8.9v-5.2v-9.1v-8.5C-501.1,195.2-502.5,193.8-504.2,193.8z"/>
	</g>
	<g>
		<polygon class="st0" points="-454,301.8 -462,297.5 -467.2,294.8 -480.7,287.5 -531.2,309.5 -482.6,335.5 -467.2,328.8 
			-462,326.5 -454,323.1 -432,313.5 		"/>
	</g>
	<g>
		<polygon class="st0" points="-454,329.9 -462,333.4 -467.2,335.6 -479.7,341 -479.7,408.8 -467.2,403.4 -462,401.1 -454,397.7 
			-424.2,384.7 -424.2,317 		"/>
	</g>
	<g>
		<polygon class="st0" points="-539.1,380 -486,408.4 -486,340.8 -539.1,312.4 		"/>
	</g>
</g>
<rect x="3.5" y="-412.8" class="st0" width="871.3" height="21.1"/>
</svg>
