<?xml version="1.0" encoding="utf-8"?>
<!-- Generator: Adobe Illustrator 27.9.0, SVG Export Plug-In . SVG Version: 6.00 Build 0)  -->
<svg version="1.1" id="Layer_1" xmlns="http://www.w3.org/2000/svg" xmlns:xlink="http://www.w3.org/1999/xlink" x="0px" y="0px"
	 viewBox="0 0 871.3 784.2" style="enable-background:new 0 0 871.3 784.2;" xml:space="preserve">
<style type="text/css">
	.st0{fill:#2D2D2D;}
</style>
<g>
	<path class="st0" d="M1792.9,1183.4c-29.2,0-58.4,0-87.6,0c-11.8,0-19.3-6.1-19.9-16c-0.7-10.4,6.8-19.5,17.6-21.2
		c1.6-0.3,3.3-0.2,4.9-0.2c57.3,0,114.6-0.1,171.9,0.1c28,0.1,52.5,19.3,59,45.6c6.8,27.6-5.1,56.2-30.1,68.6
		c-9,4.4-19.7,7.3-29.7,7.5c-50.5,0.7-101,0.5-151.4,0.3c-28.2-0.1-47.8-24.7-40.8-50.4c4.5-16.6,18.6-27.5,36.2-27.6
		c52.7-0.1,105.3-0.1,158,0c11.8,0,18.9,6.4,19.1,16.7c0.2,10.6-7.1,17.5-19.1,17.6c-47.7,0.1-145.8-0.4-148.2-0.4
		c-2.2,0-3.3,1.7-3.4,3.4c-0.1,1.5,1.6,3.3,3.4,3.3c50.5,0.2,98.7,0.3,149.2,0.1c14.7,0,24.8-10.2,24.7-23.8
		c-0.1-13.5-10.5-23.2-25.2-23.3C1851.8,1183.3,1822.3,1183.4,1792.9,1183.4z"/>
	<path class="st0" d="M1792.9,1313.2c-29.2,0-58.4,0-87.6,0c-11.8,0-19.3-6.1-19.9-16c-0.7-10.4,6.8-19.5,17.6-21.2
		c1.6-0.3,3.3-0.2,4.9-0.2c57.3,0,114.6-0.1,171.9,0.1c28,0.1,52.5,19.3,59,45.6c6.8,27.6-5.1,56.2-30.1,68.6
		c-9,4.4-19.7,7.3-29.7,7.5c-50.5,0.7-101,0.5-151.4,0.3c-28.2-0.1-47.8-24.7-40.8-50.4c4.5-16.6,18.6-27.5,36.2-27.6
		c52.7-0.1,105.3-0.1,158,0c11.8,0,18.9,6.4,19.1,16.7c0.2,10.6-7.1,17.5-19.1,17.6c-47.7,0.1-145.8-0.4-148.2-0.4
		c-2.2,0-3.3,1.7-3.4,3.4c-0.1,1.5,1.6,3.3,3.4,3.3c50.5,0.2,98.7,0.3,149.2,0.1c14.7,0,24.8-10.2,24.7-23.8
		c-0.1-13.5-10.5-23.2-25.2-23.3C1851.8,1313.2,1822.3,1313.2,1792.9,1313.2z"/>
</g>
<g>
	<g>
		<path class="st0" d="M288.8,1507.3c2-6.8,6.6-10.3,10.6-10.3c3.2,0,5.8,1.3,6.5,5.3c-0.3,3-1.6,5.4-5,5.4c-2.5,0-4.2-1.6-6-4
			l-0.6-0.8c-2.7,2.5-4.3,5.4-5.6,10.3v5.6c0,3.7,0.1,9.3,0.1,13.3l6.2,0.6v2.1h-21.8v-2.1l4.6-0.5c0.1-3.9,0.1-9.7,0.1-13.4v-5.6
			c0-4.4-0.1-6.6-0.2-9.8l-5-0.5v-1.6l14.6-4.2l0.9,0.7L288.8,1507.3z"/>
		<path class="st0" d="M341.2,1526.8c-2.8,5.8-8.1,9.1-15,9.1c-11.1,0-19.3-7-19.3-19.6s9.6-19.3,19.2-19.3
			c10.1,0,15.5,6.8,15.5,15.3c0,1.7-0.1,2.8-0.4,4.1h-22.8c0.3,10.5,5.4,14.8,11.7,14.8c4.7,0,7.6-2,9.8-5.1L341.2,1526.8z
			 M327.5,1513.9c3.2,0,4-1.5,4-5.7c0-5.8-2.5-8.9-6.1-8.9c-3.7,0-6.7,4.2-7,14.6H327.5z"/>
		<path class="st0" d="M369.9,1499.4c-0.7-0.1-1.3-0.1-1.9-0.1c-6,0-10.3,5.8-10.3,16.1c0,10,4.9,15.7,12.1,15.7
			c3.9,0,6.8-1.7,9.2-4.8l1.3,0.9c-3.1,5.6-8,8.7-15.3,8.7c-10.2,0-18.7-6.9-18.7-19.4s9.1-19.5,20.3-19.5c7.6,0,12.9,4.6,13.8,10.7
			c-0.7,2.4-2.1,3.6-4.4,3.6c-2.8,0-5.2-1.6-5.4-6.6L369.9,1499.4z"/>
		<path class="st0" d="M384.6,1516.2c0-11.9,8.5-19.3,19-19.3c10.6,0,19.1,7.2,19.1,19.3c0,12-7.6,19.7-19.1,19.7
			C392.2,1535.9,384.6,1528,384.6,1516.2z M411.1,1516.3c0-11.7-2.6-17-7.4-17s-7.5,5.3-7.5,17s2.7,17.2,7.5,17.2
			S411.1,1528,411.1,1516.3z"/>
		<path class="st0" d="M492,1532.6v2.1h-19v-2.1l4-0.4c0.1-3.9,0.1-9.6,0.1-13.5v-9.1c0-5.9-1.5-7.6-4.7-7.6c-2.5,0-5,1.4-7.5,4
			c0.2,1.2,0.3,2.5,0.3,3.9v8.9c0,4,0.1,9.7,0.2,13.6l3.8,0.3v2.1h-19v-2.1l4.3-0.4c0.1-3.9,0.1-9.6,0.1-13.5v-9.1
			c0-5.5-1.4-7.6-4.6-7.6c-2.4,0-5,1.5-7.4,3.9v12.8c0,3.8,0.1,9.6,0.1,13.6l3.8,0.3v2.1h-19.4v-2.1l4.5-0.4c0.1-4,0.1-9.7,0.1-13.5
			v-5.6c0-4.4-0.1-6.6-0.2-9.9l-5-0.5v-1.5l14.6-4.2l0.9,0.7l0.5,6c3.9-4.6,7.5-6.7,12.1-6.7c5,0,8.5,2.3,9.9,7
			c4.4-5.3,8.1-7,12.4-7c7.5,0,10.9,4.2,10.9,13.3v8.5c0,4,0.1,9.7,0.1,13.5L492,1532.6z"/>
		<path class="st0" d="M530.4,1526.8c-2.8,5.8-8.1,9.1-15,9.1c-11.1,0-19.3-7-19.3-19.6s9.6-19.3,19.2-19.3
			c10.1,0,15.5,6.8,15.5,15.3c0,1.7-0.1,2.8-0.4,4.1h-22.8c0.3,10.5,5.4,14.8,11.7,14.8c4.7,0,7.6-2,9.8-5.1L530.4,1526.8z
			 M516.7,1513.9c3.2,0,4-1.5,4-5.7c0-5.8-2.5-8.9-6.1-8.9c-3.7,0-6.7,4.2-7,14.6H516.7z"/>
		<path class="st0" d="M578.1,1532.6v2.1h-19.5v-2.1l4.2-0.4c0.1-3.9,0.1-9.6,0.1-13.5v-9.7c0-5.2-1.5-7.1-4.6-7.1
			c-2,0-4.8,1.3-7.6,3.8v12.9c0,3.8,0.1,9.6,0.1,13.6l3.8,0.3v2.1h-19.4v-2.1l4.5-0.4c0.1-4,0.1-9.7,0.1-13.5v-5.6
			c0-4.4-0.1-6.6-0.2-9.8l-5-0.5v-1.6l14.6-4.2l0.9,0.7l0.4,5.9c4.4-5.1,8.1-6.6,12.5-6.6c6.4,0,10.7,4.2,10.7,12.9v8.9
			c0,4,0.1,9.7,0.2,13.6L578.1,1532.6z"/>
		<path class="st0" d="M623.2,1532.6v2.1l-14.4,0.8l-0.5-4.2c-2.8,2.8-6.3,4.5-10.4,4.5c-8.8,0-15.7-7-15.7-19.2
			c0-12.6,7.4-19.7,16.6-19.7c3.9,0,7,1.5,9.6,4.6v-17l-5.5-0.5v-1.7l15.2-2.9l0.9,0.6l-0.3,10.7v41.7L623.2,1532.6z M608.1,1503.3
			c-1.6-1.3-3.3-1.7-5-1.7c-5.1,0-9.3,3.4-9.3,14.7c0,10.9,3.9,14.8,9.1,14.8c1.9,0,3.6-0.5,5.2-1.7V1503.3z"/>
	</g>
</g>
<g>
	<g>
		<path class="st0" d="M3026.1,1499.4c-0.7-0.1-1.3-0.1-1.9-0.1c-6,0-10.3,5.8-10.3,16.1c0,10,4.9,15.7,12.1,15.7
			c3.9,0,6.8-1.7,9.2-4.8l1.3,0.9c-3.1,5.6-8,8.7-15.3,8.7c-10.2,0-18.7-6.9-18.7-19.4s9.1-19.5,20.3-19.5c7.6,0,12.9,4.6,13.8,10.7
			c-0.7,2.4-2.1,3.6-4.4,3.6c-2.8,0-5.2-1.6-5.4-6.6L3026.1,1499.4z"/>
		<path class="st0" d="M3078.7,1530.6c-1.7,3.7-4.2,5.2-8.5,5.2c-4.4,0-6.9-2.2-7.9-5.8c-3.4,3.8-6,5.8-11.3,5.8
			c-5.8,0-9.8-3.5-9.8-9.1c0-6.1,3.5-9.4,14.3-12.5c1.9-0.5,4.2-1.1,6.6-1.7v-4.1c0-7-1.6-9.1-6.7-9.1c-0.9,0-1.8,0.1-2.8,0.3
			l-0.5,4.8c-0.2,4.6-2.5,6.4-5,6.4c-2.4,0-4.1-1.2-4.6-3.4c0.5-6.3,6.4-10.3,16.8-10.3c9.5,0,13.3,4.1,13.3,13.8v18
			c0,2.5,0.8,3.4,2.1,3.4c1,0,1.7-0.5,3-2.5L3078.7,1530.6z M3048.7,1500.5l-1.1,0.4L3048.7,1500.5z M3062,1514.3
			c-1.5,0.4-2.9,0.8-3.7,1.1c-4.7,1.9-7.2,5.1-7.2,10c0,4,1.9,5.9,5,5.9c1.8,0,3.4-0.9,5.8-3.1L3062,1514.3L3062,1514.3z"/>
		<path class="st0" d="M3106,1530.3c-2,3.6-5.4,5.6-10.5,5.6c-6.8,0-10.5-3.1-10.5-10.5c0-2.5,0.1-4.5,0.1-7.3v-17.2h-5.4v-2.1
			l6-0.7l3.5-10.7h6.9l-0.1,10.8h8.3v2.8h-8.3v25.4c0,3.6,1.7,5.2,4.4,5.2c1.7,0,2.8-0.7,4.6-2.1L3106,1530.3z"/>
		<path class="st0" d="M3146,1530.6c-1.7,3.7-4.2,5.2-8.5,5.2c-4.4,0-6.9-2.2-7.9-5.8c-3.4,3.8-6,5.8-11.3,5.8
			c-5.8,0-9.8-3.5-9.8-9.1c0-6.1,3.5-9.4,14.3-12.5c1.9-0.5,4.2-1.1,6.6-1.7v-4.1c0-7-1.6-9.1-6.7-9.1c-0.9,0-1.8,0.1-2.8,0.3
			l-0.5,4.8c-0.2,4.6-2.5,6.4-5,6.4c-2.4,0-4.1-1.2-4.6-3.4c0.5-6.3,6.4-10.3,16.8-10.3c9.5,0,13.3,4.1,13.3,13.8v18
			c0,2.5,0.8,3.4,2.1,3.4c1,0,1.7-0.5,3-2.5L3146,1530.6z M3116,1500.5l-1.1,0.4L3116,1500.5z M3129.3,1514.3
			c-1.5,0.4-2.9,0.8-3.7,1.1c-4.7,1.9-7.2,5.1-7.2,10c0,4,1.9,5.9,5,5.9c1.8,0,3.4-0.9,5.8-3.1L3129.3,1514.3L3129.3,1514.3z"/>
		<path class="st0" d="M3168.5,1532.6v2.1h-20.3v-2.1l4.6-0.4c0.1-4.4,0.1-9.2,0.1-13.5v-34.3l-4.9-0.5v-1.7l15-2.9l0.9,0.6
			l-0.3,10.8v28c0,4.4,0.1,9.1,0.2,13.5L3168.5,1532.6z"/>
		<path class="st0" d="M3172.9,1516.2c0-11.9,8.5-19.3,19-19.3c10.6,0,19.1,7.2,19.1,19.3c0,12-7.6,19.7-19.1,19.7
			C3180.4,1535.9,3172.9,1528,3172.9,1516.2z M3199.3,1516.3c0-11.7-2.6-17-7.4-17s-7.5,5.3-7.5,17s2.7,17.2,7.5,17.2
			S3199.3,1528,3199.3,1516.3z"/>
		<path class="st0" d="M3253.3,1502.9l-8.1-0.9c1.5,2,2.3,4.5,2.3,7.3c0,7-5,12.6-15.5,12.6c-3.2,0-6-0.5-8.2-1.5
			c-0.7,1.2-1.1,2.3-1.1,3.8c0,2.5,1.5,3.8,5.3,3.8h9.9c10.8,0,14.8,4.2,14.8,10.2c0,7.5-7.4,13.8-21.5,13.8
			c-12.2,0-16.2-4.2-16.2-9.1c0-3,2.2-5.6,6.7-7.3c-3-1.3-4.9-3.1-4.9-6.4s1.7-5.8,5.8-9.4c-4.1-2.2-6-6-6-10.5
			c0-7.2,5-12.4,15.6-12.4c5.2,0,8.9,1.3,11.5,3.4l8.6-3.4l1.2,0.7v5.3H3253.3z M3230.8,1537.1c-4,0-5.8-0.1-8-0.7
			c-1.1,1.5-1.7,3-1.7,5.2c0,4.9,3.7,7.6,9.8,7.6c8.9,0,13.1-2.8,13.1-6.6c0-2.9-1.5-5.4-5.8-5.4L3230.8,1537.1L3230.8,1537.1z
			 M3237.9,1509.4c0-6.6-2.2-10.4-5.9-10.4c-3.8,0-5.9,3.9-5.9,10.4s1.9,10.5,5.8,10.5C3235.7,1519.9,3237.9,1515.9,3237.9,1509.4z"
			/>
		<path class="st0" d="M3298.7,1532.8v2l-14.8,0.9l-0.3-6.7c-3.1,3.9-7.5,6.9-12.4,6.9c-6.7,0-10.9-3.6-10.8-13.8l0.3-19.9l-4.7-0.9
			v-1.8l14.9-2l0.9,0.7l-0.4,10.9v14.1c0,5.4,2.1,7,5.3,7c2.5,0,5-1.3,6.9-3.2l0.3-24.8l-4.5-0.9v-1.5l14.6-2.3l0.9,0.7l-0.3,10.9
			v23.5L3298.7,1532.8z"/>
		<path class="st0" d="M3337.2,1526.8c-2.8,5.8-8.1,9.1-15,9.1c-11.1,0-19.3-7-19.3-19.6s9.6-19.3,19.2-19.3
			c10.1,0,15.5,6.8,15.5,15.3c0,1.7-0.1,2.8-0.4,4.1h-22.8c0.3,10.5,5.4,14.8,11.7,14.8c4.7,0,7.6-2,9.8-5.1L3337.2,1526.8z
			 M3323.6,1513.9c3.2,0,4-1.5,4-5.7c0-5.8-2.5-8.9-6.1-8.9c-3.7,0-6.7,4.2-7,14.6H3323.6z"/>
	</g>
</g>
<g>
	<g>
		<path class="st0" d="M1642.3,1530.6c-1.7,3.7-4.2,5.2-8.5,5.2c-4.4,0-6.9-2.2-7.9-5.8c-3.4,3.8-6,5.8-11.3,5.8
			c-5.8,0-9.8-3.5-9.8-9.1c0-6.1,3.5-9.4,14.3-12.5c1.9-0.5,4.2-1.1,6.6-1.7v-4.1c0-7-1.6-9.1-6.7-9.1c-0.9,0-1.8,0.1-2.8,0.3
			l-0.5,4.8c-0.2,4.6-2.5,6.4-5,6.4c-2.4,0-4.1-1.2-4.6-3.4c0.5-6.3,6.4-10.3,16.8-10.3c9.5,0,13.3,4.1,13.3,13.8v18
			c0,2.5,0.8,3.4,2.1,3.4c1,0,1.7-0.5,3-2.5L1642.3,1530.6z M1612.3,1500.5l-1.1,0.4L1612.3,1500.5z M1625.6,1514.3
			c-1.5,0.4-2.9,0.8-3.7,1.1c-4.7,1.9-7.2,5.1-7.2,10c0,4,1.9,5.9,5,5.9c1.8,0,3.4-0.9,5.8-3.1L1625.6,1514.3L1625.6,1514.3z"/>
		<path class="st0" d="M1660,1501.7c3.3-3.2,7.2-4.7,11.3-4.7c8.4,0,14.9,6.8,14.9,19.3c0,11.1-6.2,19.6-15.7,19.6
			c-4,0-7.8-1.5-10.7-4.8l-1.4,4.6l-13.7-1v-2.1l4.4-0.4c0.1-3.9,0.1-9.7,0.1-13.5v-34.3l-4.9-0.5v-1.7l14.8-2.9l0.9,0.6l-0.2,10.8
			v11H1660z M1660.1,1529.2c1.7,1.3,3.6,1.9,5.6,1.9c4.7,0,8.9-2.8,8.9-15.1c0-10.5-3.7-14.4-8.7-14.4c-2.1,0-3.8,0.3-5.8,2V1529.2z
			"/>
		<path class="st0" d="M1691.4,1516.2c0-11.9,8.5-19.3,19-19.3c10.6,0,19.1,7.2,19.1,19.3c0,12-7.6,19.7-19.1,19.7
			C1698.9,1535.9,1691.4,1528,1691.4,1516.2z M1717.8,1516.3c0-11.7-2.6-17-7.4-17s-7.5,5.3-7.5,17s2.7,17.2,7.5,17.2
			S1717.8,1528,1717.8,1516.3z"/>
		<path class="st0" d="M1776.2,1532.8v2l-14.8,0.9l-0.3-6.7c-3.1,3.9-7.5,6.9-12.4,6.9c-6.7,0-10.9-3.6-10.8-13.8l0.3-19.9l-4.7-0.9
			v-1.8l14.9-2l0.9,0.7l-0.4,10.9v14.1c0,5.4,2.1,7,5.3,7c2.5,0,5-1.3,6.9-3.2l0.3-24.8l-4.5-0.9v-1.5l14.6-2.3l0.9,0.7l-0.3,10.9
			v23.5L1776.2,1532.8z"/>
		<path class="st0" d="M1805.4,1530.3c-2,3.6-5.4,5.6-10.5,5.6c-6.8,0-10.5-3.1-10.5-10.5c0-2.5,0.1-4.5,0.1-7.3v-17.2h-5.4v-2.1
			l6-0.7l3.5-10.7h6.9l-0.1,10.8h8.3v2.8h-8.3v25.4c0,3.6,1.7,5.2,4.4,5.2c1.7,0,2.8-0.7,4.6-2.1L1805.4,1530.3z"/>
		<path class="st0" d="M1849.1,1530.3c-2,3.6-5.4,5.6-10.5,5.6c-6.8,0-10.5-3.1-10.5-10.5c0-2.5,0.1-4.5,0.1-7.3v-17.2h-5.4v-2.1
			l6-0.7l3.5-10.7h6.9l-0.1,10.8h8.3v2.8h-8.3v25.4c0,3.6,1.7,5.2,4.4,5.2c1.7,0,2.8-0.7,4.6-2.1L1849.1,1530.3z"/>
		<path class="st0" d="M1851,1516.2c0-11.9,8.5-19.3,19-19.3c10.6,0,19.1,7.2,19.1,19.3c0,12-7.6,19.7-19.1,19.7
			C1858.6,1535.9,1851,1528,1851,1516.2z M1877.5,1516.3c0-11.7-2.6-17-7.4-17s-7.5,5.3-7.5,17s2.7,17.2,7.5,17.2
			S1877.5,1528,1877.5,1516.3z"/>
		<path class="st0" d="M1950.5,1500.1l-4.6,0.7l-11.9,34.1h-4.6c-5.2-14.5-7.6-21.3-9.2-26.6l-9.5,26.6h-4.6l-12.3-34.3l-3.6-0.4v-2
			h19.8v2l-5.2,0.5l7.5,24.5l7.9-24.4l-5.2-0.5v-2h17.5v2l-5.2,0.6l8.2,23.9l7.1-23.9l-6-0.7v-2h13.8L1950.5,1500.1L1950.5,1500.1z"
			/>
		<path class="st0" d="M1985.6,1526.8c-2.8,5.8-8.1,9.1-15,9.1c-11.1,0-19.3-7-19.3-19.6s9.6-19.3,19.2-19.3
			c10.1,0,15.5,6.8,15.5,15.3c0,1.7-0.1,2.8-0.4,4.1h-22.8c0.3,10.5,5.4,14.8,11.7,14.8c4.7,0,7.6-2,9.8-5.1L1985.6,1526.8z
			 M1971.9,1513.9c3.2,0,4-1.5,4-5.7c0-5.8-2.5-8.9-6.1-8.9c-3.7,0-6.7,4.2-7,14.6H1971.9z"/>
		<path class="st0" d="M2009.6,1532.6v2.1h-20.3v-2.1l4.6-0.4c0.1-4.4,0.1-9.2,0.1-13.5v-34.3l-4.9-0.5v-1.7l15-2.9l0.9,0.6
			l-0.3,10.8v28c0,4.4,0.1,9.1,0.2,13.5L2009.6,1532.6z"/>
	</g>
</g>
<g>
	<g>
		<path class="st0" d="M298.4,533.5l-4.6,0.7l-11.9,34.1h-4.6c-5.2-14.5-7.6-21.3-9.2-26.6l-9.5,26.6h-4.6L241.6,534l-3.6-0.4v-2
			h19.8v2l-5.2,0.5l7.5,24.5l7.9-24.4l-5.2-0.5v-2h17.5v2l-5.2,0.6l8.2,23.9l7.1-23.9l-6-0.7v-2h13.8v1.9H298.4z"/>
		<path class="st0" d="M337.1,564c-1.7,3.7-4.2,5.2-8.5,5.2c-4.4,0-6.9-2.2-7.9-5.8c-3.4,3.8-6,5.8-11.3,5.8c-5.8,0-9.8-3.5-9.8-9.1
			c0-6.1,3.5-9.4,14.3-12.5c1.9-0.5,4.2-1.1,6.6-1.7v-4.1c0-7-1.6-9.1-6.7-9.1c-0.9,0-1.8,0.1-2.8,0.3l-0.5,4.8
			c-0.2,4.6-2.5,6.4-5,6.4c-2.4,0-4.1-1.2-4.6-3.4c0.5-6.3,6.4-10.3,16.8-10.3c9.5,0,13.3,4.1,13.3,13.8v18c0,2.5,0.8,3.4,2.1,3.4
			c1,0,1.7-0.5,3-2.5L337.1,564z M307.1,533.9l-1.1,0.4L307.1,533.9z M320.4,547.7c-1.5,0.4-2.9,0.8-3.7,1.1
			c-4.7,1.9-7.2,5.1-7.2,10c0,4,1.9,5.9,5,5.9c1.8,0,3.4-0.9,5.8-3.1L320.4,547.7L320.4,547.7z"/>
		<path class="st0" d="M359.3,545.6c7,2.1,10.1,5.8,10.1,11.3c0,7.8-6.2,12.3-16.4,12.3c-5.2,0-9.3-1.1-13.3-3.4l0.5-9.1h4.3
			l2.1,8.9c1.7,0.7,3.4,1,5.5,1c5.1,0,7.9-1.8,7.9-5.5c0-2.8-1.3-4.8-6.6-6.5l-3.9-1.1c-6-1.9-9.6-5.3-9.6-11
			c0-7,5.5-12.1,15.4-12.1c4.5,0,7.9,1.1,11.9,3l-0.5,8.5h-3.8l-2.5-7.9c-1.4-0.7-2.8-1-4.8-1c-4.1,0-6.8,2.1-6.8,5.4
			c0,2.5,1.3,4.5,6.6,6.1L359.3,545.6z"/>
		<path class="st0" d="M415.3,566v2.1h-19.5V566l4.3-0.4c0.1-3.9,0.1-9.6,0.1-13.5v-9.7c0-5.2-1.9-7.1-4.9-7.1
			c-2.1,0-4.8,1.1-7.5,3.6V552c0,3.8,0.1,9.6,0.1,13.6l3.9,0.3v2.1h-19.4v-2l4.4-0.4c0.1-4,0.1-9.7,0.1-13.5v-34.3l-4.9-0.5v-1.7
			l14.8-2.9l0.9,0.6l-0.2,10.8v13c4-4.8,7.4-6.8,12.5-6.8c6.5,0,10.9,4,10.9,13.1v8.7c0,4,0.1,9.7,0.1,13.6L415.3,566z"/>
		<path class="st0" d="M439.1,566v2.1h-19.6V566l4.4-0.4c0.1-4,0.1-9.7,0.1-13.5v-5.4c0-4.3-0.1-6.8-0.2-10.2l-5-0.5v-1.6l15.4-4
			l0.9,0.7l-0.3,10.7v10.3c0,3.8,0.1,9.6,0.1,13.5L439.1,566z M423.5,518.3c0-3.2,2.6-5.5,5.8-5.5s5.8,2.3,5.8,5.5s-2.6,5.4-5.8,5.4
			C426.1,523.7,423.5,521.4,423.5,518.3z"/>
		<path class="st0" d="M486.1,566v2.1h-19.5V566l4.2-0.4c0.1-3.9,0.1-9.6,0.1-13.5v-9.7c0-5.2-1.5-7.1-4.6-7.1c-2,0-4.8,1.3-7.6,3.8
			V552c0,3.8,0.1,9.6,0.1,13.6l3.8,0.3v2.1h-19.4v-2l4.5-0.4c0.1-4,0.1-9.7,0.1-13.5v-5.6c0-4.4-0.1-6.6-0.2-9.8l-5-0.5v-1.6
			l14.6-4.2l0.9,0.7l0.4,5.9c4.4-5.1,8.1-6.6,12.5-6.6c6.4,0,10.7,4.2,10.7,12.9v8.9c0,4,0.1,9.7,0.2,13.6L486.1,566z"/>
		<path class="st0" d="M527.8,536.3l-8.1-0.9c1.5,2,2.3,4.5,2.3,7.3c0,7-5,12.6-15.5,12.6c-3.2,0-6-0.5-8.2-1.5
			c-0.7,1.2-1.1,2.3-1.1,3.8c0,2.5,1.5,3.8,5.3,3.8h9.9c10.8,0,14.8,4.2,14.8,10.2c0,7.5-7.4,13.8-21.5,13.8
			c-12.2,0-16.2-4.2-16.2-9.1c0-3,2.2-5.6,6.7-7.3c-3-1.3-4.9-3.1-4.9-6.4s1.7-5.8,5.8-9.4c-4.1-2.2-6-6-6-10.5
			c0-7.2,5-12.4,15.6-12.4c5.2,0,8.9,1.3,11.5,3.4l8.6-3.4l1.2,0.7v5.3H527.8z M505.3,570.5c-4,0-5.8-0.1-8-0.7
			c-1.1,1.5-1.7,3-1.7,5.2c0,4.9,3.7,7.6,9.8,7.6c8.9,0,13.1-2.8,13.1-6.6c0-2.9-1.5-5.4-5.8-5.4L505.3,570.5L505.3,570.5z
			 M512.5,542.8c0-6.6-2.2-10.4-5.9-10.4c-3.8,0-5.9,3.9-5.9,10.4s1.9,10.5,5.8,10.5C510.3,553.3,512.5,549.3,512.5,542.8z"/>
		<path class="st0" d="M572.7,563.7c-2,3.6-5.4,5.6-10.5,5.6c-6.8,0-10.5-3.1-10.5-10.5c0-2.5,0.1-4.5,0.1-7.3v-17.2h-5.4v-2.1
			l6-0.7l3.5-10.7h6.9l-0.1,10.8h8.3v2.8h-8.3v25.4c0,3.6,1.7,5.2,4.4,5.2c1.7,0,2.8-0.7,4.6-2.1L572.7,563.7z"/>
		<path class="st0" d="M594.6,566v2.1h-19.6V566l4.4-0.4c0.1-4,0.1-9.7,0.1-13.5v-5.4c0-4.3-0.1-6.8-0.2-10.2l-5-0.5v-1.6l15.4-4
			l0.9,0.7l-0.3,10.7v10.3c0,3.8,0.1,9.6,0.1,13.5L594.6,566z M578.9,518.3c0-3.2,2.6-5.5,5.8-5.5s5.8,2.3,5.8,5.5s-2.6,5.4-5.8,5.4
			C581.6,523.7,578.9,521.4,578.9,518.3z"/>
		<path class="st0" d="M613.8,535.4c3.2-3.5,7.1-5,11.5-5c8.2,0,14.7,6.8,14.7,19.3c0,12.2-7.4,19.7-16.3,19.7c-3.7,0-7-1.3-9.9-4.6
			v4c0,4,0.1,9.1,0.1,14.4l5.2,0.6v1.9h-20.6v-1.9l4.5-0.5c0.1-5.3,0.1-10.4,0.1-14.5v-21.9c0-4.4-0.1-6.6-0.2-9.9l-5-0.5v-1.6
			l14.4-4.2l0.9,0.7L613.8,535.4z M614.1,562.8c1.7,1.3,3.4,1.7,5.6,1.7c5.2,0,8.9-3.6,8.9-14.8c0-10.9-3.2-14.7-8.5-14.7
			c-2,0-3.8,0.3-6,2.3V562.8z"/>
	</g>
</g>
<g>
	<g>
		<path class="st0" d="M-1386.8,535.4c3.2-3.5,7.1-5,11.5-5c8.2,0,14.7,6.8,14.7,19.3c0,12.2-7.4,19.7-16.3,19.7
			c-3.7,0-7-1.3-9.9-4.6v4c0,4,0.1,9.1,0.1,14.4l5.2,0.6v1.9h-20.6v-1.9l4.5-0.5c0.1-5.3,0.1-10.4,0.1-14.5v-21.9
			c0-4.4-0.1-6.6-0.2-9.9l-5-0.5v-1.6l14.4-4.2l0.9,0.7L-1386.8,535.4z M-1386.5,562.8c1.7,1.3,3.4,1.7,5.6,1.7
			c5.2,0,8.9-3.6,8.9-14.8c0-10.9-3.2-14.7-8.5-14.7c-2,0-3.8,0.3-6,2.3V562.8z"/>
		<path class="st0" d="M-1340.5,540.7c2-6.8,6.6-10.3,10.6-10.3c3.2,0,5.8,1.3,6.5,5.3c-0.3,3-1.6,5.4-5,5.4c-2.5,0-4.2-1.6-6-4
			l-0.6-0.8c-2.7,2.5-4.3,5.4-5.6,10.3v5.6c0,3.7,0.1,9.3,0.1,13.3l6.2,0.6v2.1h-21.8V566l4.6-0.5c0.1-3.9,0.1-9.7,0.1-13.4v-5.6
			c0-4.4-0.1-6.6-0.2-9.8l-5-0.5v-1.6l14.6-4.2l0.9,0.7L-1340.5,540.7z"/>
		<path class="st0" d="M-1301.2,566v2.1h-19.6V566l4.4-0.4c0.1-4,0.1-9.7,0.1-13.5v-5.4c0-4.3-0.1-6.8-0.2-10.2l-5-0.5v-1.6l15.4-4
			l0.9,0.7l-0.3,10.7v10.3c0,3.8,0.1,9.6,0.1,13.5L-1301.2,566z M-1316.8,518.3c0-3.2,2.6-5.5,5.8-5.5c3.2,0,5.8,2.3,5.8,5.5
			s-2.6,5.4-5.8,5.4C-1314.2,523.7-1316.8,521.4-1316.8,518.3z"/>
		<path class="st0" d="M-1254.2,566v2.1h-19.5V566l4.2-0.4c0.1-3.9,0.1-9.6,0.1-13.5v-9.7c0-5.2-1.5-7.1-4.6-7.1
			c-2,0-4.8,1.3-7.6,3.8V552c0,3.8,0.1,9.6,0.1,13.6l3.8,0.3v2.1h-19.4v-2l4.5-0.4c0.1-4,0.1-9.7,0.1-13.5v-5.6
			c0-4.4-0.1-6.6-0.2-9.8l-5-0.5v-1.6l14.6-4.2l0.9,0.7l0.4,5.9c4.4-5.1,8.1-6.6,12.5-6.6c6.4,0,10.7,4.2,10.7,12.9v8.9
			c0,4,0.1,9.7,0.2,13.6L-1254.2,566z"/>
		<path class="st0" d="M-1225.4,563.7c-2,3.6-5.4,5.6-10.5,5.6c-6.8,0-10.5-3.1-10.5-10.5c0-2.5,0.1-4.5,0.1-7.3v-17.2h-5.4v-2.1
			l6-0.7l3.5-10.7h6.9l-0.1,10.8h8.3v2.8h-8.3v25.4c0,3.6,1.7,5.2,4.4,5.2c1.7,0,2.8-0.7,4.6-2.1L-1225.4,563.7z"/>
		<path class="st0" d="M-1161.9,538.6c-1.9,7-3.8,11.3-8.1,16.9c3,3.2,6,6.2,10,10.3l3,0.4l-0.1,1.9c-3.2,0.7-4.8,1-6.9,1
			c-4.2,0-7.3-0.9-10.4-3.7c-1-0.9-1.9-1.9-2.9-2.8c-3.1,3.6-7.8,6.6-14.2,6.6c-10.1,0-15.4-6.2-15.4-13.3c0-5.8,3.4-10.5,11.9-14.2
			l-0.9-1.1c-3.4-4.3-4.6-7.9-4.6-11.7c0-7.2,5.6-11.8,13.9-11.8s12.8,4,12.8,9.8c0,5.2-3.8,8.9-11.4,12.1c1.4,1.6,3.3,3.6,5.8,6.4
			c3.2,3.4,5.6,6.2,8,8.7c2.5-4.7,4-9.7,4.8-15.4l-6.2-0.9v-1.9h16.3v1.9L-1161.9,538.6z M-1178.5,561.2c-2.8-3.1-5.4-6.2-7.7-9
			c-3.6-4.4-5.8-7-7.6-9.3c-2.8,3-3.8,6.2-3.8,9.5c0,6.8,4.7,11.3,11.2,11.3C-1183.4,563.6-1180.8,562.8-1178.5,561.2z M-1192.3,526
			c0,2.4,0.6,4.6,2.9,7.8c0.9,1.2,1.8,2.3,3.2,3.8c3.2-3.6,5.1-7.2,5.1-11.3c0-4.2-2-6.5-5.4-6.5
			C-1190,519.9-1192.3,522.4-1192.3,526z"/>
		<path class="st0" d="M-1120.2,535.4c3.2-3.5,7.1-5,11.5-5c8.2,0,14.7,6.8,14.7,19.3c0,12.2-7.4,19.7-16.3,19.7
			c-3.7,0-7-1.3-9.9-4.6v4c0,4,0.1,9.1,0.1,14.4l5.2,0.6v1.9h-20.6v-1.9l4.5-0.5c0.1-5.3,0.1-10.4,0.1-14.5v-21.9
			c0-4.4-0.1-6.6-0.2-9.9l-5-0.5v-1.6l14.4-4.2l0.9,0.7L-1120.2,535.4z M-1119.9,562.8c1.7,1.3,3.4,1.7,5.6,1.7
			c5.2,0,8.9-3.6,8.9-14.8c0-10.9-3.2-14.7-8.5-14.7c-2,0-3.8,0.3-6,2.3V562.8z"/>
		<path class="st0" d="M-1051.8,564c-1.7,3.7-4.2,5.2-8.5,5.2c-4.4,0-6.9-2.2-7.9-5.8c-3.4,3.8-6,5.8-11.3,5.8
			c-5.8,0-9.8-3.5-9.8-9.1c0-6.1,3.5-9.4,14.3-12.5c1.9-0.5,4.2-1.1,6.6-1.7v-4.1c0-7-1.6-9.1-6.7-9.1c-0.9,0-1.8,0.1-2.8,0.3
			l-0.5,4.8c-0.2,4.6-2.5,6.4-5,6.4c-2.4,0-4.1-1.2-4.6-3.4c0.5-6.3,6.4-10.3,16.8-10.3c9.5,0,13.3,4.1,13.3,13.8v18
			c0,2.5,0.8,3.4,2.1,3.4c1,0,1.7-0.5,3-2.5L-1051.8,564z M-1081.8,533.9l-1.1,0.4L-1081.8,533.9z M-1068.6,547.7
			c-1.5,0.4-2.9,0.8-3.7,1.1c-4.7,1.9-7.2,5.1-7.2,10c0,4,1.9,5.9,5,5.9c1.8,0,3.4-0.9,5.8-3.1L-1068.6,547.7L-1068.6,547.7z"/>
		<path class="st0" d="M-1006.9,566v2.1h-14.6l-9.5-19.7l-3,2.8v0.5c0,4,0.1,10.1,0.1,14l4.2,0.4v2.1h-19.8V566l4.5-0.4
			c0.1-3.9,0.1-10,0.1-13.5v-34.3l-4.9-0.5v-1.7l15-2.9l0.9,0.6l-0.3,10.8v24.2l14.5-14l-6.8-0.8v-2h17.5v2l-6.6,0.7l-8,7.4
			l12.2,23.9L-1006.9,566z"/>
		<path class="st0" d="M-966.7,564c-1.7,3.7-4.2,5.2-8.5,5.2c-4.4,0-6.9-2.2-7.9-5.8c-3.4,3.8-6,5.8-11.3,5.8
			c-5.8,0-9.8-3.5-9.8-9.1c0-6.1,3.5-9.4,14.3-12.5c1.9-0.5,4.2-1.1,6.6-1.7v-4.1c0-7-1.6-9.1-6.7-9.1c-0.9,0-1.8,0.1-2.8,0.3
			l-0.5,4.8c-0.2,4.6-2.5,6.4-5,6.4c-2.4,0-4.1-1.2-4.6-3.4c0.5-6.3,6.4-10.3,16.8-10.3c9.5,0,13.3,4.1,13.3,13.8v18
			c0,2.5,0.8,3.4,2.1,3.4c1,0,1.7-0.5,3-2.5L-966.7,564z M-996.7,533.9l-1.1,0.4L-996.7,533.9z M-983.4,547.7
			c-1.5,0.4-2.9,0.8-3.7,1.1c-4.7,1.9-7.2,5.1-7.2,10c0,4,1.9,5.9,5,5.9c1.8,0,3.4-0.9,5.8-3.1L-983.4,547.7L-983.4,547.7z"/>
		<path class="st0" d="M-927.1,536.3l-8.1-0.9c1.5,2,2.3,4.5,2.3,7.3c0,7-5,12.6-15.5,12.6c-3.2,0-6-0.5-8.2-1.5
			c-0.7,1.2-1.1,2.3-1.1,3.8c0,2.5,1.5,3.8,5.3,3.8h9.9c10.8,0,14.8,4.2,14.8,10.2c0,7.5-7.4,13.8-21.5,13.8
			c-12.2,0-16.2-4.2-16.2-9.1c0-3,2.2-5.6,6.7-7.3c-3-1.3-4.9-3.1-4.9-6.4s1.7-5.8,5.8-9.4c-4.1-2.2-6-6-6-10.5
			c0-7.2,5-12.4,15.6-12.4c5.2,0,8.9,1.3,11.5,3.4l8.6-3.4l1.2,0.7v5.3H-927.1z M-949.5,570.5c-4,0-5.8-0.1-8-0.7
			c-1.1,1.5-1.7,3-1.7,5.2c0,4.9,3.7,7.6,9.8,7.6c8.9,0,13.1-2.8,13.1-6.6c0-2.9-1.5-5.4-5.8-5.4L-949.5,570.5L-949.5,570.5z
			 M-942.4,542.8c0-6.6-2.2-10.4-5.9-10.4c-3.8,0-5.9,3.9-5.9,10.4s1.9,10.5,5.8,10.5C-944.6,553.3-942.4,549.3-942.4,542.8z"/>
		<path class="st0" d="M-890.6,560.2c-2.8,5.8-8.1,9.1-15,9.1c-11.1,0-19.3-7-19.3-19.6s9.6-19.3,19.2-19.3
			c10.1,0,15.5,6.8,15.5,15.3c0,1.7-0.1,2.8-0.4,4.1h-22.8c0.3,10.5,5.4,14.8,11.7,14.8c4.7,0,7.6-2,9.8-5.1L-890.6,560.2z
			 M-904.2,547.3c3.2,0,4-1.5,4-5.7c0-5.8-2.5-8.9-6.1-8.9c-3.7,0-6.7,4.2-7,14.6L-904.2,547.3z"/>
	</g>
</g>
<g>
	<path class="st0" d="M-1130.7,247.7c0,0,4.7-60.4,36.3-63.2c21.4-1.9,36.3,21.8,36.3,21.8s0,21.7-23.9,34.2
		c-23.9,12.4-28.3,7.1-28.3,7.1s23-30.4,23.6-44.1s-9.9-18.6-17.1-11.5s-16.2,12.4-22.4,55.3L-1130.7,247.7z"/>
	<path class="st0" d="M-1134.4,247.7c0,0-4.7-60.4-36.3-63.2c-21.4-1.9-36.3,21.8-36.3,21.8s0,21.7,23.9,34.2
		c23.9,12.4,28.3,7.1,28.3,7.1s-23-30.4-23.6-44.1s9.9-18.6,17.1-11.5s16.2,12.4,22.4,55.3L-1134.4,247.7z"/>
	<path class="st0" d="M-1218.7,310.1c-5.1,0-9.3,4.2-9.3,9.3v120.9c0,5.1,4.2,9.3,9.3,9.3h71.7V310.1H-1218.7z"/>
	<path class="st0" d="M-1046.4,449.6c5.1,0,9.3-4.2,9.3-9.3V319.4c0-5.1-4.2-9.3-9.3-9.3h-71.7v139.5L-1046.4,449.6L-1046.4,449.6z"
		/>
	<path class="st0" d="M-1229.1,254.2c-5.8,0-10.5,4.7-10.5,10.5v27c0,5.8,4.7,10.5,10.5,10.5h82v-48H-1229.1z"/>
	<path class="st0" d="M-1036,254.2h-82v48h82c5.8,0,10.5-4.7,10.5-10.5v-26.9C-1025.5,258.9-1030.2,254.2-1036,254.2z"/>
</g>
<g>
	<g>
		<path class="st0" d="M376.7,201.6v13.4c0,1.4-1.2,2.6-2.6,2.6c-1.4,0-2.6-1.2-2.6-2.6v-13.2c-5.1,1.4-8.9,6.1-8.9,11.7
			c0,6.6,5.4,12,12,12c6.6,0,12-5.4,12-12C386.7,207.6,382.4,202.6,376.7,201.6z"/>
		<path class="st0" d="M538.1,242.6v-46.6c0-5.2-4.2-9.4-9.4-9.4h-70.2v56.2L538.1,242.6L538.1,242.6z M477.1,200.5H520
			c1.4,0,2.6,1.2,2.6,2.6c0,1.4-1.2,2.6-2.6,2.6h-42.9c-1.4,0-2.6-1.2-2.6-2.6C474.5,201.7,475.6,200.5,477.1,200.5z M477.1,216.2
			H520c1.4,0,2.6,1.2,2.6,2.6s-1.2,2.6-2.6,2.6h-42.9c-1.4,0-2.6-1.2-2.6-2.6S475.6,216.2,477.1,216.2z"/>
		<path class="st0" d="M339.9,429.8c0,5.2,4.2,9.4,9.4,9.4h179.3c5.2,0,9.4-4.2,9.4-9.4v-182H339.9V429.8z M442.5,273
			c34.3,1.8,62.2,29.7,64,64c2.1,40.1-30.9,73-71.1,71.1c-34.3-1.8-62.2-29.7-64-64C369.5,303.9,402.4,271,442.5,273z"/>
		<path class="st0" d="M439,397.4c16,0,30.4-6.6,40.8-17.3c0.3-0.3,0.6-0.6,0.8-0.9c2.5-2.7,1.7-7-1.6-8.6l-10.7-5.2
			c-1.9-0.9-3.1-2.8-3.1-4.9v-10.3V324c0-2.2,1.4-4.3,3.5-5l12.9-4.9c3.4-1.3,4.7-5.5,2.4-8.3c-10.4-13.4-26.7-22-45-22
			c-31.4,0-56.9,25.5-56.9,56.9c0,0.7,0,1.3,0.1,2C383.3,373.1,408.3,397.4,439,397.4z M387.4,339.5c6.3-3.5,16-7.6,27.5-9.3
			c21.3-3.1,20.5,12.8,34.4,18.9c0,0,3,1.3,7.4,1.8c2,0.2,3.4,1.8,3.4,3.7v9.4c0,2,1.1,3.8,3,4.7l13.8,6.6l0.3,0.1
			c-0.3,0.4-0.7,0.7-1,1c-12,12.3-29,17.9-46.5,14.8c-23.9-4.2-41.3-25-42.2-49.3v-0.1c0-0.5,0-1,0-1.5
			C387.4,340.1,387.4,339.8,387.4,339.5z"/>
		<path class="st0" d="M453.2,186.5H349.4c-5.2,0-9.4,4.2-9.4,9.4v46.6h113.3L453.2,186.5L453.2,186.5z M374.7,230.8
			c-9.5,0-17.3-7.7-17.3-17.3c0-9.5,7.7-17.3,17.3-17.3s17.3,7.7,17.3,17.3C391.9,223.1,384.2,230.8,374.7,230.8z"/>
	</g>
</g>
<g>
	<path class="st0" d="M533.1,1117.8H367.5c-30.2,0-55,24.7-55,55v21.7c0,29.8,24,54.2,53.7,54.9l51.2,51.2v-51.1h115.8
		c30.2,0,55-24.7,55-55v-21.7C588.1,1142.5,563.4,1117.8,533.1,1117.8z M403.6,1199.4c-8.7,0-15.7-7-15.7-15.7s7-15.7,15.7-15.7
		s15.7,7,15.7,15.7C419.2,1192.4,412.2,1199.4,403.6,1199.4z M450.3,1199.4c-8.7,0-15.7-7-15.7-15.7s7-15.7,15.7-15.7
		s15.7,7,15.7,15.7S458.9,1199.4,450.3,1199.4z M497,1199.4c-8.7,0-15.7-7-15.7-15.7s7-15.7,15.7-15.7s15.7,7,15.7,15.7
		S505.7,1199.4,497,1199.4z"/>
	<path class="st0" d="M582.1,1330.6v55.4c0,0-27-6.1-78.1,13.6s-68.8,28.2-81.6,26.1c-12.8-2-90.3-33.4-90.3-33.4s-13.9-7-8.4-16.3
		s16-6.1,31.4-0.6s60.2,20.3,60.2,20.3l53-24.4l23.8-1.2c0,0-37.4-7.8-50.2-9.6c-12.8-1.7-47-5.2-49.6-15.4
		c-2.6-10.2,2.9-20.6,19.7-18s20.9,6.4,56.9-2.9s62.1-5.5,74.9,0S559.8,1332.6,582.1,1330.6z"/>
	<path class="st0" d="M420.6,1387.7l15.5-6.7c0,0-28.5-19.6-31.3-21.3c-2.8-1.7-9.6-4.3-14.1,0s-2.6,7.8-2.6,7.8L420.6,1387.7z"/>
	<path class="st0" d="M417.4,1389.8l-50.5-30.6c0,0-8.9-4.5-13.6-0.3c-4.6,4.2-6.5,9.9,0,12.3s53.1,18.5,56.5,19
		C413.2,1390.7,417.4,1389.8,417.4,1389.8z"/>
</g>
<g>
	<path class="st0" d="M3166.8,1264.9h107.1c0.4,0,0.7-0.3,0.7-0.7v-41.8c0-0.4-0.3-0.7-0.7-0.7h-107.1c-0.4,0-0.7,0.3-0.7,0.7v41.8
		C3166.1,1264.5,3166.4,1264.9,3166.8,1264.9z"/>
	<path class="st0" d="M3166.5,1330.3h50c0.4,0,0.7-0.3,0.7-0.7v-26.9c0-0.4-0.3-0.7-0.7-0.7h-50c-0.4,0-0.7,0.3-0.7,0.7v26.9
		C3165.8,1330,3166.1,1330.3,3166.5,1330.3z"/>
	<path class="st0" d="M3209.3,1177.3v-45.5c0-0.8-0.1-1.6-0.3-2.3l-57.7,47.8H3209.3z"/>
	<path class="st0" d="M3138.8,1191.7v214.1c0,4.9,3.9,8.8,8.8,8.8h144.5c4.9,0,8.8-3.9,8.8-8.8v-214.1c0-4.9-3.9-8.8-8.8-8.8h-144.5
		c-1.8,0-3.4,0.5-4.8,1.5l-1.5,1.2C3139.8,1187.1,3138.8,1189.3,3138.8,1191.7z M3223.2,1381.3c0,3.5-2.8,6.3-6.3,6.3h-50
		c-3.5,0-6.3-2.8-6.3-6.3v-26.9c0-3.5,2.8-6.3,6.3-6.3h50c3.5,0,6.3,2.8,6.3,6.3V1381.3z M3244.4,1313.3h32.7c1.5,0,2.8,1.3,2.8,2.8
		s-1.3,2.8-2.8,2.8h-32.7c-1.5,0-2.8-1.3-2.8-2.8C3241.6,1314.6,3242.9,1313.3,3244.4,1313.3z M3241.6,1302.4c0-1.5,1.3-2.8,2.8-2.8
		h32.7c1.5,0,2.8,1.3,2.8,2.8s-1.3,2.8-2.8,2.8h-32.7C3242.9,1305.2,3241.6,1304,3241.6,1302.4z M3244.4,1327h32.7
		c1.5,0,2.8,1.3,2.8,2.8s-1.3,2.8-2.8,2.8h-32.7c-1.5,0-2.8-1.3-2.8-2.8S3242.9,1327,3244.4,1327z M3277.4,1384.3h-32.7
		c-1.5,0-2.8-1.3-2.8-2.8s1.3-2.8,2.8-2.8h32.7c1.5,0,2.8,1.3,2.8,2.8C3280.2,1383.1,3279,1384.3,3277.4,1384.3z M3277.4,1370.7
		h-32.7c-1.5,0-2.8-1.3-2.8-2.8s1.3-2.8,2.8-2.8h32.7c1.5,0,2.8,1.3,2.8,2.8S3279,1370.7,3277.4,1370.7z M3277.4,1357h-32.7
		c-1.5,0-2.8-1.3-2.8-2.8s1.3-2.8,2.8-2.8h32.7c1.5,0,2.8,1.3,2.8,2.8C3280.2,1355.8,3279,1357,3277.4,1357z M3160.5,1222.3
		c0-3.5,2.8-6.3,6.3-6.3h107.1c3.5,0,6.3,2.8,6.3,6.3v41.8c0,3.5-2.8,6.3-6.3,6.3h-107.1c-3.5,0-6.3-2.8-6.3-6.3V1222.3z
		 M3160.2,1302.7c0-3.5,2.8-6.3,6.3-6.3h50c3.5,0,6.3,2.8,6.3,6.3v26.9c0,3.5-2.8,6.3-6.3,6.3h-50c-3.5,0-6.3-2.8-6.3-6.3V1302.7z"
		/>
	<path class="st0" d="M3216.8,1353.7h-50c-0.4,0-0.7,0.3-0.7,0.7v26.9c0,0.4,0.3,0.7,0.7,0.7h50c0.4,0,0.7-0.3,0.7-0.7v-26.9
		C3217.6,1354,3217.2,1353.7,3216.8,1353.7z"/>
	<path class="st0" d="M3139.5,1179.8l66.8-55.3c-1.8-1.8-4.3-2.9-7.1-2.9h-147.4c-5.6,0-10.1,4.5-10.1,10.1v217
		c0,5.6,4.5,10.1,10.1,10.1h81.5v-167.3C3133.2,1186.7,3135.7,1182.4,3139.5,1179.8z M3110.5,1315.2h-46c-1.5,0-2.8-1.3-2.8-2.8
		s1.3-2.8,2.8-2.8h46c1.5,0,2.8,1.3,2.8,2.8C3113.3,1313.9,3112.1,1315.2,3110.5,1315.2z M3110.5,1282h-46c-1.5,0-2.8-1.3-2.8-2.8
		s1.3-2.8,2.8-2.8h46c1.5,0,2.8,1.3,2.8,2.8S3112.1,1282,3110.5,1282z M3110.5,1248.9h-46c-1.5,0-2.8-1.3-2.8-2.8s1.3-2.8,2.8-2.8
		h46c1.5,0,2.8,1.3,2.8,2.8C3113.3,1247.7,3112.1,1248.9,3110.5,1248.9z M3110.5,1215.8h-46c-1.5,0-2.8-1.3-2.8-2.8s1.3-2.8,2.8-2.8
		h46c1.5,0,2.8,1.3,2.8,2.8S3112.1,1215.8,3110.5,1215.8z"/>
	<path class="st0" d="M3141.3,1185.5l1.5-1.2C3142.2,1184.7,3141.8,1185.1,3141.3,1185.5z"/>
</g>
<g>
	<g>
		<path class="st0" d="M-655,545.3c3.2-3.5,7.1-5,11.5-5c8.2,0,14.7,6.8,14.7,19.3c0,12.2-7.4,19.7-16.3,19.7c-3.7,0-7-1.3-9.9-4.6
			v4c0,4,0.1,9.1,0.1,14.4l5.2,0.6v1.9h-20.5v-1.9l4.5-0.5c0.1-5.3,0.1-10.4,0.1-14.5v-21.9c0-4.4-0.1-6.6-0.2-9.9l-5-0.5v-1.6
			l14.4-4.2l0.9,0.7L-655,545.3z M-654.7,572.7c1.7,1.3,3.4,1.7,5.6,1.7c5.2,0,8.9-3.6,8.9-14.8c0-10.9-3.2-14.7-8.5-14.7
			c-2,0-3.8,0.3-6,2.3V572.7z"/>
		<path class="st0" d="M-608.7,550.6c2-6.8,6.6-10.3,10.6-10.3c3.2,0,5.8,1.3,6.5,5.3c-0.3,3-1.6,5.4-5,5.4c-2.5,0-4.2-1.6-6-4
			l-0.6-0.8c-2.7,2.5-4.3,5.4-5.6,10.3v5.6c0,3.7,0.1,9.3,0.1,13.3l6.2,0.6v2.1h-21.7V576l4.6-0.5c0.1-3.9,0.1-9.7,0.1-13.4v-5.6
			c0-4.4-0.1-6.6-0.2-9.8l-5-0.5v-1.6l14.6-4.2l0.9,0.7L-608.7,550.6z"/>
		<path class="st0" d="M-590.5,559.5c0-11.9,8.5-19.3,19-19.3c10.6,0,19.1,7.2,19.1,19.3c0,12-7.6,19.7-19.1,19.7
			S-590.5,571.3-590.5,559.5z M-564.1,559.6c0-11.7-2.6-17-7.4-17c-4.8,0-7.5,5.3-7.5,17s2.7,17.2,7.5,17.2
			C-566.7,576.8-564.1,571.3-564.1,559.6z"/>
		<path class="st0" d="M-523.7,542.7c-0.7-0.1-1.3-0.1-1.9-0.1c-6,0-10.3,5.8-10.3,16.1c0,10,4.9,15.7,12.1,15.7
			c3.9,0,6.8-1.7,9.2-4.8l1.3,0.9c-3.1,5.6-8,8.7-15.3,8.7c-10.2,0-18.7-6.9-18.7-19.4s9.1-19.5,20.3-19.5c7.6,0,12.9,4.6,13.8,10.7
			c-0.7,2.4-2.1,3.6-4.4,3.6c-2.8,0-5.2-1.6-5.4-6.6L-523.7,542.7z"/>
		<path class="st0" d="M-474.7,570.1c-2.8,5.8-8.1,9.1-15,9.1c-11.1,0-19.3-7-19.3-19.6s9.6-19.3,19.2-19.3
			c10.1,0,15.5,6.8,15.5,15.3c0,1.7-0.1,2.8-0.4,4.1h-22.8c0.3,10.5,5.4,14.8,11.7,14.8c4.7,0,7.6-2,9.8-5.1L-474.7,570.1z
			 M-488.3,557.2c3.2,0,4-1.5,4-5.7c0-5.8-2.5-8.9-6.1-8.9c-3.7,0-6.7,4.2-7,14.6L-488.3,557.2z"/>
		<path class="st0" d="M-449.8,555.5c7,2.1,10.1,5.8,10.1,11.3c0,7.8-6.2,12.3-16.4,12.3c-5.2,0-9.3-1.1-13.3-3.4l0.5-9.1h4.3
			l2.1,8.9c1.7,0.7,3.4,1,5.5,1c5.1,0,7.9-1.8,7.9-5.5c0-2.8-1.3-4.8-6.6-6.5l-3.9-1.1c-6-1.9-9.6-5.3-9.6-11
			c0-7,5.5-12.1,15.4-12.1c4.5,0,7.9,1.1,11.9,3l-0.5,8.5h-3.8l-2.5-7.9c-1.4-0.7-2.8-1-4.8-1c-4.1,0-6.8,2.1-6.8,5.4
			c0,2.5,1.3,4.5,6.6,6.1L-449.8,555.5z"/>
		<path class="st0" d="M-415.5,555.5c7,2.1,10.1,5.8,10.1,11.3c0,7.8-6.2,12.3-16.4,12.3c-5.2,0-9.3-1.1-13.3-3.4l0.5-9.1h4.3
			l2.1,8.9c1.7,0.7,3.4,1,5.5,1c5.1,0,7.9-1.8,7.9-5.5c0-2.8-1.3-4.8-6.6-6.5l-3.9-1.1c-6-1.9-9.6-5.3-9.6-11
			c0-7,5.5-12.1,15.4-12.1c4.5,0,7.9,1.1,11.9,3l-0.5,8.5h-3.8l-2.5-7.9c-1.4-0.7-2.8-1-4.8-1c-4.1,0-6.8,2.1-6.8,5.4
			c0,2.5,1.3,4.5,6.6,6.1L-415.5,555.5z"/>
	</g>
</g>
<g>
	<g>
		<path class="st0" d="M-545.4,383.8v-74.7l-0.3-0.2l65.3-28.4l13.2,7.1v-63.9c0-2.3-1.8-4.1-4.1-4.1H-496v8.9
			c0,4.6-3.7,8.3-8.3,8.3h-97.6c-4.6,0-8.3-3.7-8.3-8.3v-8.9h-24.7c-2.3,0-4.1,1.8-4.1,4.1v215.5c0,2.3,1.8,4.1,4.1,4.1h163.4
			c2.3,0,4.1-1.8,4.1-4.1v-29l-15.8,6.9L-545.4,383.8z M-574.7,386l-24.1,24.5l-15.8-18.5c-1.2-1.5-1.1-3.6,0.4-4.9
			c1.5-1.2,3.6-1.1,4.9,0.4l10.9,12.7l18.8-19.1c1.3-1.4,3.5-1.4,4.9,0C-573.3,382.4-573.3,384.6-574.7,386z M-574.7,350.1
			l-24.1,24.5l-15.8-18.5c-1.2-1.5-1.1-3.6,0.4-4.9c1.5-1.2,3.6-1.1,4.9,0.4l10.9,12.7l18.8-19.1c1.3-1.4,3.5-1.4,4.9,0
			C-573.3,346.6-573.3,348.8-574.7,350.1z M-574.7,314.2l-24.1,24.5l-15.8-18.5c-1.2-1.5-1.1-3.6,0.4-4.9c1.5-1.2,3.6-1.1,4.9,0.4
			l10.9,12.7l18.8-19.1c1.3-1.4,3.5-1.4,4.9,0C-573.3,310.7-573.3,312.9-574.7,314.2z M-574.7,278.4l-24.1,24.5l-15.8-18.5
			c-1.2-1.5-1.1-3.6,0.4-4.9c1.5-1.2,3.6-1.1,4.9,0.4l10.9,12.7l18.8-19.1c1.3-1.4,3.5-1.4,4.9,0
			C-573.3,274.8-573.3,277-574.7,278.4z"/>
	</g>
	<g>
		<path class="st0" d="M-471.3,214.4c5.1,0,9.3,4.2,9.3,9.3v66.7l7.9,4.2v-74.3c0-8.3-6.7-14.9-14.9-14.9h-27v9.1h24.7V214.4z"/>
	</g>
	<g>
		<path class="st0" d="M-462,439.3c0,5.1-4.2,9.3-9.3,9.3h-163.4c-5.1,0-9.3-4.2-9.3-9.3V223.7c0-5.1,4.2-9.3,9.3-9.3h24.7v-9.1h-27
			c-8.3,0-14.9,6.7-14.9,14.9v222.4c0,8.3,6.7,14.9,14.9,14.9h168c8.3,0,14.9-6.7,14.9-14.9v-38.2l-7.9,3.4V439.3z"/>
	</g>
	<g>
		<path class="st0" d="M-504.2,193.8h-97.6c-1.7,0-3.1,1.4-3.1,3.1v8.5v9.1v5.2v8.9c0,1.7,1.4,3.1,3.1,3.1h97.6
			c1.7,0,3.1-1.4,3.1-3.1v-8.9v-5.2v-9.1v-8.5C-501.1,195.2-502.5,193.8-504.2,193.8z"/>
	</g>
	<g>
		<polygon class="st0" points="-454,301.8 -462,297.5 -467.2,294.8 -480.7,287.5 -531.2,309.5 -482.6,335.5 -467.2,328.8 
			-462,326.5 -454,323.1 -432,313.5 		"/>
	</g>
	<g>
		<polygon class="st0" points="-454,329.9 -462,333.4 -467.2,335.6 -479.7,341 -479.7,408.8 -467.2,403.4 -462,401.1 -454,397.7 
			-424.2,384.7 -424.2,317 		"/>
	</g>
	<g>
		<polygon class="st0" points="-539.1,380 -486,408.4 -486,340.8 -539.1,312.4 		"/>
	</g>
</g>
<rect x="3.5" y="-412.8" class="st0" width="871.3" height="21.1"/>
</svg>
