<?xml version="1.0" encoding="utf-8"?>
<!-- Generator: Adobe Illustrator 27.0.0, SVG Export Plug-In . SVG Version: 6.00 Build 0)  -->
<svg version="1.1" xmlns="http://www.w3.org/2000/svg" xmlns:xlink="http://www.w3.org/1999/xlink" x="0px" y="0px"
	 viewBox="0 0 595.28 631.8" style="enable-background:new 0 0 595.28 631.8;" xml:space="preserve">
<style type="text/css">
	.st0{display:none;}
	.st1{display:inline;}
	.st2{fill:#FFFFFF;stroke:#000000;stroke-miterlimit:10;}
	.st3{fill:#3FC1ED;}
	.st4{fill:#175267;}
	.st5{fill:#0C3A47;}
	.st6{fill:url(#SVGID_1_);}
	.st7{fill:url(#SVGID_00000121276147842791016460000001397266984301903757_);}
	.st8{fill:#D34F4F;}
	.st9{fill:#E05D5D;}
	.st10{fill:#1B5160;}
	.st11{fill:#7AB3C1;}
	.st12{fill:#F69799;stroke:#1B5160;stroke-miterlimit:10;}
</style>
<g id="Layer_1" class="st0">
	<g class="st1">
		<g>
			
				<ellipse transform="matrix(0.9589 -0.2837 0.2837 0.9589 -23.1344 61.7648)" class="st2" cx="201.67" cy="110.75" rx="68.68" ry="81"/>
			
				<ellipse transform="matrix(0.2837 -0.9589 0.9589 0.2837 185.8787 470.3387)" class="st2" cx="407.76" cy="110.75" rx="81" ry="68.68"/>
		</g>
		<g>
			
				<ellipse transform="matrix(0.9064 -0.4224 0.4224 0.9064 -26.3406 95.167)" class="st2" cx="201.56" cy="107.02" rx="41.14" ry="47.45"/>
			
				<ellipse transform="matrix(0.4224 -0.9064 0.9064 0.4224 139.1438 432.4016)" class="st2" cx="408.87" cy="107.02" rx="47.45" ry="41.14"/>
		</g>
		<g>
			<path d="M549.36,483.85c-33.66,33.88-73.86,48.03-103.79,39.39c-7.97-2.3-21.6-1.17-27.38-6.91c-7.4-7.35-7.69-21.11-9.5-31.9
				c-4.93-29.29,10.01-68.12,41.16-99.47c42.63-42.9,99.46-55.53,126.94-28.23C604.27,384.04,591.99,440.96,549.36,483.85z"/>
			<g>
				<g>
					<path class="st2" d="M201.67,355l-96.57-19.56c0,0-24.45-7.71-33.01,13.87s-17.11,52.14,0,66.81c0,0,47.68,46.45,129.58,14.67
						V355z"/>
					<path class="st2" d="M404.44,341.97c0,0,56.27,114.52,41.5,165.75c0,0,53.66,20.81,74.6,43.73
						c27.01,29.58,1.95,71.22,1.95,71.22s-11.94,24.17-58.28,20.43c0,0-63.8-12.49-105.43-59.97l-46.67,3.05
						c-2.7,0.18-5.41,0.27-8.12,0.27l0,0c-2.65,0-5.29-0.08-7.93-0.25l-48.01-3.06c-41.63,47.48-105.43,59.97-105.43,59.97
						c-46.34,3.75-58.28-20.43-58.28-20.43s-25.06-41.64,1.95-71.22c20.93-22.92,74.6-43.73,74.6-43.73
						c-14.77-51.23,41.5-165.75,41.5-165.75"/>
					<path class="st2" d="M414.91,362.1l-73.38,65.76c0,0-20.79,15-8.59,34.76c12.19,19.75,31.59,44.87,53.58,39.91
						c0,0,65.73-10.48,89.17-95.15c4.24-16.8-2.35-34.46-16.36-44.09C446.21,354.27,428.8,353.8,414.91,362.1z"/>
				</g>
				<g>
					<g>
						<path class="st2" d="M482.7,188.03c-11.83-11.58-21.51-25.16-28.67-40.09c-22.89-47.73-81.68-81.69-150.62-81.69
							s-127.73,33.96-150.62,81.69c-7.16,14.93-16.84,28.51-28.67,40.09c-19.67,19.24-31.01,41.9-31.01,66.14
							c0,69.86,94.16,126.49,210.3,126.49s210.3-56.63,210.3-126.49C513.71,229.93,502.37,207.28,482.7,188.03z"/>
					</g>
					<g>
						<g>
							<path class="st2" d="M137.12,207.93l-26.33,13.5c-6.42,3.29-13.9-0.34-16.63-8.07l-1.49-4.21
								c-2.73-7.73,0.28-16.75,6.7-20.04l26.33-13.5c6.42-3.29,13.9,0.34,16.63,8.07l1.49,4.21
								C146.55,195.62,143.54,204.64,137.12,207.93z"/>
							<path class="st2" d="M469.71,213.16l26.33,13.5c6.42,3.29,13.9-0.34,16.63-8.07l1.49-4.21c2.73-7.73-0.28-16.75-6.7-20.04
								l-26.33-13.5c-6.42-3.29-13.9,0.34-16.63,8.07l-1.49,4.21C460.27,200.86,463.29,209.87,469.71,213.16z"/>
							<path class="st2" d="M320.28,233.45c5.07,11.56,13.77,17.79,31.18,30.26c27.74,19.88,80.75,18.93,114-15.13
								c5.5-5.63,31.67-32.44,27.92-63.89c-0.01-0.06-0.02-0.13-0.02-0.19c-1.07-8.69-5.73-16.13-12.25-20.08
								c-3.12-1.9-6.32-3.73-9.6-5.51C410,125.6,347.82,126.64,302.6,137.05c-45.23-10.41-107.4-11.45-168.91,21.86
								c-3.27,1.77-6.47,3.61-9.6,5.51c-6.52,3.95-11.18,11.39-12.25,20.08c-0.01,0.06-0.02,0.13-0.02,0.19
								c-3.75,31.45,22.42,58.26,27.92,63.89c29.74,30.47,77.3,37.67,114,15.13c18.12-11.13,26.35-18.53,31.18-30.26
								c2.06-5.01,5.42-15.64,13.29-18.76c1.05-0.42,4.34-1.55,8.07-0.37C314.19,216.82,317.8,227.79,320.28,233.45z"/>
						</g>
						<path class="st2" d="M303.41,152.95c0,0,51.27-14.75,117.04,0c0,0,48.7,10.84,56.46,26.15c7.76,15.32,0,26.9,0,26.9
							s-21.5,48.48-70.42,54.55c-48.91,6.08-80.03-40.35-80.03-40.35s-12.9-22.25-23.05-21.78c-10.15-0.48-23.05,21.78-23.05,21.78
							s-31.12,46.43-80.03,40.35c-48.91-6.08-70.42-54.55-70.42-54.55s-7.76-11.58,0-26.9s56.46-26.15,56.46-26.15
							C252.14,138.2,303.41,152.95,303.41,152.95z"/>
					</g>
					<path class="st2" d="M298.45,237.74c1.84,2.22,6.44,2.22,8.28,0l2.27-2.74l2.27-2.74c1.84-2.22-0.46-4.99-4.14-4.99h-4.55
						h-4.55c-3.68,0-5.98,2.77-4.14,4.99l2.27,2.74L298.45,237.74z"/>
					<path class="st2" d="M302.59,239.41v35.32l-9.34,5.43c1.18,0.57,2.76,1.19,4.68,1.6c1.75,0.37,3.3,0.47,4.53,0.46
						c1.23,0.06,2.89,0.02,4.79-0.38c1.98-0.42,3.56-1.09,4.68-1.67c-3.11-1.81-6.23-3.62-9.34-5.43"/>
					<ellipse cx="220.27" cy="203.55" rx="22.28" ry="35.86"/>
					<ellipse cx="383.81" cy="203.55" rx="22.28" ry="35.86"/>
				</g>
			</g>
		</g>
	</g>
</g>
<g id="Layer_2">
	<g>
		<g>
			<path class="st3" d="M428.37,462.21c-12.63-11.42-25.07-21.78-37.14-31.2c-3.57,12.81-4.53,25.17-2.67,36.18
				c1.82,10.79,2.1,24.55,9.5,31.9c5.78,5.74,19.41,4.61,27.38,6.91c13.51,3.9,29.11,3.14,45.26-1.97
				C458.11,490.45,444.05,476.39,428.37,462.21z"/>
			<path class="st3" d="M567.8,403c6.95-25.23,3.74-48.71-11.15-63.5c-15.86-15.76-41.51-18.21-68.56-9.22
				c13.49,10.61,27.46,22.35,41.66,35.33C543.61,378.27,556.26,390.81,567.8,403z"/>
			<path class="st3" d="M540.53,454.07c-14.55-16.28-31.26-33.39-50.36-50.65c-18.15-16.41-35.92-30.66-52.72-43
				c-2.62,2.33-5.2,4.77-7.73,7.31c-4.57,4.6-8.78,9.36-12.64,14.22c16.31,12.41,33.42,26.5,50.88,42.46
				c19.29,17.64,36.28,35.05,51.15,51.62c3.42-2.95,6.8-6.08,10.11-9.42C533.27,462.55,537.04,458.35,540.53,454.07z"/>
			<path class="st4" d="M540.53,454.07c13.37-16.42,22.61-34.13,27.27-51.07c-11.54-12.2-24.2-24.74-38.04-37.39
				c-14.2-12.98-28.17-24.72-41.66-35.33c-17.03,5.66-34.61,15.86-50.65,30.13c16.8,12.34,34.56,26.59,52.72,43
				C509.27,420.68,525.98,437.79,540.53,454.07z"/>
			<path class="st4" d="M467.97,424.41c-17.46-15.96-34.58-30.05-50.88-42.46c-12.56,15.84-21.32,32.81-25.85,49.06
				c12.06,9.41,24.51,19.78,37.14,31.2c15.68,14.17,29.74,28.24,42.33,41.83c16.11-5.09,32.76-14.52,48.42-28.01
				C504.24,459.46,487.26,442.05,467.97,424.41z"/>
		</g>
		<path class="st5" d="M186.92,321.78"/>
		<path class="st5" d="M285.28,566.24"/>
		<path class="st5" d="M285.28,567.24l102.48-244.46c0,0,55.94,114.52,41.25,165.75c0,0,53.34,20.81,74.15,43.73
			c26.85,29.58,1.94,71.22,1.94,71.22s-11.87,24.17-57.93,20.43c0,0-63.41-12.49-104.8-59.97l-46.39,3.05
			c-2.69,0.18-5.38,0.27-8.07,0.27l0,0"/>
		<g>
			<linearGradient id="SVGID_1_" gradientUnits="userSpaceOnUse" x1="221.7268" y1="163.1352" x2="141.3355" y2="23.8933">
				<stop  offset="0" style="stop-color:#46C8F5"/>
				<stop  offset="0.3795" style="stop-color:#46C4F1"/>
				<stop  offset="0.5163" style="stop-color:#45BCE9"/>
				<stop  offset="0.6137" style="stop-color:#42B0DE"/>
				<stop  offset="0.6925" style="stop-color:#3DA1D0"/>
				<stop  offset="0.7601" style="stop-color:#388FBF"/>
				<stop  offset="0.8199" style="stop-color:#317AAB"/>
				<stop  offset="0.874" style="stop-color:#296396"/>
				<stop  offset="0.9237" style="stop-color:#204B7F"/>
				<stop  offset="0.9679" style="stop-color:#17326A"/>
				<stop  offset="1" style="stop-color:#101C5A"/>
			</linearGradient>
			<path class="st6" d="M247.39,74.03c12.69,42.9-6.5,86.4-42.88,97.16c-36.37,10.76-76.14-15.29-88.84-58.19s6.5-86.4,42.88-97.16
				S234.7,31.13,247.39,74.03z"/>
			
				<linearGradient id="SVGID_00000173145710573632785290000017681591575761515963_" gradientUnits="userSpaceOnUse" x1="347.4345" y1="163.1352" x2="427.8258" y2="23.8933">
				<stop  offset="0" style="stop-color:#46C8F5"/>
				<stop  offset="0.3795" style="stop-color:#46C4F1"/>
				<stop  offset="0.5163" style="stop-color:#45BCE9"/>
				<stop  offset="0.6137" style="stop-color:#42B0DE"/>
				<stop  offset="0.6925" style="stop-color:#3DA1D0"/>
				<stop  offset="0.7601" style="stop-color:#388FBF"/>
				<stop  offset="0.8199" style="stop-color:#317AAB"/>
				<stop  offset="0.874" style="stop-color:#296396"/>
				<stop  offset="0.9237" style="stop-color:#204B7F"/>
				<stop  offset="0.9679" style="stop-color:#17326A"/>
				<stop  offset="1" style="stop-color:#101C5A"/>
			</linearGradient>
			<path style="fill:url(#SVGID_00000173145710573632785290000017681591575761515963_);" d="M453.49,113
				c12.69-42.9-6.5-86.4-42.88-97.16s-76.14,15.29-88.84,58.19c-12.69,42.9,6.5,86.4,42.88,97.16
				C401.02,181.95,440.79,155.9,453.49,113z"/>
			
				<ellipse transform="matrix(0.9064 -0.4224 0.4224 0.9064 -20.9442 85.0479)" class="st8" cx="181.43" cy="89.78" rx="41.14" ry="47.45"/>
			
				<ellipse transform="matrix(0.4224 -0.9064 0.9064 0.4224 143.1376 404.1978)" class="st9" cx="388.73" cy="89.78" rx="47.45" ry="41.14"/>
		</g>
		<path class="st3" d="M181.53,337.76L84.96,318.2c0,0-24.45-7.71-33.01,13.87c-8.56,21.58-17.11,52.14,0,66.81
			c0,0,47.68,46.45,129.58,14.67V337.76z"/>
		<path class="st3" d="M384.31,324.74c0,0,56.27,114.52,41.5,165.75c0,0,53.66,20.81,74.6,43.73c27.01,29.58,1.95,71.22,1.95,71.22
			s-11.94,24.17-58.28,20.43c0,0-63.8-12.49-105.43-59.97l-46.67,3.05c-2.7,0.18-5.41,0.26-8.12,0.26h0c-2.65,0-5.29-0.08-7.93-0.25
			l-48.01-3.06c-41.63,47.48-105.43,59.97-105.43,59.97c-46.34,3.75-58.28-20.43-58.28-20.43s-25.06-41.64,1.95-71.22
			c20.93-22.92,74.6-43.73,74.6-43.73c-14.77-51.23,41.5-165.75,41.5-165.75"/>
		<path class="st4" d="M387.21,345.97l-73.06,64.96c0,0-20.73,14.78-8.3,34.62c12.44,19.84,32.16,45.11,54.19,40.37
			c0,0,65.92-9.83,88.64-94.15c4.09-16.74-2.69-34.44-16.86-44.19C418.57,338.45,401.07,337.81,387.21,345.97z"/>
		<path class="st3" d="M389.08,343.66l-73.38,65.76c0,0-20.79,15-8.59,34.76c12.19,19.75,31.59,44.87,53.58,39.91
			c0,0,65.73-10.48,89.17-95.15c4.24-16.8-2.35-34.46-16.36-44.09C420.38,335.83,402.96,335.36,389.08,343.66z"/>
		<g>
			<path class="st3" d="M462.57,170.8c-11.83-11.58-21.51-25.16-28.67-40.09c-22.89-47.73-81.68-81.69-150.62-81.69
				s-127.73,33.96-150.62,81.69c-7.16,14.93-16.84,28.51-28.67,40.09c-19.67,19.24-31.01,41.9-31.01,66.14
				c0,69.86,94.16,126.49,210.3,126.49s210.3-56.63,210.3-126.49C493.58,212.69,482.24,190.04,462.57,170.8z"/>
		</g>
		<g>
			<path class="st10" d="M116.98,190.69l-26.33,13.5c-6.42,3.29-13.9-0.34-16.63-8.07l-1.49-4.21c-2.73-7.73,0.28-16.75,6.7-20.04
				l26.33-13.5c6.42-3.29,13.9,0.34,16.63,8.07l1.49,4.21C126.42,178.39,123.4,187.4,116.98,190.69z"/>
			<path class="st10" d="M449.57,195.93l26.33,13.5c6.42,3.29,13.9-0.34,16.63-8.07l1.49-4.21c2.73-7.73-0.28-16.75-6.7-20.04
				l-26.33-13.5c-6.42-3.29-13.9,0.34-16.63,8.07l-1.49,4.21C440.14,183.62,443.15,192.64,449.57,195.93z"/>
			<path class="st10" d="M300.14,216.21c5.07,11.56,13.77,17.79,31.18,30.26c27.74,19.88,80.75,18.93,114-15.13
				c5.5-5.63,31.67-32.44,27.92-63.89c-0.01-0.06-0.02-0.13-0.02-0.19c-1.07-8.69-5.73-16.13-12.25-20.08
				c-3.12-1.9-6.32-3.73-9.6-5.51c-61.51-33.31-123.68-32.27-168.91-21.86c-45.23-10.41-107.4-11.45-168.91,21.86
				c-3.27,1.77-6.47,3.61-9.6,5.51c-6.52,3.95-11.18,11.39-12.25,20.08c-0.01,0.06-0.02,0.13-0.02,0.19
				c-3.75,31.45,22.42,58.26,27.92,63.89c29.74,30.47,77.3,37.67,114,15.13c18.12-11.13,26.35-18.53,31.18-30.26
				c2.06-5.01,5.42-15.64,13.29-18.76c1.05-0.42,4.34-1.55,8.07-0.37C294.05,199.59,297.66,210.56,300.14,216.21z"/>
		</g>
		<path class="st11" d="M282.46,133.75c0,0,47.97-13.8,109.51,0c0,0,45.57,10.14,52.82,24.47c7.26,14.33,0,25.17,0,25.17
			s-20.12,45.36-65.89,51.04c-45.77,5.68-74.88-37.76-74.88-37.76s-12.07-20.82-21.56-20.37c-9.49-0.45-21.56,20.37-21.56,20.37
			s-29.12,43.44-74.88,37.76c-45.77-5.68-65.89-51.04-65.89-51.04s-7.26-10.84,0-25.17c7.26-14.33,52.82-24.47,52.82-24.47
			C234.49,119.95,282.46,133.75,282.46,133.75z"/>
		<path class="st10" d="M278.32,220.51c1.84,2.22,6.44,2.22,8.28,0l2.27-2.74l2.27-2.74c1.84-2.22-0.46-4.99-4.14-4.99h-4.55h-4.55
			c-3.68,0-5.98,2.77-4.14,4.99l2.27,2.74L278.32,220.51z"/>
		<path class="st12" d="M282.46,222.17v35.32l-9.34,5.43c1.18,0.57,2.76,1.19,4.68,1.6c1.75,0.37,3.3,0.47,4.53,0.46
			c1.23,0.06,2.89,0.02,4.79-0.38c1.98-0.42,3.56-1.09,4.68-1.67c-3.11-1.81-6.23-3.62-9.34-5.43"/>
		<ellipse cx="200.14" cy="186.31" rx="22.28" ry="35.86"/>
		<ellipse cx="363.68" cy="186.31" rx="22.28" ry="35.86"/>
		<path class="st4" d="M596.97,452.91"/>
	</g>
</g>
<g id="Layer_3">
</g>
</svg>
