<?xml version="1.0" encoding="utf-8"?>
<!-- Generator: Adobe Illustrator 27.0.0, SVG Export Plug-In . SVG Version: 6.00 Build 0)  -->
<svg version="1.1" id="Layer_1" xmlns="http://www.w3.org/2000/svg" xmlns:xlink="http://www.w3.org/1999/xlink" x="0px" y="0px"
	 viewBox="0 0 409.6 409.6" style="enable-background:new 0 0 409.6 409.6;" xml:space="preserve">
<style type="text/css">
	.st0{fill:#264DE4;}
	.st1{fill:#2965F1;}
	.st2{fill:#EBEBEB;}
	.st3{fill:#FFFFFF;}
</style>
<path class="st0" d="M349.89,80.5l-26.44,296.16L204.62,409.6L86.12,376.7L59.71,80.5H349.89z"/>
<path class="st1" d="M300.82,357.8l22.59-253.08H204.8v279.7L300.82,357.8z"/>
<path class="st2" d="M120.25,214.57l3.26,36.33h81.3v-36.33H120.25z M204.8,141.04h-91.09l3.3,36.33h87.79V141.04z M204.8,346.72
	v-37.8l-0.16,0.04l-40.46-10.92l-2.59-28.97h-36.47l5.09,57.04l74.42,20.66L204.8,346.72z"/>
<path d="M128,0h44v18.4h-25.6v18.4H172v18.4h-44L128,0z M180.8,0h44v16h-25.6v3.2h25.6V56h-44V39.2h25.6V36h-25.6V0z M233.6,0h44v16
	H252v3.2h25.6V56h-44V39.2h25.6V36h-25.6V0z"/>
<path class="st3" d="M249.41,250.9l-4.22,47.12l-40.52,10.94v37.8l74.48-20.64l0.55-6.14l8.54-95.64l0.89-9.76l6.56-73.53h-91v36.33
	h51.19l-3.31,37.2h-47.88v36.33L249.41,250.9z"/>
</svg>
