<svg xmlns="http://www.w3.org/2000/svg" viewBox="0 0 4096 4096"><path fill="#52218a" d="m661.333 3157.348-69.589 59.733c-48.896 41.9-117.248 52.694-176.683 27.947l-310.016-129.237C41.43 3089.295 0 3027.129 0 2958.223V1137.807c0-68.907 41.43-131.072 105.045-157.568l310.016-129.152c59.435-24.747 127.787-13.952 176.683 27.946l69.59 59.648c-59.137-42.282-141.867-4.693-148.907 67.67a92.788 92.788 0 0 0-.427 9.13v2065.067c.085 72.704 78.848 118.101 141.781 81.664a87.49 87.49 0 0 0 7.552-4.864Z"/><path fill="#6c33af" d="M4096 672.868v9.813c.043-124.33-134.57-202.112-242.261-139.946a161.248 161.248 0 0 0-21.718 15.018L661.333 3157.348l-69.589 59.733c-48.896 41.9-117.248 52.694-176.683 27.947l-310.016-129.237C41.43 3089.295 0 3027.129 0 2958.223v-14.208c0 75.861 82.133 123.306 147.84 85.376a99.051 99.051 0 0 0 23.85-19.286L2816 85.348c76.672-76.672 193.408-96.512 291.115-49.45l843.818 406.314c88.662 42.624 145.024 132.267 145.067 230.656Z"/><path fill="#854cc7" d="M4096 3413.348v9.813c-.043 98.39-56.405 188.032-145.067 230.656l-843.946 406.315c-97.664 47.019-214.358 27.179-290.987-49.45L171.69 1085.923c-50.858-56.277-143.615-36.437-166.911 35.797a98.615 98.615 0 0 0-4.78 30.294v-14.208c0-68.907 41.43-131.072 105.046-157.568l310.016-129.152c59.435-24.747 127.787-13.952 176.683 27.946l69.59 59.648L3832.02 3538.276c96.128 78.848 241.622 24.064 261.846-98.645a164.21 164.21 0 0 0 2.133-26.283Z"/><path fill="#b179f1" d="M2816 4010.681c5.888 5.888 12.459 10.838 18.816 16.086A157.317 157.317 0 0 1 2816 4010.68Zm18.816-3941.418A157.317 157.317 0 0 0 2816 85.348c5.93-5.93 12.459-10.837 18.816-16.085Zm1116.117 372.309-843.818-405.76c-89.515-42.88-195.798-29.824-272.299 33.45 94.037-67.071 225.45-7.167 236.501 107.82.47 4.735.683 9.514.683 14.293v3713.28c-.043 115.498-125.141 187.648-225.152 129.877a148.218 148.218 0 0 1-12.032-7.765c76.501 63.274 182.784 76.33 272.299 33.45l843.818-405.76C4039.595 3611.833 4096 3522.148 4096 3423.76V672.313c0-98.389-56.363-188.117-145.067-230.741Z"/></svg>